0
SECTION
2
HEADER
9
$ACADVER
1
AC1014
9
$ACADMAINTVER
70
8
9
$DWGCODEPAGE
3
ANSI_1252
9
$INSBASE
10
0.0
20
0.0
30
0.0
9
$EXTMIN
10
1.000000E+20
20
1.000000E+20
30
1.000000E+20
9
$EXTMAX
10
-1.000000E+20
20
-1.000000E+20
30
-1.000000E+20
9
$LIMMIN
10
0.0
20
0.0
9
$LIMMAX
10
12.0
20
9.0
9
$ORTHOMODE
70
0
9
$REGENMODE
70
1
9
$FILLMODE
70
1
9
$QTEXTMODE
70
0
9
$MIRRTEXT
70
1
9
$DRAGMODE
70
2
9
$LTSCALE
40
1.0
9
$OSMODE
70
0
9
$ATTMODE
70
1
9
$TEXTSIZE
40
0.2
9
$TRACEWID
40
0.05
9
$TEXTSTYLE
7
STANDARD
9
$CLAYER
8
0
9
$CELTYPE
6
BYLAYER
9
$CECOLOR
62
256
9
$CELTSCALE
40
1.0
9
$DELOBJ
70
1
9
$DISPSILH
70
0
9
$DIMSCALE
40
1.0
9
$DIMASZ
40
0.18
9
$DIMEXO
40
0.0625
9
$DIMDLI
40
0.38
9
$DIMRND
40
0.0
9
$DIMDLE
40
0.0
9
$DIMEXE
40
0.18
9
$DIMTP
40
0.0
9
$DIMTM
40
0.0
9
$DIMTXT
40
0.18
9
$DIMCEN
40
0.09
9
$DIMTSZ
40
0.0
9
$DIMTOL
70
0
9
$DIMLIM
70
0
9
$DIMTIH
70
1
9
$DIMTOH
70
1
9
$DIMSE1
70
0
9
$DIMSE2
70
0
9
$DIMTAD
70
0
9
$DIMZIN
70
0
9
$DIMBLK
1

9
$DIMASO
70
1
9
$DIMSHO
70
1
9
$DIMPOST
1

9
$DIMAPOST
1

9
$DIMALT
70
0
9
$DIMALTD
70
2
9
$DIMALTF
40
25.4
9
$DIMLFAC
40
1.0
9
$DIMTOFL
70
0
9
$DIMTVP
40
0.0
9
$DIMTIX
70
0
9
$DIMSOXD
70
0
9
$DIMSAH
70
0
9
$DIMBLK1
1

9
$DIMBLK2
1

9
$DIMSTYLE
2
STANDARD
9
$DIMCLRD
70
0
9
$DIMCLRE
70
0
9
$DIMCLRT
70
0
9
$DIMTFAC
40
1.0
9
$DIMGAP
40
0.09
9
$DIMJUST
70
0
9
$DIMSD1
70
0
9
$DIMSD2
70
0
9
$DIMTOLJ
70
1
9
$DIMTZIN
70
0
9
$DIMALTZ
70
0
9
$DIMALTTZ
70
0
9
$DIMFIT
70
3
9
$DIMUPT
70
0
9
$DIMUNIT
70
2
9
$DIMDEC
70
4
9
$DIMTDEC
70
4
9
$DIMALTU
70
2
9
$DIMALTTD
70
2
9
$DIMTXSTY
7
STANDARD
9
$DIMAUNIT
70
0
9
$LUNITS
70
2
9
$LUPREC
70
4
9
$SKETCHINC
40
0.1
9
$FILLETRAD
40
0.5
9
$AUNITS
70
0
9
$AUPREC
70
0
9
$MENU
1
.
9
$ELEVATION
40
0.0
9
$PELEVATION
40
0.0
9
$THICKNESS
40
0.0
9
$LIMCHECK
70
0
9
$BLIPMODE
70
0
9
$CHAMFERA
40
0.5
9
$CHAMFERB
40
0.5
9
$CHAMFERC
40
1.0
9
$CHAMFERD
40
0.0
9
$SKPOLY
70
1
9
$TDCREATE
40
2451008.519973958
9
$TDUPDATE
40
2451008.523538426
9
$TDINDWG
40
0.0024055556
9
$TDUSRTIMER
40
0.0024055556
9
$USRTIMER
70
1
9
$ANGBASE
50
0.0
9
$ANGDIR
70
0
9
$PDMODE
70
0
9
$PDSIZE
40
0.0
9
$PLINEWID
40
0.0
9
$COORDS
70
1
9
$SPLFRAME
70
0
9
$SPLINETYPE
70
6
9
$SPLINESEGS
70
8
9
$ATTDIA
70
0
9
$ATTREQ
70
1
9
$HANDLING
70
1
9
$HANDSEED
5
5B
9
$SURFTAB1
70
6
9
$SURFTAB2
70
6
9
$SURFTYPE
70
6
9
$SURFU
70
6
9
$SURFV
70
6
9
$UCSNAME
2

9
$UCSORG
10
0.0
20
0.0
30
0.0
9
$UCSXDIR
10
1.0
20
0.0
30
0.0
9
$UCSYDIR
10
0.0
20
1.0
30
0.0
9
$PUCSNAME
2

9
$PUCSORG
10
0.0
20
0.0
30
0.0
9
$PUCSXDIR
10
1.0
20
0.0
30
0.0
9
$PUCSYDIR
10
0.0
20
1.0
30
0.0
9
$USERI1
70
0
9
$USERI2
70
0
9
$USERI3
70
0
9
$USERI4
70
0
9
$USERI5
70
0
9
$USERR1
40
0.0
9
$USERR2
40
0.0
9
$USERR3
40
0.0
9
$USERR4
40
0.0
9
$USERR5
40
0.0
9
$WORLDVIEW
70
1
9
$SHADEDGE
70
3
9
$SHADEDIF
70
70
9
$TILEMODE
70
1
9
$MAXACTVP
70
48
9
$PINSBASE
10
0.0
20
0.0
30
0.0
9
$PLIMCHECK
70
0
9
$PEXTMIN
10
1.000000E+20
20
1.000000E+20
30
1.000000E+20
9
$PEXTMAX
10
-1.000000E+20
20
-1.000000E+20
30
-1.000000E+20
9
$PLIMMIN
10
0.0
20
0.0
9
$PLIMMAX
10
12.0
20
9.0
9
$UNITMODE
70
0
9
$VISRETAIN
70
1
9
$PLINEGEN
70
0
9
$PSLTSCALE
70
1
9
$TREEDEPTH
70
3020
9
$PICKSTYLE
70
1
9
$CMLSTYLE
2
STANDARD
9
$CMLJUST
70
0
9
$CMLSCALE
40
1.0
9
$PROXYGRAPHICS
70
1
9
$MEASUREMENT
70
0
0
ENDSEC
0
SECTION
2
CLASSES
0
ENDSEC
0
SECTION
2
TABLES
0
TABLE
2
VPORT
5
8
100
AcDbSymbolTable
70
3
0
VPORT
5
5A
100
AcDbSymbolTableRecord
100
AcDbViewportTableRecord
2
*ACTIVE
70
0
10
0.0
20
0.0
11
1.0
21
1.0
12
7.623626
22
4.5
13
0.0
23
0.0
14
0.5
24
0.5
15
0.5
25
0.5
16
0.0
26
0.0
36
1.0
17
0.0
27
0.0
37
0.0
40
9.0
41
1.694139
42
50.0
43
0.0
44
0.0
50
0.0
51
0.0
71
0
72
100
73
1
74
1
75
0
76
0
77
0
78
0
0
ENDTAB
0
TABLE
2
LTYPE
5
5
100
AcDbSymbolTable
70
1
0
LTYPE
5
13
100
AcDbSymbolTableRecord
100
AcDbLinetypeTableRecord
2
BYBLOCK
70
0
3

72
65
73
0
40
0.0
0
LTYPE
5
14
100
AcDbSymbolTableRecord
100
AcDbLinetypeTableRecord
2
BYLAYER
70
0
3

72
65
73
0
40
0.0
0
LTYPE
5
15
100
AcDbSymbolTableRecord
100
AcDbLinetypeTableRecord
2
CONTINUOUS
70
0
3
Solid line
72
65
73
0
40
0.0
0
ENDTAB
0
TABLE
2
LAYER
5
2
100
AcDbSymbolTable
70
10
0
LAYER
5
F
100
AcDbSymbolTableRecord
100
AcDbLayerTableRecord
2
0
70
0
62
7
6
CONTINUOUS
0
LAYER
5
4C
100
AcDbSymbolTableRecord
100
AcDbLayerTableRecord
2
FRAMES
70
0
62
2
6
CONTINUOUS
0
LAYER
5
4D
100
AcDbSymbolTableRecord
100
AcDbLayerTableRecord
2
JOINTS
70
0
62
2
6
CONTINUOUS
0
LAYER
5
4E
100
AcDbSymbolTableRecord
100
AcDbLayerTableRecord
2
SHELLS
70
0
62
1
6
CONTINUOUS
0
LAYER
5
4F
100
AcDbSymbolTableRecord
100
AcDbLayerTableRecord
2
GRIDS
70
0
62
8
6
CONTINUOUS
0
LAYER
5
50
100
AcDbSymbolTableRecord
100
AcDbLayerTableRecord
2
PLANES
70
0
62
5
6
CONTINUOUS
0
LAYER
5
51
100
AcDbSymbolTableRecord
100
AcDbLayerTableRecord
2
ASOLIDS
70
0
62
6
6
CONTINUOUS
0
LAYER
5
52
100
AcDbSymbolTableRecord
100
AcDbLayerTableRecord
2
SOLIDS
70
0
62
7
6
CONTINUOUS
0
LAYER
5
53
100
AcDbSymbolTableRecord
100
AcDbLayerTableRecord
2
TEXT
70
0
62
94
6
CONTINUOUS
0
LAYER
5
58
100
AcDbSymbolTableRecord
100
AcDbLayerTableRecord
2
NLLINKS
70
0
62
3
6
CONTINUOUS
0
ENDTAB
0
TABLE
2
STYLE
5
3
100
AcDbSymbolTable
70
1
0
STYLE
5
10
100
AcDbSymbolTableRecord
100
AcDbTextStyleTableRecord
2
STANDARD
70
0
40
0.0
41
1.0
50
0.0
71
0
42
0.2
3
txt
4

0
ENDTAB
0
TABLE
2
VIEW
5
6
100
AcDbSymbolTable
70
0
0
ENDTAB
0
TABLE
2
UCS
5
7
100
AcDbSymbolTable
70
0
0
ENDTAB
0
TABLE
2
APPID
5
9
100
AcDbSymbolTable
70
1
0
APPID
5
11
100
AcDbSymbolTableRecord
100
AcDbRegAppTableRecord
2
ACAD
70
0
0
ENDTAB
0
TABLE
2
DIMSTYLE
5
A
100
AcDbSymbolTable
70
1
0
DIMSTYLE
105
1D
100
AcDbSymbolTableRecord
100
AcDbDimStyleTableRecord
2
STANDARD
70
0
3

4

5

6

7

40
1.0
41
0.18
42
0.0625
43
0.38
44
0.18
45
0.0
46
0.0
47
0.0
48
0.0
140
0.18
141
0.09
142
0.0
143
25.4
144
1.0
145
0.0
146
1.0
147
0.09
71
0
72
0
73
1
74
1
75
0
76
0
77
0
78
0
170
0
171
2
172
0
173
0
174
0
175
0
176
0
177
0
178
0
270
2
271
4
272
4
273
2
274
2
340
10
275
0
280
0
281
0
282
0
283
1
284
0
285
0
286
0
287
3
288
0
0
ENDTAB
0
TABLE
2
BLOCK_RECORD
5
1
100
AcDbSymbolTable
70
0
0
BLOCK_RECORD
5
19
100
AcDbSymbolTableRecord
100
AcDbBlockTableRecord
2
*MODEL_SPACE
0
BLOCK_RECORD
5
16
100
AcDbSymbolTableRecord
100
AcDbBlockTableRecord
2
*PAPER_SPACE
0
ENDTAB
0
ENDSEC
0
SECTION
2
BLOCKS
0
BLOCK
5
1A
100
AcDbEntity
8
0
100
AcDbBlockBegin
2
*MODEL_SPACE
70
0
10
0.0
20
0.0
30
0.0
3
*MODEL_SPACE
1

0
ENDBLK
5
1B
100
AcDbEntity
8
0
100
AcDbBlockEnd
0
BLOCK
5
17
100
AcDbEntity
67
1
8
0
100
AcDbBlockBegin
2
*PAPER_SPACE
70
0
10
0.0
20
0.0
30
0.0
3
*PAPER_SPACE
1

0
ENDBLK
5
18
100
AcDbEntity
67
1
8
0
100
AcDbBlockEnd
0
ENDSEC
0
SECTION
2
ENTITIES
0
3DFACE
5
B2
100
AcDbEntity
8
SHELLS
100
AcDbFace
10
0.96516485
20
-0.17702902
30
0.00000000
11
0.99436669
21
-0.16311905
31
0.00000000
12
0.99874982
22
-0.16656115
32
-0.03173344
13
0.96514594
23
-0.18256798
33
-0.03173344
0
3DFACE
5
B3
100
AcDbEntity
8
SHELLS
100
AcDbFace
10
0.99436669
20
-0.16311905
30
0.00000000
11
1.00051585
21
-0.18880776
31
0.00000000
12
1.00607938
22
-0.19718104
32
-0.03173344
13
0.99874982
23
-0.16656115
33
-0.03173344
0
3DFACE
5
B4
100
AcDbEntity
8
SHELLS
100
AcDbFace
10
1.00051585
20
-0.18880776
30
0.00000000
11
0.84566973
21
-0.51902518
31
0.00000000
12
0.85630674
22
-0.51658003
32
-0.03173344
13
1.00607938
23
-0.19718104
33
-0.03173344
0
3DFACE
5
B5
100
AcDbEntity
8
SHELLS
100
AcDbFace
10
0.84566973
20
-0.51902518
30
0.00000000
11
0.80173832
21
-0.56475564
31
0.00000000
12
0.80553739
22
-0.56942846
32
-0.03173344
13
0.85630674
23
-0.51658003
33
-0.03173344
0
3DFACE
5
B6
100
AcDbEntity
8
SHELLS
100
AcDbFace
10
0.80173832
20
-0.56475564
30
0.00000000
11
0.80966688
21
-0.50095248
31
0.00000000
12
0.81465410
22
-0.49606396
32
-0.03173344
13
0.80553739
23
-0.56942846
33
-0.03173344
0
3DFACE
5
B7
100
AcDbEntity
8
SHELLS
100
AcDbFace
10
0.80966688
20
-0.50095248
30
0.00000000
11
0.96516485
21
-0.17702902
31
0.00000000
12
0.96514594
22
-0.18256798
32
-0.03173344
13
0.81465410
23
-0.49606396
33
-0.03173344
0
3DFACE
5
B8
100
AcDbEntity
8
SHELLS
100
AcDbFace
10
0.48112140
20
-0.42354155
30
0.00000000
11
0.41478397
21
-0.38740708
31
0.00000000
12
0.41020226
22
-0.37997713
32
-0.03173344
13
0.49044068
23
-0.42368357
33
-0.03173344
0
3DFACE
5
B9
100
AcDbEntity
8
SHELLS
100
AcDbFace
10
0.41478397
20
-0.38740708
30
0.00000000
11
0.49064739
21
-0.38864653
31
0.00000000
12
0.50232959
22
-0.38148230
32
-0.03173344
13
0.41020226
23
-0.37997713
33
-0.03173344
0
3DFACE
5
B10
100
AcDbEntity
8
SHELLS
100
AcDbFace
10
0.49064739
20
-0.38864653
30
0.00000000
11
0.74546670
21
-0.45101707
31
0.00000000
12
0.74133805
22
-0.43998240
32
-0.03173344
13
0.50232959
23
-0.38148230
33
-0.03173344
0
3DFACE
5
B11
100
AcDbEntity
8
SHELLS
100
AcDbFace
10
0.74546670
20
-0.45101707
30
0.00000000
11
0.80422051
21
-0.49063040
31
0.00000000
12
0.80920773
22
-0.48574188
32
-0.03173344
13
0.74133805
23
-0.43998240
33
-0.03173344
0
3DFACE
5
B12
100
AcDbEntity
8
SHELLS
100
AcDbFace
10
0.80422051
20
-0.49063040
30
0.00000000
11
0.73317283
21
-0.49558378
31
0.00000000
12
0.72749506
22
-0.49143881
32
-0.03173344
13
0.80920773
23
-0.48574188
33
-0.03173344
0
3DFACE
5
B13
100
AcDbEntity
8
SHELLS
100
AcDbFace
10
0.73317283
20
-0.49558378
30
0.00000000
11
0.48112140
21
-0.42354155
31
0.00000000
12
0.49044068
22
-0.42368357
32
-0.03173344
13
0.72749506
23
-0.49143881
33
-0.03173344
0
3DFACE
5
B14
100
AcDbEntity
8
SHELLS
100
AcDbFace
10
0.15917404
20
-0.55779798
30
0.00000000
11
0.07103534
21
-0.51579052
31
0.00000000
12
0.06527663
22
-0.50599219
32
-0.03173344
13
0.17029072
23
-0.55604257
33
-0.03173344
0
3DFACE
5
B15
100
AcDbEntity
8
SHELLS
100
AcDbFace
10
0.07103534
20
-0.51579052
30
0.00000000
11
0.16792810
21
-0.53440487
31
0.00000000
12
0.18087362
22
-0.52819987
32
-0.03173344
13
0.06527663
23
-0.50599219
33
-0.03173344
0
3DFACE
5
B16
100
AcDbEntity
8
SHELLS
100
AcDbFace
10
0.16792810
20
-0.53440487
30
0.00000000
11
0.34117749
21
-0.58983036
31
0.00000000
12
0.33670434
22
-0.57805118
32
-0.03173344
13
0.18087362
23
-0.52819987
33
-0.03173344
0
3DFACE
5
B17
100
AcDbEntity
8
SHELLS
100
AcDbFace
10
0.34117749
20
-0.58983036
30
0.00000000
11
0.42222824
21
-0.63145345
31
0.00000000
12
0.43081025
22
-0.62637866
32
-0.03173344
13
0.33670434
23
-0.57805118
33
-0.03173344
0
3DFACE
5
B18
100
AcDbEntity
8
SHELLS
100
AcDbFace
10
0.42222824
20
-0.63145345
30
0.00000000
11
0.33297098
21
-0.61665646
31
0.00000000
12
0.32732684
22
-0.60922327
32
-0.03173344
13
0.43081025
23
-0.62637866
33
-0.03173344
0
3DFACE
5
B19
100
AcDbEntity
8
SHELLS
100
AcDbFace
10
0.33297098
20
-0.61665646
30
0.00000000
11
0.15917404
21
-0.55779798
31
0.00000000
12
0.17029072
22
-0.55604257
32
-0.03173344
13
0.32732684
23
-0.60922327
33
-0.03173344
0
3DFACE
5
B20
100
AcDbEntity
8
SHELLS
100
AcDbFace
10
-0.21374463
20
-0.39771415
30
0.00000000
11
-0.13471078
21
-0.40608402
31
0.00000000
12
-0.12600482
22
-0.41583294
32
-0.03173344
13
-0.22454074
23
-0.40539776
33
-0.03173344
0
3DFACE
5
B21
100
AcDbEntity
8
SHELLS
100
AcDbFace
10
-0.13471078
20
-0.40608402
30
0.00000000
11
-0.21426798
21
-0.42247372
31
0.00000000
12
-0.22541730
22
-0.43631305
32
-0.03173344
13
-0.12600482
23
-0.41583294
33
-0.03173344
0
3DFACE
5
B22
100
AcDbEntity
8
SHELLS
100
AcDbFace
10
-0.21426798
20
-0.42247372
30
0.00000000
11
-0.41186729
21
-0.43350353
31
0.00000000
12
-0.39971348
22
-0.44604321
32
-0.03173344
13
-0.22541730
23
-0.43631305
33
-0.03173344
0
3DFACE
5
B23
100
AcDbEntity
8
SHELLS
100
AcDbFace
10
-0.41186729
20
-0.43350353
30
0.00000000
11
-0.52449063
21
-0.42440785
31
0.00000000
12
-0.53543547
22
-0.43508204
32
-0.03173344
13
-0.39971348
23
-0.44604321
33
-0.03173344
0
3DFACE
5
B24
100
AcDbEntity
8
SHELLS
100
AcDbFace
10
-0.52449063
20
-0.42440785
30
0.00000000
11
-0.41552230
21
-0.40555329
31
0.00000000
12
-0.40422917
22
-0.41237968
32
-0.03173344
13
-0.53543547
23
-0.43508204
33
-0.03173344
0
3DFACE
5
B25
100
AcDbEntity
8
SHELLS
100
AcDbFace
10
-0.41552230
20
-0.40555329
30
0.00000000
11
-0.21374463
21
-0.39771415
31
0.00000000
12
-0.22454074
22
-0.40539776
32
-0.03173344
13
-0.40422917
23
-0.41237968
33
-0.03173344
0
3DFACE
5
B26
100
AcDbEntity
8
SHELLS
100
AcDbFace
10
-0.12188461
20
-0.33434626
30
0.00000000
11
-0.20217503
21
-0.31318171
31
0.00000000
12
-0.21033819
22
-0.30365987
32
-0.03173344
13
-0.11017050
23
-0.33006406
33
-0.03173344
0
3DFACE
5
B27
100
AcDbEntity
8
SHELLS
100
AcDbFace
10
-0.20217503
20
-0.31318171
30
0.00000000
11
-0.11761792
21
-0.30829372
31
0.00000000
12
-0.10463750
22
-0.29754963
32
-0.03173344
13
-0.21033819
23
-0.30365987
33
-0.03173344
0
3DFACE
5
B28
100
AcDbEntity
8
SHELLS
100
AcDbFace
10
-0.11761792
20
-0.30829372
30
0.00000000
11
0.09878340
21
-0.33039040
31
0.00000000
12
0.09016712
22
-0.31744297
32
-0.03173344
13
-0.10463750
23
-0.29754963
33
-0.03173344
0
3DFACE
5
B29
100
AcDbEntity
8
SHELLS
100
AcDbFace
10
0.09878340
20
-0.33039040
30
0.00000000
11
0.16748583
21
-0.35090579
31
0.00000000
12
0.17607613
22
-0.34309645
32
-0.03173344
13
0.09016712
23
-0.31744297
33
-0.03173344
0
3DFACE
5
B30
100
AcDbEntity
8
SHELLS
100
AcDbFace
10
0.16748583
20
-0.35090579
30
0.00000000
11
0.09702122
21
-0.35672226
31
0.00000000
12
0.08824051
22
-0.35034680
32
-0.03173344
13
0.17607613
23
-0.34309645
33
-0.03173344
0
3DFACE
5
B31
100
AcDbEntity
8
SHELLS
100
AcDbFace
10
0.09702122
20
-0.35672226
30
0.00000000
11
-0.12188461
21
-0.33434626
31
0.00000000
12
-0.11017050
22
-0.33006406
32
-0.03173344
13
0.08824051
23
-0.35034680
33
-0.03173344
0
3DFACE
5
B32
100
AcDbEntity
8
SHELLS
100
AcDbFace
10
0.92546758
20
-0.15197912
30
0.00000000
11
0.95891971
21
-0.18128641
31
0.00000000
12
0.95890080
22
-0.18682536
32
-0.03173344
13
0.92022327
23
-0.15294012
33
-0.03173344
0
3DFACE
5
B33
100
AcDbEntity
8
SHELLS
100
AcDbFace
10
0.95891971
20
-0.18128641
30
0.00000000
11
0.92741990
21
-0.20536075
31
0.00000000
12
0.92161453
22
-0.21532212
32
-0.03173344
13
0.95890080
23
-0.18682536
33
-0.03173344
0
3DFACE
5
B34
100
AcDbEntity
8
SHELLS
100
AcDbFace
10
0.92741990
20
-0.20536075
30
0.00000000
11
0.51145641
21
-0.18264037
31
0.00000000
12
0.52054588
22
-0.19341527
32
-0.03173344
13
0.92161453
23
-0.21532212
33
-0.03173344
0
3DFACE
5
B35
100
AcDbEntity
8
SHELLS
100
AcDbFace
10
0.51145641
20
-0.18264037
30
0.00000000
11
0.45248476
21
-0.16223719
31
0.00000000
12
0.44578801
22
-0.16755032
32
-0.03173344
13
0.52054588
23
-0.19341527
33
-0.03173344
0
3DFACE
5
B36
100
AcDbEntity
8
SHELLS
100
AcDbFace
10
0.45248476
20
-0.16223719
30
0.00000000
11
0.51292675
21
-0.14618693
31
0.00000000
12
0.52186931
22
-0.14734708
32
-0.03173344
13
0.44578801
23
-0.16755032
33
-0.03173344
0
3DFACE
5
B37
100
AcDbEntity
8
SHELLS
100
AcDbFace
10
0.51292675
20
-0.14618693
30
0.00000000
11
0.92546758
21
-0.15197912
31
0.00000000
12
0.92022327
22
-0.15294012
32
-0.03173344
13
0.52186931
23
-0.14734708
33
-0.03173344
0
3DFACE
5
B38
100
AcDbEntity
8
SHELLS
100
AcDbFace
10
0.40519796
20
-0.39294371
30
0.00000000
11
0.38472980
21
-0.44041987
31
0.00000000
12
0.37589344
22
-0.44285864
32
-0.03173344
13
0.40061626
23
-0.38551377
33
-0.03173344
0
3DFACE
5
B39
100
AcDbEntity
8
SHELLS
100
AcDbFace
10
0.38472980
20
-0.44041987
30
0.00000000
11
0.38135065
21
-0.38915567
31
0.00000000
12
0.37178915
22
-0.38059344
32
-0.03173344
13
0.37589344
23
-0.44285864
33
-0.03173344
0
3DFACE
5
B40
100
AcDbEntity
8
SHELLS
100
AcDbFace
10
0.38135065
20
-0.38915567
30
0.00000000
11
0.42510903
21
-0.14923625
31
0.00000000
12
0.41313524
22
-0.15390156
32
-0.03173344
13
0.37178915
23
-0.38059344
33
-0.03173344
0
3DFACE
5
B41
100
AcDbEntity
8
SHELLS
100
AcDbFace
10
0.42510903
20
-0.14923625
30
0.00000000
11
0.44027307
21
-0.12029118
31
0.00000000
12
0.43241697
22
-0.11709668
32
-0.03173344
13
0.41313524
23
-0.15390156
33
-0.03173344
0
3DFACE
5
B42
100
AcDbEntity
8
SHELLS
100
AcDbFace
10
0.44027307
20
-0.12029118
30
0.00000000
11
0.44486422
21
-0.15398217
31
0.00000000
12
0.43816747
22
-0.15929530
32
-0.03173344
13
0.43241697
23
-0.11709668
33
-0.03173344
0
3DFACE
5
B43
100
AcDbEntity
8
SHELLS
100
AcDbFace
10
0.44486422
20
-0.15398217
30
0.00000000
11
0.40519796
21
-0.39294371
31
0.00000000
12
0.40061626
22
-0.38551377
32
-0.03173344
13
0.43816747
23
-0.15929530
33
-0.03173344
0
3DFACE
5
B44
100
AcDbEntity
8
SHELLS
100
AcDbFace
10
0.47454886
20
0.11644085
30
0.00000000
11
0.47943135
21
0.15738783
31
0.00000000
12
0.48759918
22
0.16182296
32
-0.03173344
13
0.48148328
23
0.11053198
33
-0.03173344
0
3DFACE
5
B45
100
AcDbEntity
8
SHELLS
100
AcDbFace
10
0.47943135
20
0.15738783
30
0.00000000
11
0.49515018
21
0.11994168
31
0.00000000
12
0.50747467
22
0.11447464
32
-0.03173344
13
0.48759918
23
0.16182296
33
-0.03173344
0
3DFACE
5
B46
100
AcDbEntity
8
SHELLS
100
AcDbFace
10
0.49515018
20
0.11994168
30
0.00000000
11
0.52580368
21
-0.10223186
31
0.00000000
12
0.53623081
22
-0.09395512
32
-0.03173344
13
0.50747467
23
0.11447464
33
-0.03173344
0
3DFACE
5
B47
100
AcDbEntity
8
SHELLS
100
AcDbFace
10
0.52580368
20
-0.10223186
30
0.00000000
11
0.52029956
21
-0.13721968
31
0.00000000
12
0.52924213
22
-0.13837983
32
-0.03173344
13
0.53623081
23
-0.09395512
33
-0.03173344
0
3DFACE
5
B48
100
AcDbEntity
8
SHELLS
100
AcDbFace
10
0.52029956
20
-0.13721968
30
0.00000000
11
0.50517998
21
-0.10408145
31
0.00000000
12
0.51028569
22
-0.09683219
32
-0.03173344
13
0.52924213
23
-0.13837983
33
-0.03173344
0
3DFACE
5
B49
100
AcDbEntity
8
SHELLS
100
AcDbFace
10
0.50517998
20
-0.10408145
30
0.00000000
11
0.47454886
21
0.11644085
31
0.00000000
12
0.48148328
22
0.11053198
32
-0.03173344
13
0.51028569
23
-0.09683219
33
-0.03173344
0
3DFACE
5
B50
100
AcDbEntity
8
SHELLS
100
AcDbFace
10
0.40092830
20
0.15068644
30
0.00000000
11
0.40214901
21
0.12196450
31
0.00000000
12
0.39431639
22
0.11816590
32
-0.03173344
13
0.39279196
23
0.15403409
33
-0.03173344
0
3DFACE
5
B51
100
AcDbEntity
8
SHELLS
100
AcDbFace
10
0.40214901
20
0.12196450
30
0.00000000
11
0.38686631
21
0.14461945
31
0.00000000
12
0.37492584
22
0.14691027
32
-0.03173344
13
0.39431639
23
0.11816590
33
-0.03173344
0
3DFACE
5
B52
100
AcDbEntity
8
SHELLS
100
AcDbFace
10
0.38686631
20
0.14461945
30
0.00000000
11
0.32486054
21
0.32909043
31
0.00000000
12
0.31692768
22
0.31945775
32
-0.03173344
13
0.37492584
23
0.14691027
33
-0.03173344
0
3DFACE
5
B53
100
AcDbEntity
8
SHELLS
100
AcDbFace
10
0.32486054
20
0.32909043
30
0.00000000
11
0.31653125
21
0.38331912
31
0.00000000
12
0.30682673
22
0.38522098
32
-0.03173344
13
0.31692768
23
0.31945775
33
-0.03173344
0
3DFACE
5
B54
100
AcDbEntity
8
SHELLS
100
AcDbFace
10
0.31653125
20
0.38331912
30
0.00000000
11
0.34192650
21
0.33454912
31
0.00000000
12
0.33751719
22
0.32628187
32
-0.03173344
13
0.30682673
23
0.38522098
33
-0.03173344
0
3DFACE
5
B55
100
AcDbEntity
8
SHELLS
100
AcDbFace
10
0.34192650
20
0.33454912
30
0.00000000
11
0.40092830
21
0.15068644
31
0.00000000
12
0.39279196
22
0.15403409
32
-0.03173344
13
0.33751719
23
0.32628187
33
-0.03173344
0
3DFACE
5
B56
100
AcDbEntity
8
SHELLS
100
AcDbFace
10
0.14041610
20
0.28778379
30
0.00000000
11
0.14540208
21
0.34732224
31
0.00000000
12
0.15495604
22
0.35326342
32
-0.03173344
13
0.14877548
23
0.27946012
33
-0.03173344
0
3DFACE
5
B57
100
AcDbEntity
8
SHELLS
100
AcDbFace
10
0.14540208
20
0.34732224
30
0.00000000
11
0.15965442
21
0.28861208
31
0.00000000
12
0.17267805
22
0.28026056
32
-0.03173344
13
0.15495604
23
0.35326342
33
-0.03173344
0
3DFACE
5
B58
100
AcDbEntity
8
SHELLS
100
AcDbFace
10
0.15965442
20
0.28861208
30
0.00000000
11
0.17011891
21
0.13119796
31
0.00000000
12
0.18193752
22
0.14096085
32
-0.03173344
13
0.17267805
23
0.28026056
33
-0.03173344
0
3DFACE
5
B59
100
AcDbEntity
8
SHELLS
100
AcDbFace
10
0.17011891
20
0.13119796
30
0.00000000
11
0.16474346
21
0.09480806
31
0.00000000
12
0.17487584
22
0.09315583
32
-0.03173344
13
0.18193752
23
0.14096085
33
-0.03173344
0
3DFACE
5
B60
100
AcDbEntity
8
SHELLS
100
AcDbFace
10
0.16474346
20
0.09480806
30
0.00000000
11
0.15389695
21
0.13027956
31
0.00000000
12
0.16077314
22
0.13927613
32
-0.03173344
13
0.17487584
23
0.09315583
33
-0.03173344
0
3DFACE
5
B61
100
AcDbEntity
8
SHELLS
100
AcDbFace
10
0.15389695
20
0.13027956
30
0.00000000
11
0.14041610
21
0.28778379
31
0.00000000
12
0.14877548
22
0.27946012
32
-0.03173344
13
0.16077314
23
0.13927613
33
-0.03173344
0
3DFACE
5
B62
100
AcDbEntity
8
SHELLS
100
AcDbFace
10
-0.81361154
20
0.14873222
30
0.00000000
11
-0.88166506
21
0.18243887
31
0.00000000
12
-0.88460994
22
0.19046521
32
-0.03173344
13
-0.80578646
23
0.15142424
33
-0.03173344
0
3DFACE
5
B63
100
AcDbEntity
8
SHELLS
100
AcDbFace
10
-0.88166506
20
0.18243887
30
0.00000000
11
-0.80620391
21
0.19576484
31
0.00000000
12
-0.79686810
22
0.20595987
32
-0.03173344
13
-0.88460994
23
0.19046521
33
-0.03173344
0
3DFACE
5
B64
100
AcDbEntity
8
SHELLS
100
AcDbFace
10
-0.80620391
20
0.19576484
30
0.00000000
11
-0.52824910
21
0.14896286
31
0.00000000
12
-0.53852468
22
0.16245938
32
-0.03173344
13
-0.79686810
23
0.20595987
33
-0.03173344
0
3DFACE
5
B65
100
AcDbEntity
8
SHELLS
100
AcDbFace
10
-0.52824910
20
0.14896286
30
0.00000000
11
-0.44812917
21
0.11873677
31
0.00000000
12
-0.43935804
22
0.12504772
32
-0.03173344
13
-0.53852468
23
0.16245938
33
-0.03173344
0
3DFACE
5
B66
100
AcDbEntity
8
SHELLS
100
AcDbFace
10
-0.44812917
20
0.11873677
30
0.00000000
11
-0.53180522
21
0.11328264
31
0.00000000
12
-0.54261003
22
0.11831760
32
-0.03173344
13
-0.43935804
23
0.12504772
33
-0.03173344
0
3DFACE
5
B67
100
AcDbEntity
8
SHELLS
100
AcDbFace
10
-0.53180522
20
0.11328264
30
0.00000000
11
-0.81361154
21
0.14873222
31
0.00000000
12
-0.80578646
22
0.15142424
32
-0.03173344
13
-0.54261003
23
0.11831760
33
-0.03173344
0
3DFACE
5
B68
100
AcDbEntity
8
SHELLS
100
AcDbFace
10
-0.53471380
20
-0.11473497
30
0.00000000
11
-0.54729207
21
-0.16951142
31
0.00000000
12
-0.55834080
22
-0.17392478
32
-0.03173344
13
-0.54283237
23
-0.10638792
33
-0.03173344
0
3DFACE
5
B69
100
AcDbEntity
8
SHELLS
100
AcDbFace
10
-0.54729207
20
-0.16951142
30
0.00000000
11
-0.55732969
21
-0.11363831
31
0.00000000
12
-0.57077321
22
-0.10472139
32
-0.03173344
13
-0.55834080
23
-0.17392478
33
-0.03173344
0
3DFACE
5
B70
100
AcDbEntity
8
SHELLS
100
AcDbFace
10
-0.55732969
20
-0.11363831
30
0.00000000
11
-0.55308919
21
0.05211261
31
0.00000000
12
-0.56695684
22
0.04438900
32
-0.03173344
13
-0.57077321
23
-0.10472139
33
-0.03173344
0
3DFACE
5
B71
100
AcDbEntity
8
SHELLS
100
AcDbFace
10
-0.55308919
20
0.05211261
30
0.00000000
11
-0.54019388
21
0.10582931
31
0.00000000
12
-0.55099869
22
0.11086427
32
-0.03173344
13
-0.56695684
23
0.04438900
33
-0.03173344
0
3DFACE
5
B72
100
AcDbEntity
8
SHELLS
100
AcDbFace
10
-0.54019388
20
0.10582931
30
0.00000000
11
-0.53036668
21
0.05188950
31
0.00000000
12
-0.53889610
22
0.04443519
32
-0.03173344
13
-0.55099869
23
0.11086427
33
-0.03173344
0
3DFACE
5
B73
100
AcDbEntity
8
SHELLS
100
AcDbFace
10
-0.53036668
20
0.05188950
30
0.00000000
11
-0.53471380
21
-0.11473497
31
0.00000000
12
-0.54283237
22
-0.10638792
32
-0.03173344
13
-0.53889610
23
0.04443519
33
-0.03173344
0
3DFACE
5
B74
100
AcDbEntity
8
SHELLS
100
AcDbFace
10
-0.42105432
20
0.25594012
30
0.00000000
11
-0.39793454
21
0.33637796
31
0.00000000
12
-0.38683627
22
0.34266981
32
-0.03173344
13
-0.41452718
23
0.24632820
33
-0.03173344
0
3DFACE
5
B75
100
AcDbEntity
8
SHELLS
100
AcDbFace
10
-0.39793454
20
0.33637796
30
0.00000000
11
-0.39905673
21
0.25163296
31
0.00000000
12
-0.38818234
22
0.24101813
32
-0.03173344
13
-0.38683627
23
0.34266981
33
-0.03173344
0
3DFACE
5
B76
100
AcDbEntity
8
SHELLS
100
AcDbFace
10
-0.39905673
20
0.25163296
30
0.00000000
11
-0.42171564
21
0.10754068
31
0.00000000
12
-0.40823709
22
0.11348307
32
-0.03173344
13
-0.38818234
23
0.24101813
33
-0.03173344
0
3DFACE
5
B77
100
AcDbEntity
8
SHELLS
100
AcDbFace
10
-0.42171564
20
0.10754068
30
0.00000000
11
-0.43808931
21
0.06584924
31
0.00000000
12
-0.42852800
22
0.06181737
32
-0.03173344
13
-0.40823709
23
0.11348307
33
-0.03173344
0
3DFACE
5
B78
100
AcDbEntity
8
SHELLS
100
AcDbFace
10
-0.43808931
20
0.06584924
30
0.00000000
11
-0.44151689
21
0.11071308
31
0.00000000
12
-0.43274577
22
0.11702403
32
-0.03173344
13
-0.42852800
23
0.06181737
33
-0.03173344
0
3DFACE
5
B79
100
AcDbEntity
8
SHELLS
100
AcDbFace
10
-0.44151689
20
0.11071308
30
0.00000000
11
-0.42105432
21
0.25594012
31
0.00000000
12
-0.41452718
22
0.24632820
32
-0.03173344
13
-0.43274577
23
0.11702403
33
-0.03173344
0
3DFACE
5
B80
100
AcDbEntity
8
SHELLS
100
AcDbFace
10
-0.40466447
20
0.34505472
30
0.00000000
11
-0.50916203
21
0.36569388
31
0.00000000
12
-0.51877377
22
0.37607613
32
-0.03173344
13
-0.39356620
23
0.35134656
33
-0.03173344
0
3DFACE
5
B81
100
AcDbEntity
8
SHELLS
100
AcDbFace
10
-0.50916203
20
0.36569388
30
0.00000000
11
-0.40081245
21
0.37102084
31
0.00000000
12
-0.38883509
22
0.38246451
32
-0.03173344
13
-0.51877377
23
0.37607613
33
-0.03173344
0
3DFACE
5
B82
100
AcDbEntity
8
SHELLS
100
AcDbFace
10
-0.40081245
20
0.37102084
30
0.00000000
11
-0.24196762
21
0.35793351
31
0.00000000
12
-0.25485887
22
0.37142667
32
-0.03173344
13
-0.38883509
23
0.38246451
33
-0.03173344
0
3DFACE
5
B83
100
AcDbEntity
8
SHELLS
100
AcDbFace
10
-0.24196762
20
0.35793351
30
0.00000000
11
-0.13998085
21
0.33821832
31
0.00000000
12
-0.12876144
22
0.34705062
32
-0.03173344
13
-0.25485887
23
0.37142667
33
-0.03173344
0
3DFACE
5
B84
100
AcDbEntity
8
SHELLS
100
AcDbFace
10
-0.13998085
20
0.33821832
30
0.00000000
11
-0.24149796
21
0.33415869
31
0.00000000
12
-0.25414388
22
0.34203662
32
-0.03173344
13
-0.12876144
23
0.34705062
33
-0.03173344
0
3DFACE
5
B85
100
AcDbEntity
8
SHELLS
100
AcDbFace
10
-0.24149796
20
0.33415869
30
0.00000000
11
-0.40466447
21
0.34505472
31
0.00000000
12
-0.39356620
22
0.35134656
32
-0.03173344
13
-0.25414388
23
0.34203662
33
-0.03173344
0
3DFACE
5
B86
100
AcDbEntity
8
SHELLS
100
AcDbFace
10
-0.89304323
20
0.55940728
30
0.00000000
11
-0.98671288
21
0.65629047
31
0.00000000
12
-0.98794461
22
0.66643512
32
-0.03173344
13
-0.88411799
23
0.55904649
33
-0.03173344
0
3DFACE
5
B87
100
AcDbEntity
8
SHELLS
100
AcDbFace
10
-0.98671288
20
0.65629047
30
0.00000000
11
-0.86706593
21
0.59143276
31
0.00000000
12
-0.85524213
22
0.59450032
32
-0.03173344
13
-0.98794461
23
0.66643512
33
-0.03173344
0
3DFACE
5
B88
100
AcDbEntity
8
SHELLS
100
AcDbFace
10
-0.86706593
20
0.59143276
30
0.00000000
11
-0.72247565
21
0.47669414
31
0.00000000
12
-0.72415554
22
0.49048002
32
-0.03173344
13
-0.85524213
23
0.59450032
33
-0.03173344
0
3DFACE
5
B89
100
AcDbEntity
8
SHELLS
100
AcDbFace
10
-0.72247565
20
0.47669414
30
0.00000000
11
-0.64024146
21
0.39257934
31
0.00000000
12
-0.62931414
22
0.39346969
32
-0.03173344
13
-0.72415554
23
0.49048002
33
-0.03173344
0
3DFACE
5
B90
100
AcDbEntity
8
SHELLS
100
AcDbFace
10
-0.64024146
20
0.39257934
30
0.00000000
11
-0.74200072
21
0.44907080
31
0.00000000
12
-0.74653599
22
0.45854518
32
-0.03173344
13
-0.62931414
23
0.39346969
33
-0.03173344
0
3DFACE
5
B91
100
AcDbEntity
8
SHELLS
100
AcDbFace
10
-0.74200072
20
0.44907080
30
0.00000000
11
-0.89304323
21
0.55940728
31
0.00000000
12
-0.88411799
22
0.55904649
32
-0.03173344
13
-0.74653599
23
0.45854518
33
-0.03173344
0
3DFACE
5
B92
100
AcDbEntity
8
SHELLS
100
AcDbFace
10
-1.13817862
20
-0.29172207
30
0.00000000
11
-1.14951129
21
-0.24005485
31
0.00000000
12
-1.14112127
22
-0.23522845
32
-0.03173344
13
-1.12859886
23
-0.29231986
33
-0.03173344
0
3DFACE
5
B93
100
AcDbEntity
8
SHELLS
100
AcDbFace
10
-1.14951129
20
-0.24005485
30
0.00000000
11
-1.11557291
21
-0.27963355
31
0.00000000
12
-1.10348904
22
-0.27911489
32
-0.03173344
13
-1.14112127
23
-0.23522845
33
-0.03173344
0
3DFACE
5
B94
100
AcDbEntity
8
SHELLS
100
AcDbFace
10
-1.11557291
20
-0.27963355
30
0.00000000
11
-1.00412654
21
-0.50304308
31
0.00000000
12
-0.99642794
22
-0.49373829
32
-0.03173344
13
-1.10348904
23
-0.27911489
33
-0.03173344
0
3DFACE
5
B95
100
AcDbEntity
8
SHELLS
100
AcDbFace
10
-1.00412654
20
-0.50304308
30
0.00000000
11
-0.98403167
21
-0.57260478
31
0.00000000
12
-0.97420516
22
-0.57066611
32
-0.03173344
13
-0.99642794
23
-0.49373829
33
-0.03173344
0
3DFACE
5
B96
100
AcDbEntity
8
SHELLS
100
AcDbFace
10
-0.98403167
20
-0.57260478
30
0.00000000
11
-1.02746506
21
-0.51444265
31
0.00000000
12
-1.02215456
22
-0.50645654
32
-0.03173344
13
-0.97420516
23
-0.57066611
33
-0.03173344
0
3DFACE
5
B97
100
AcDbEntity
8
SHELLS
100
AcDbFace
10
-1.02746506
20
-0.51444265
30
0.00000000
11
-1.13817862
21
-0.29172207
31
0.00000000
12
-1.12859886
22
-0.29231986
32
-0.03173344
13
-1.02215456
23
-0.50645654
33
-0.03173344
0
3DFACE
5
B98
100
AcDbEntity
8
SHELLS
100
AcDbFace
10
-0.81730718
20
-0.49927740
30
0.00000000
11
-0.69850872
21
-0.46293009
31
0.00000000
12
-0.68884466
22
-0.46439111
32
-0.03173344
13
-0.82548041
23
-0.50619589
33
-0.03173344
0
3DFACE
5
B99
100
AcDbEntity
8
SHELLS
100
AcDbFace
10
-0.69850872
20
-0.46293009
30
0.00000000
11
-0.79689196
21
-0.54133615
31
0.00000000
12
-0.80215687
22
-0.55469474
32
-0.03173344
13
-0.68884466
23
-0.46439111
33
-0.03173344
0
3DFACE
5
B100
100
AcDbEntity
8
SHELLS
100
AcDbFace
10
-0.79689196
20
-0.54133615
30
0.00000000
11
-0.95873054
21
-0.63194710
31
0.00000000
12
-0.94584415
22
-0.63514132
32
-0.03173344
13
-0.80215687
23
-0.55469474
33
-0.03173344
0
3DFACE
5
B101
100
AcDbEntity
8
SHELLS
100
AcDbFace
10
-0.95873054
20
-0.63194710
30
0.00000000
11
-1.14878136
21
-0.69920891
31
0.00000000
12
-1.15592399
22
-0.70949169
32
-0.03173344
13
-0.94584415
23
-0.63514132
33
-0.03173344
0
3DFACE
5
B102
100
AcDbEntity
8
SHELLS
100
AcDbFace
10
-1.14878136
20
-0.69920891
30
0.00000000
11
-0.98731810
21
-0.58292042
31
0.00000000
12
-0.97749159
22
-0.58098175
32
-0.03173344
13
-1.15592399
23
-0.70949169
33
-0.03173344
0
3DFACE
5
B103
100
AcDbEntity
8
SHELLS
100
AcDbFace
10
-0.98731810
20
-0.58292042
30
0.00000000
11
-0.81730718
21
-0.49927740
31
0.00000000
12
-0.82548041
22
-0.50619589
32
-0.03173344
13
-0.97749159
23
-0.58098175
33
-0.03173344
0
3DFACE
5
B104
100
AcDbEntity
8
SHELLS
100
AcDbFace
10
-1.15809358
20
-0.23591308
30
0.00000000
11
-1.33638018
21
-0.24244791
31
0.00000000
12
-1.34704661
22
-0.23832000
32
-0.03173344
13
-1.14970356
23
-0.23108668
33
-0.03173344
0
3DFACE
5
B105
100
AcDbEntity
8
SHELLS
100
AcDbFace
10
-1.33638018
20
-0.24244791
30
0.00000000
11
-1.17133481
21
-0.16588704
31
0.00000000
12
-1.16427271
22
-0.15353526
32
-0.03173344
13
-1.34704661
23
-0.23832000
33
-0.03173344
0
3DFACE
5
B106
100
AcDbEntity
8
SHELLS
100
AcDbFace
10
-1.17133481
20
-0.16588704
30
0.00000000
11
-0.90896443
21
-0.11286504
31
0.00000000
12
-0.92125606
22
-0.10442284
32
-0.03173344
13
-1.16427271
23
-0.15353526
33
-0.03173344
0
3DFACE
5
B107
100
AcDbEntity
8
SHELLS
100
AcDbFace
10
-0.90896443
20
-0.11286504
30
0.00000000
11
-0.81100508
21
-0.11747373
31
0.00000000
12
-0.80678258
22
-0.10980847
32
-0.03173344
13
-0.92125606
23
-0.10442284
33
-0.03173344
0
3DFACE
5
B108
100
AcDbEntity
8
SHELLS
100
AcDbFace
10
-0.81100508
20
-0.11747373
30
0.00000000
11
-0.89545982
21
-0.16450085
31
0.00000000
12
-0.90517306
22
-0.16459547
32
-0.03173344
13
-0.80678258
23
-0.10980847
33
-0.03173344
0
3DFACE
5
B109
100
AcDbEntity
8
SHELLS
100
AcDbFace
10
-0.89545982
20
-0.16450085
30
0.00000000
11
-1.15809358
21
-0.23591308
31
0.00000000
12
-1.14970356
22
-0.23108668
32
-0.03173344
13
-0.90517306
23
-0.16459547
33
-0.03173344
0
3DFACE
5
B110
100
AcDbEntity
8
SHELLS
100
AcDbFace
10
-0.82195952
20
0.08576248
30
0.00000000
11
-0.80757349
21
0.14195814
31
0.00000000
12
-0.79974841
22
0.14465015
32
-0.03173344
13
-0.81638942
23
0.07964594
33
-0.03173344
0
3DFACE
5
B111
100
AcDbEntity
8
SHELLS
100
AcDbFace
10
-0.80757349
20
0.14195814
30
0.00000000
11
-0.78284592
21
0.08999098
31
0.00000000
12
-0.77096251
22
0.08415406
32
-0.03173344
13
-0.79974841
23
0.14465015
33
-0.03173344
0
3DFACE
5
B112
100
AcDbEntity
8
SHELLS
100
AcDbFace
10
-0.78284592
20
0.08999098
30
0.00000000
11
-0.76337425
21
-0.11974766
31
0.00000000
12
-0.75283409
22
-0.11112382
32
-0.03173344
13
-0.77096251
23
0.08415406
33
-0.03173344
0
3DFACE
5
B113
100
AcDbEntity
8
SHELLS
100
AcDbFace
10
-0.76337425
20
-0.11974766
30
0.00000000
11
-0.77629216
21
-0.18796057
31
0.00000000
12
-0.76793434
22
-0.19086056
32
-0.03173344
13
-0.75283409
23
-0.11112382
33
-0.03173344
0
3DFACE
5
B114
100
AcDbEntity
8
SHELLS
100
AcDbFace
10
-0.77629216
20
-0.18796057
30
0.00000000
11
-0.80150300
21
-0.12354979
31
0.00000000
12
-0.79728049
22
-0.11588453
32
-0.03173344
13
-0.76793434
23
-0.19086056
33
-0.03173344
0
3DFACE
5
B115
100
AcDbEntity
8
SHELLS
100
AcDbFace
10
-0.80150300
20
-0.12354979
30
0.00000000
11
-0.82195952
21
0.08576248
31
0.00000000
12
-0.81638942
22
0.07964594
32
-0.03173344
13
-0.79728049
23
-0.11588453
33
-0.03173344
0
3DFACE
5
B116
100
AcDbEntity
8
SHELLS
100
AcDbFace
10
-0.53924051
20
-0.17738876
30
0.00000000
11
-0.45486865
21
-0.18640677
31
0.00000000
12
-0.44606031
22
-0.19294253
32
-0.03173344
13
-0.55028924
23
-0.18180212
33
-0.03173344
0
3DFACE
5
B117
100
AcDbEntity
8
SHELLS
100
AcDbFace
10
-0.45486865
20
-0.18640677
30
0.00000000
11
-0.53739115
21
-0.21255009
31
0.00000000
12
-0.54830280
22
-0.22533320
32
-0.03173344
13
-0.44606031
23
-0.19294253
33
-0.03173344
0
3DFACE
5
B118
100
AcDbEntity
8
SHELLS
100
AcDbFace
10
-0.53739115
20
-0.21255009
30
0.00000000
11
-0.77729225
21
-0.24119941
31
0.00000000
12
-0.76777184
22
-0.25154287
32
-0.03173344
13
-0.54830280
23
-0.22533320
33
-0.03173344
0
3DFACE
5
B119
100
AcDbEntity
8
SHELLS
100
AcDbFace
10
-0.77729225
20
-0.24119941
30
0.00000000
11
-0.86735551
21
-0.22695465
31
0.00000000
12
-0.87296627
22
-0.23490491
32
-0.03173344
13
-0.76777184
23
-0.25154287
33
-0.03173344
0
3DFACE
5
B120
100
AcDbEntity
8
SHELLS
100
AcDbFace
10
-0.86735551
20
-0.22695465
30
0.00000000
11
-0.78280851
21
-0.19638707
31
0.00000000
12
-0.77445069
22
-0.19928705
32
-0.03173344
13
-0.87296627
23
-0.23490491
33
-0.03173344
0
3DFACE
5
B121
100
AcDbEntity
8
SHELLS
100
AcDbFace
10
-0.78280851
20
-0.19638707
30
0.00000000
11
-0.53924051
21
-0.17738876
31
0.00000000
12
-0.55028924
22
-0.18180212
32
-0.03173344
13
-0.77445069
23
-0.19928705
33
-0.03173344
0
3DFACE
5
B122
100
AcDbEntity
8
SHELLS
100
AcDbFace
10
-0.72012982
20
-0.39353075
30
0.00000000
11
-0.82658294
21
-0.39891191
31
0.00000000
12
-0.83540981
22
-0.39293689
32
-0.03173344
13
-0.71299716
23
-0.38674899
33
-0.03173344
0
3DFACE
5
B123
100
AcDbEntity
8
SHELLS
100
AcDbFace
10
-0.82658294
20
-0.39891191
30
0.00000000
11
-0.72713862
21
-0.35657298
31
0.00000000
12
-0.72092043
22
-0.34419245
32
-0.03173344
13
-0.83540981
23
-0.39293689
33
-0.03173344
0
3DFACE
5
B124
100
AcDbEntity
8
SHELLS
100
AcDbFace
10
-0.72713862
20
-0.35657298
30
0.00000000
11
-0.55150903
21
-0.31963948
31
0.00000000
12
-0.56769238
22
-0.31196960
32
-0.03173344
13
-0.72092043
23
-0.34419245
33
-0.03173344
0
3DFACE
5
B125
100
AcDbEntity
8
SHELLS
100
AcDbFace
10
-0.55150903
20
-0.31963948
30
0.00000000
11
-0.43994777
21
-0.31051248
31
0.00000000
12
-0.43314504
22
-0.30096207
32
-0.03173344
13
-0.56769238
23
-0.31196960
33
-0.03173344
0
3DFACE
5
B126
100
AcDbEntity
8
SHELLS
100
AcDbFace
10
-0.43994777
20
-0.31051248
30
0.00000000
11
-0.54224640
21
-0.34967003
31
0.00000000
12
-0.55636628
22
-0.34812831
32
-0.03173344
13
-0.43314504
23
-0.30096207
33
-0.03173344
0
3DFACE
5
B127
100
AcDbEntity
8
SHELLS
100
AcDbFace
10
-0.54224640
20
-0.34967003
30
0.00000000
11
-0.72012982
21
-0.39353075
31
0.00000000
12
-0.71299716
22
-0.38674899
32
-0.03173344
13
-0.55636628
23
-0.34812831
33
-0.03173344
0
3DFACE
5
B128
100
AcDbEntity
8
SHELLS
100
AcDbFace
10
-0.83249223
20
-0.40761048
30
0.00000000
11
-0.82811612
21
-0.49393231
31
0.00000000
12
-0.83628935
22
-0.50085080
32
-0.03173344
13
-0.84131910
23
-0.40163547
33
-0.03173344
0
3DFACE
5
B129
100
AcDbEntity
8
SHELLS
100
AcDbFace
10
-0.82811612
20
-0.49393231
30
0.00000000
11
-0.86182130
21
-0.41326268
31
0.00000000
12
-0.87509424
22
-0.40797556
32
-0.03173344
13
-0.83628935
23
-0.50085080
33
-0.03173344
0
3DFACE
5
B130
100
AcDbEntity
8
SHELLS
100
AcDbFace
10
-0.86182130
20
-0.41326268
30
0.00000000
11
-0.90270809
21
-0.22758087
31
0.00000000
12
-0.91278428
22
-0.23681257
32
-0.03173344
13
-0.87509424
23
-0.40797556
33
-0.03173344
0
3DFACE
5
B131
100
AcDbEntity
8
SHELLS
100
AcDbFace
10
-0.90270809
20
-0.22758087
30
0.00000000
11
-0.90056350
21
-0.17359244
31
0.00000000
12
-0.91027674
22
-0.17368706
32
-0.03173344
13
-0.91278428
23
-0.23681257
33
-0.03173344
0
3DFACE
5
B132
100
AcDbEntity
8
SHELLS
100
AcDbFace
10
-0.90056350
20
-0.17359244
30
0.00000000
11
-0.87542605
21
-0.22172704
31
0.00000000
12
-0.88103681
22
-0.22967730
32
-0.03173344
13
-0.91027674
23
-0.17368706
33
-0.03173344
0
3DFACE
5
B133
100
AcDbEntity
8
SHELLS
100
AcDbFace
10
-0.87542605
20
-0.22172704
30
0.00000000
11
-0.83249223
21
-0.40761048
31
0.00000000
12
-0.84131910
22
-0.40163547
32
-0.03173344
13
-0.88103681
23
-0.22967730
33
-0.03173344
0
3DFACE
5
B134
100
AcDbEntity
8
SHELLS
100
AcDbFace
10
-0.44787207
20
-0.17845411
30
0.00000000
11
-0.44369294
21
-0.13031398
31
0.00000000
12
-0.43391444
22
-0.12567428
32
-0.03173344
13
-0.43906373
23
-0.18498987
33
-0.03173344
0
3DFACE
5
B135
100
AcDbEntity
8
SHELLS
100
AcDbFace
10
-0.44369294
20
-0.13031398
30
0.00000000
11
-0.42703057
21
-0.17567077
31
0.00000000
12
-0.41325468
22
-0.18191238
32
-0.03173344
13
-0.43391444
23
-0.12567428
33
-0.03173344
0
3DFACE
5
B136
100
AcDbEntity
8
SHELLS
100
AcDbFace
10
-0.42703057
20
-0.17567077
30
0.00000000
11
-0.40791767
21
-0.31245487
31
0.00000000
12
-0.39648666
22
-0.30190722
32
-0.03173344
13
-0.41325468
23
-0.18191238
33
-0.03173344
0
3DFACE
5
B137
100
AcDbEntity
8
SHELLS
100
AcDbFace
10
-0.40791767
20
-0.31245487
30
0.00000000
11
-0.40858859
21
-0.39700194
31
0.00000000
12
-0.39729546
22
-0.40382833
32
-0.03173344
13
-0.39648666
23
-0.30190722
33
-0.03173344
0
3DFACE
5
B138
100
AcDbEntity
8
SHELLS
100
AcDbFace
10
-0.40858859
20
-0.39700194
30
0.00000000
11
-0.43064468
21
-0.31656175
31
0.00000000
12
-0.42384194
22
-0.30701134
32
-0.03173344
13
-0.39729546
23
-0.40382833
33
-0.03173344
0
3DFACE
5
B139
100
AcDbEntity
8
SHELLS
100
AcDbFace
10
-0.43064468
20
-0.31656175
30
0.00000000
11
-0.44787207
21
-0.17845411
31
0.00000000
12
-0.43906373
22
-0.18498987
32
-0.03173344
13
-0.42384194
23
-0.30701134
33
-0.03173344
0
3DFACE
5
B140
100
AcDbEntity
8
SHELLS
100
AcDbFace
10
-0.45089127
20
-0.12367187
30
0.00000000
11
-0.52699517
21
-0.10790713
31
0.00000000
12
-0.53511374
22
-0.09956008
32
-0.03173344
13
-0.44111277
23
-0.11903217
33
-0.03173344
0
3DFACE
5
B141
100
AcDbEntity
8
SHELLS
100
AcDbFace
10
-0.52699517
20
-0.10790713
30
0.00000000
11
-0.44928505
21
-0.09297704
31
0.00000000
12
-0.43887667
22
-0.08107050
32
-0.03173344
13
-0.53511374
23
-0.09956008
33
-0.03173344
0
3DFACE
5
B142
100
AcDbEntity
8
SHELLS
100
AcDbFace
10
-0.44928505
20
-0.09297704
30
0.00000000
11
-0.21415759
21
-0.09782457
31
0.00000000
12
-0.22551000
22
-0.08547055
32
-0.03173344
13
-0.43887667
23
-0.08107050
33
-0.03173344
0
3DFACE
5
B143
100
AcDbEntity
8
SHELLS
100
AcDbFace
10
-0.21415759
20
-0.09782457
30
0.00000000
11
-0.15075662
21
-0.11154342
31
0.00000000
12
-0.14287522
22
-0.10335126
32
-0.03173344
13
-0.22551000
23
-0.08547055
33
-0.03173344
0
3DFACE
5
B144
100
AcDbEntity
8
SHELLS
100
AcDbFace
10
-0.15075662
20
-0.11154342
30
0.00000000
11
-0.21341314
21
-0.12352561
31
0.00000000
12
-0.22417946
22
-0.11889957
32
-0.03173344
13
-0.14287522
23
-0.10335126
33
-0.03173344
0
3DFACE
5
B145
100
AcDbEntity
8
SHELLS
100
AcDbFace
10
-0.21341314
20
-0.12352561
30
0.00000000
11
-0.45089127
21
-0.12367187
31
0.00000000
12
-0.44111277
22
-0.11903217
32
-0.03173344
13
-0.22417946
23
-0.11889957
33
-0.03173344
0
3DFACE
5
B146
100
AcDbEntity
8
SHELLS
100
AcDbFace
10
-0.14605460
20
0.04739811
30
0.00000000
11
-0.13784444
21
0.09257381
31
0.00000000
12
-0.12730402
22
0.09803652
32
-0.03173344
13
-0.13789856
23
0.03974093
33
-0.03173344
0
3DFACE
5
B147
100
AcDbEntity
8
SHELLS
100
AcDbFace
10
-0.13784444
20
0.09257381
30
0.00000000
11
-0.12792627
21
0.04762050
31
0.00000000
12
-0.11442152
22
0.03964765
32
-0.03173344
13
-0.12730402
23
0.09803652
33
-0.03173344
0
3DFACE
5
B148
100
AcDbEntity
8
SHELLS
100
AcDbFace
10
-0.12792627
20
0.04762050
30
0.00000000
11
-0.12525483
21
-0.11809432
31
0.00000000
12
-0.11201885
22
-0.10939186
32
-0.03173344
13
-0.11442152
23
0.03964765
33
-0.03173344
0
3DFACE
5
B149
100
AcDbEntity
8
SHELLS
100
AcDbFace
10
-0.12525483
20
-0.11809432
30
0.00000000
11
-0.13358363
21
-0.16135981
31
0.00000000
12
-0.12287741
22
-0.16579868
32
-0.03173344
13
-0.11201885
23
-0.10939186
33
-0.03173344
0
3DFACE
5
B150
100
AcDbEntity
8
SHELLS
100
AcDbFace
10
-0.13358363
20
-0.16135981
30
0.00000000
11
-0.14318038
21
-0.11844835
31
0.00000000
12
-0.13529897
22
-0.11025619
32
-0.03173344
13
-0.12287741
23
-0.16579868
33
-0.03173344
0
3DFACE
5
B151
100
AcDbEntity
8
SHELLS
100
AcDbFace
10
-0.14318038
20
-0.11844835
30
0.00000000
11
-0.14605460
21
0.04739811
31
0.00000000
12
-0.13789856
22
0.03974093
32
-0.03173344
13
-0.13529897
23
-0.11025619
33
-0.03173344
0
3DFACE
5
B152
100
AcDbEntity
8
SHELLS
100
AcDbFace
10
0.11342249
20
-0.15893135
30
0.00000000
11
0.17221759
21
-0.16827140
31
0.00000000
12
0.18038965
22
-0.17644400
32
-0.03173344
13
0.10333287
23
-0.16420294
33
-0.03173344
0
3DFACE
5
B153
100
AcDbEntity
8
SHELLS
100
AcDbFace
10
0.17221759
20
-0.16827140
30
0.00000000
11
0.11357509
21
-0.18297748
31
0.00000000
12
0.10316950
22
-0.19580889
32
-0.03173344
13
0.18038965
23
-0.17644400
33
-0.03173344
0
3DFACE
5
B154
100
AcDbEntity
8
SHELLS
100
AcDbFace
10
0.11357509
20
-0.18297748
30
0.00000000
11
-0.13847223
21
-0.19389881
31
0.00000000
12
-0.12681891
22
-0.20577414
32
-0.03173344
13
0.10316950
23
-0.19580889
33
-0.03173344
0
3DFACE
5
B155
100
AcDbEntity
8
SHELLS
100
AcDbFace
10
-0.13847223
20
-0.19389881
30
0.00000000
11
-0.20353170
21
-0.18390058
31
0.00000000
12
-0.21157835
22
-0.19274845
32
-0.03173344
13
-0.12681891
23
-0.20577414
33
-0.03173344
0
3DFACE
5
B156
100
AcDbEntity
8
SHELLS
100
AcDbFace
10
-0.20353170
20
-0.18390058
30
0.00000000
11
-0.14057802
21
-0.16909949
31
0.00000000
12
-0.12987180
22
-0.17353836
32
-0.03173344
13
-0.21157835
23
-0.19274845
33
-0.03173344
0
3DFACE
5
B157
100
AcDbEntity
8
SHELLS
100
AcDbFace
10
-0.14057802
20
-0.16909949
30
0.00000000
11
0.11342249
21
-0.15893135
31
0.00000000
12
0.10333287
22
-0.16420294
32
-0.03173344
13
-0.12987180
23
-0.17353836
33
-0.03173344
0
3DFACE
5
B158
100
AcDbEntity
8
SHELLS
100
AcDbFace
10
-0.21061496
20
-0.32033049
30
0.00000000
11
-0.22129805
21
-0.39014091
31
0.00000000
12
-0.23209415
22
-0.39782452
32
-0.03173344
13
-0.21877812
23
-0.31080865
33
-0.03173344
0
3DFACE
5
B159
100
AcDbEntity
8
SHELLS
100
AcDbFace
10
-0.22129805
20
-0.39014091
30
0.00000000
11
-0.23207749
21
-0.31908839
31
0.00000000
12
-0.24556131
22
-0.30905595
32
-0.03173344
13
-0.23209415
23
-0.39782452
33
-0.03173344
0
3DFACE
5
B160
100
AcDbEntity
8
SHELLS
100
AcDbFace
10
-0.23207749
20
-0.31908839
30
0.00000000
11
-0.23042904
21
-0.17713517
31
0.00000000
12
-0.24413488
22
-0.18646383
32
-0.03173344
13
-0.24556131
23
-0.30905595
33
-0.03173344
0
3DFACE
5
B161
100
AcDbEntity
8
SHELLS
100
AcDbFace
10
-0.23042904
20
-0.17713517
30
0.00000000
11
-0.22074127
21
-0.13114472
31
0.00000000
12
-0.23150759
22
-0.12651868
32
-0.03173344
13
-0.24413488
23
-0.18646383
33
-0.03173344
0
3DFACE
5
B162
100
AcDbEntity
8
SHELLS
100
AcDbFace
10
-0.22074127
20
-0.13114472
30
0.00000000
11
-0.21150539
21
-0.17690147
31
0.00000000
12
-0.21955203
22
-0.18574934
32
-0.03173344
13
-0.23150759
23
-0.12651868
33
-0.03173344
0
3DFACE
5
B163
100
AcDbEntity
8
SHELLS
100
AcDbFace
10
-0.21150539
20
-0.17690147
30
0.00000000
11
-0.21061496
21
-0.32033049
31
0.00000000
12
-0.21877812
22
-0.31080865
32
-0.03173344
13
-0.21955203
23
-0.18574934
33
-0.03173344
0
3DFACE
5
B164
100
AcDbEntity
8
SHELLS
100
AcDbFace
10
0.40989360
20
0.11663758
30
0.00000000
11
0.46762269
21
0.10838786
31
0.00000000
12
0.47455711
22
0.10247900
32
-0.03173344
13
0.40206097
23
0.11283898
33
-0.03173344
0
3DFACE
5
B165
100
AcDbEntity
8
SHELLS
100
AcDbFace
10
0.46762269
20
0.10838786
30
0.00000000
11
0.41321077
21
0.08727768
31
0.00000000
12
0.40582685
22
0.07581373
32
-0.03173344
13
0.47455711
23
0.10247900
33
-0.03173344
0
3DFACE
5
B166
100
AcDbEntity
8
SHELLS
100
AcDbFace
10
0.41321077
20
0.08727768
30
0.00000000
11
0.16148696
21
0.06105654
31
0.00000000
12
0.17301022
22
0.05156139
32
-0.03173344
13
0.40582685
23
0.07581373
33
-0.03173344
0
3DFACE
5
B167
100
AcDbEntity
8
SHELLS
100
AcDbFace
10
0.16148696
20
0.06105654
30
0.00000000
11
0.10129898
21
0.06743097
31
0.00000000
12
0.09400913
22
0.05992829
32
-0.03173344
13
0.17301022
23
0.05156139
33
-0.03173344
0
3DFACE
5
B168
100
AcDbEntity
8
SHELLS
100
AcDbFace
10
0.10129898
20
0.06743097
30
0.00000000
11
0.15828911
21
0.08656848
31
0.00000000
12
0.16842149
22
0.08491625
32
-0.03173344
13
0.09400913
23
0.05992829
33
-0.03173344
0
3DFACE
5
B169
100
AcDbEntity
8
SHELLS
100
AcDbFace
10
0.15828911
20
0.08656848
30
0.00000000
11
0.40989360
21
0.11663758
31
0.00000000
12
0.40206097
22
0.11283898
32
-0.03173344
13
0.16842149
23
0.08491625
33
-0.03173344
0
3DFACE
5
B170
100
AcDbEntity
8
SHELLS
100
AcDbFace
10
0.11048283
20
-0.11188976
30
0.00000000
11
0.10587542
21
-0.15202175
31
0.00000000
12
0.09578580
22
-0.15729335
32
-0.03173344
13
0.10180653
23
-0.10485086
33
-0.03173344
0
3DFACE
5
B171
100
AcDbEntity
8
SHELLS
100
AcDbFace
10
0.10587542
20
-0.15202175
30
0.00000000
11
0.09360417
21
-0.11364105
31
0.00000000
12
0.07961285
22
-0.10670937
32
-0.03173344
13
0.09578580
23
-0.15729335
33
-0.03173344
0
3DFACE
5
B172
100
AcDbEntity
8
SHELLS
100
AcDbFace
10
0.09360417
20
-0.11364105
30
0.00000000
11
0.07559525
21
0.07239037
31
0.00000000
12
0.06308214
22
0.06403857
32
-0.03173344
13
0.07961285
23
-0.10670937
33
-0.03173344
0
3DFACE
5
B173
100
AcDbEntity
8
SHELLS
100
AcDbFace
10
0.07559525
20
0.07239037
30
0.00000000
11
0.08059166
21
0.11092916
31
0.00000000
12
0.06964045
22
0.11462481
32
-0.03173344
13
0.06308214
23
0.06403857
33
-0.03173344
0
3DFACE
5
B174
100
AcDbEntity
8
SHELLS
100
AcDbFace
10
0.08059166
20
0.11092916
30
0.00000000
11
0.09277646
21
0.07366172
31
0.00000000
12
0.08548661
22
0.06615904
32
-0.03173344
13
0.06964045
23
0.11462481
33
-0.03173344
0
3DFACE
5
B175
100
AcDbEntity
8
SHELLS
100
AcDbFace
10
0.09277646
20
0.07366172
30
0.00000000
11
0.11048283
21
-0.11188976
31
0.00000000
12
0.10180653
22
-0.10485086
32
-0.03173344
13
0.08548661
23
0.06615904
33
-0.03173344
0
3DFACE
5
B176
100
AcDbEntity
8
SHELLS
100
AcDbFace
10
0.17952041
20
-0.16146248
30
0.00000000
11
0.18832723
21
-0.12383969
31
0.00000000
12
0.19919435
22
-0.12049895
32
-0.03173344
13
0.18769246
23
-0.16963509
33
-0.03173344
0
3DFACE
5
B177
100
AcDbEntity
8
SHELLS
100
AcDbFace
10
0.18832723
20
-0.12383969
30
0.00000000
11
0.19582943
21
-0.16155900
31
0.00000000
12
0.20908506
22
-0.17022715
32
-0.03173344
13
0.19919435
23
-0.12049895
33
-0.03173344
0
3DFACE
5
B178
100
AcDbEntity
8
SHELLS
100
AcDbFace
10
0.19582943
20
-0.16155900
30
0.00000000
11
0.19385234
21
-0.35807136
31
0.00000000
12
0.20727509
22
-0.34997239
32
-0.03173344
13
0.20908506
23
-0.17022715
33
-0.03173344
0
3DFACE
5
B179
100
AcDbEntity
8
SHELLS
100
AcDbFace
10
0.19385234
20
-0.35807136
30
0.00000000
11
0.18300674
21
-0.41124470
31
0.00000000
12
0.19371607
22
-0.41644894
32
-0.03173344
13
0.20727509
23
-0.34997239
33
-0.03173344
0
3DFACE
5
B180
100
AcDbEntity
8
SHELLS
100
AcDbFace
10
0.18300674
20
-0.41124470
30
0.00000000
11
0.17435647
21
-0.35812101
31
0.00000000
12
0.18294677
22
-0.35031167
32
-0.03173344
13
0.19371607
23
-0.41644894
33
-0.03173344
0
3DFACE
5
B181
100
AcDbEntity
8
SHELLS
100
AcDbFace
10
0.17435647
20
-0.35812101
30
0.00000000
11
0.17952041
21
-0.16146248
31
0.00000000
12
0.18769246
22
-0.16963509
32
-0.03173344
13
0.18294677
23
-0.35031167
33
-0.03173344
0
3DFACE
5
B182
100
AcDbEntity
8
SHELLS
100
AcDbFace
10
0.52445680
20
-0.79959833
30
0.00000000
11
0.61085400
21
-0.88153041
31
0.00000000
12
0.61425870
22
-0.89015418
32
-0.03173344
13
0.51702896
23
-0.79794941
33
-0.03173344
0
3DFACE
5
B183
100
AcDbEntity
8
SHELLS
100
AcDbFace
10
0.61085400
20
-0.88153041
30
0.00000000
11
0.50098013
21
-0.83413562
31
0.00000000
12
0.49048939
22
-0.83676552
32
-0.03173344
13
0.61425870
23
-0.89015418
33
-0.03173344
0
3DFACE
5
B184
100
AcDbEntity
8
SHELLS
100
AcDbFace
10
0.50098013
20
-0.83413562
30
0.00000000
11
0.39003863
21
-0.75777515
31
0.00000000
12
0.39462855
22
-0.77078289
32
-0.03173344
13
0.49048939
23
-0.83676552
33
-0.03173344
0
3DFACE
5
B185
100
AcDbEntity
8
SHELLS
100
AcDbFace
10
0.39003863
20
-0.75777515
30
0.00000000
11
0.30104367
21
-0.67660528
31
0.00000000
12
0.29127514
22
-0.67651707
32
-0.03173344
13
0.39462855
23
-0.77078289
33
-0.03173344
0
3DFACE
5
B186
100
AcDbEntity
8
SHELLS
100
AcDbFace
10
0.30104367
20
-0.67660528
30
0.00000000
11
0.40949210
21
-0.72649308
31
0.00000000
12
0.41707082
22
-0.73438485
32
-0.03173344
13
0.29127514
23
-0.67651707
33
-0.03173344
0
3DFACE
5
B187
100
AcDbEntity
8
SHELLS
100
AcDbFace
10
0.40949210
20
-0.72649308
30
0.00000000
11
0.52445680
21
-0.79959833
31
0.00000000
12
0.51702896
22
-0.79794941
32
-0.03173344
13
0.41707082
23
-0.73438485
33
-0.03173344
0
3DFACE
5
B188
100
AcDbEntity
8
SHELLS
100
AcDbFace
10
0.46763849
20
-0.47041867
30
0.00000000
11
0.48616217
21
-0.43261117
31
0.00000000
12
0.49548145
22
-0.43275319
32
-0.03173344
13
0.47313487
23
-0.47836336
33
-0.03173344
0
3DFACE
5
B189
100
AcDbEntity
8
SHELLS
100
AcDbFace
10
0.48616217
20
-0.43261117
30
0.00000000
11
0.48680177
21
-0.47400853
31
0.00000000
12
0.49625898
22
-0.48307763
32
-0.03173344
13
0.49548145
23
-0.43275319
33
-0.03173344
0
3DFACE
5
B190
100
AcDbEntity
8
SHELLS
100
AcDbFace
10
0.48680177
20
-0.47400853
30
0.00000000
11
0.45062888
21
-0.64476486
31
0.00000000
12
0.46295194
22
-0.64030499
32
-0.03173344
13
0.49625898
23
-0.48307763
33
-0.03173344
0
3DFACE
5
B191
100
AcDbEntity
8
SHELLS
100
AcDbFace
10
0.45062888
20
-0.64476486
30
0.00000000
11
0.42112354
21
-0.72158038
31
0.00000000
12
0.42870225
22
-0.72947215
32
-0.03173344
13
0.46295194
23
-0.64030499
33
-0.03173344
0
3DFACE
5
B192
100
AcDbEntity
8
SHELLS
100
AcDbFace
10
0.42112354
20
-0.72158038
30
0.00000000
11
0.42743080
21
-0.64006522
31
0.00000000
12
0.43601280
22
-0.63499043
32
-0.03173344
13
0.42870225
23
-0.72947215
33
-0.03173344
0
3DFACE
5
B193
100
AcDbEntity
8
SHELLS
100
AcDbFace
10
0.42743080
20
-0.64006522
30
0.00000000
11
0.46763849
21
-0.47041867
31
0.00000000
12
0.47313487
22
-0.47836336
32
-0.03173344
13
0.43601280
23
-0.63499043
33
-0.03173344
0
3DFACE
5
B194
100
AcDbEntity
8
SHELLS
100
AcDbFace
10
0.06120897
20
-0.52089764
30
0.00000000
11
0.02746325
21
-0.61075577
31
0.00000000
12
0.01525871
22
-0.61812139
32
-0.03173344
13
0.05545026
23
-0.51109930
33
-0.03173344
0
3DFACE
5
B195
100
AcDbEntity
8
SHELLS
100
AcDbFace
10
0.02746325
20
-0.61075577
30
0.00000000
11
0.03974737
21
-0.51441082
31
0.00000000
12
0.02990338
22
-0.50326253
32
-0.03173344
13
0.01525871
23
-0.61812139
33
-0.03173344
0
3DFACE
5
B196
100
AcDbEntity
8
SHELLS
100
AcDbFace
10
0.03974737
20
-0.51441082
30
0.00000000
11
0.06809621
21
-0.40733019
31
0.00000000
12
0.05400076
22
-0.41223126
32
-0.03173344
13
0.02990338
23
-0.50326253
33
-0.03173344
0
3DFACE
5
B197
100
AcDbEntity
8
SHELLS
100
AcDbFace
10
0.06809621
20
-0.40733019
30
0.00000000
11
0.08922600
21
-0.36249810
31
0.00000000
12
0.08044529
22
-0.35612264
32
-0.03173344
13
0.05400076
23
-0.41223126
33
-0.03173344
0
3DFACE
5
B198
100
AcDbEntity
8
SHELLS
100
AcDbFace
10
0.08922600
20
-0.36249810
30
0.00000000
11
0.08671306
21
-0.41199899
31
0.00000000
12
0.07731848
22
-0.41771574
32
-0.03173344
13
0.08044529
23
-0.35612264
33
-0.03173344
0
3DFACE
5
B199
100
AcDbEntity
8
SHELLS
100
AcDbFace
10
0.08671306
20
-0.41199899
30
0.00000000
11
0.06120897
21
-0.52089764
31
0.00000000
12
0.05545026
22
-0.51109930
32
-0.03173344
13
0.07731848
23
-0.41771574
33
-0.03173344
0
3DFACE
5
B200
100
AcDbEntity
8
SHELLS
100
AcDbFace
10
0.39077326
20
-0.44935328
30
0.00000000
11
0.45914256
21
-0.47561735
31
0.00000000
12
0.46463894
22
-0.48356204
32
-0.03173344
13
0.38193690
23
-0.45179205
33
-0.03173344
0
3DFACE
5
B201
100
AcDbEntity
8
SHELLS
100
AcDbFace
10
0.45914256
20
-0.47561735
30
0.00000000
11
0.38552707
21
-0.48107113
31
0.00000000
12
0.37529974
22
-0.49018070
32
-0.03173344
13
0.46463894
23
-0.48356204
33
-0.03173344
0
3DFACE
5
B202
100
AcDbEntity
8
SHELLS
100
AcDbFace
10
0.38552707
20
-0.48107113
30
0.00000000
11
0.17140318
21
-0.44721180
31
0.00000000
12
0.18160413
22
-0.45955071
32
-0.03173344
13
0.37529974
23
-0.49018070
33
-0.03173344
0
3DFACE
5
B203
100
AcDbEntity
8
SHELLS
100
AcDbFace
10
0.17140318
20
-0.44721180
30
0.00000000
11
0.09325932
21
-0.42080372
31
0.00000000
12
0.08386474
22
-0.42652047
32
-0.03173344
13
0.18160413
23
-0.45955071
33
-0.03173344
0
3DFACE
5
B204
100
AcDbEntity
8
SHELLS
100
AcDbFace
10
0.09325932
20
-0.42080372
30
0.00000000
11
0.17443471
21
-0.41873430
31
0.00000000
12
0.18514404
22
-0.42393854
32
-0.03173344
13
0.08386474
23
-0.42652047
33
-0.03173344
0
3DFACE
5
B205
100
AcDbEntity
8
SHELLS
100
AcDbFace
10
0.17443471
20
-0.41873430
30
0.00000000
11
0.39077326
21
-0.44935328
31
0.00000000
12
0.38193690
22
-0.45179205
32
-0.03173344
13
0.18514404
23
-0.42393854
33
-0.03173344
0
3DFACE
5
B206
100
AcDbEntity
8
SHELLS
100
AcDbFace
10
0.56355255
20
-0.74983353
30
0.00000000
11
0.52264800
21
-0.78876681
31
0.00000000
12
0.51522016
22
-0.78711789
32
-0.03173344
13
0.56120003
23
-0.74335387
33
-0.03173344
0
3DFACE
5
B207
100
AcDbEntity
8
SHELLS
100
AcDbFace
10
0.52264800
20
-0.78876681
30
0.00000000
11
0.54484375
21
-0.73777415
31
0.00000000
12
0.54024348
22
-0.72962915
32
-0.03173344
13
0.51522016
23
-0.78711789
33
-0.03173344
0
3DFACE
5
B208
100
AcDbEntity
8
SHELLS
100
AcDbFace
10
0.54484375
20
-0.73777415
30
0.00000000
11
0.70423764
21
-0.51316728
31
0.00000000
12
0.69514205
22
-0.51135945
32
-0.03173344
13
0.54024348
23
-0.72962915
33
-0.03173344
0
3DFACE
5
B209
100
AcDbEntity
8
SHELLS
100
AcDbFace
10
0.70423764
20
-0.51316728
30
0.00000000
11
0.72540712
21
-0.49869139
31
0.00000000
12
0.71972935
22
-0.49454641
32
-0.03173344
13
0.69514205
23
-0.51135945
33
-0.03173344
0
3DFACE
5
B210
100
AcDbEntity
8
SHELLS
100
AcDbFace
10
0.72540712
20
-0.49869139
30
0.00000000
11
0.71840228
21
-0.52597127
31
0.00000000
12
0.71171373
22
-0.52576272
32
-0.03173344
13
0.71972935
23
-0.49454641
33
-0.03173344
0
3DFACE
5
B211
100
AcDbEntity
8
SHELLS
100
AcDbFace
10
0.71840228
20
-0.52597127
30
0.00000000
11
0.56355255
21
-0.74983353
31
0.00000000
12
0.56120003
22
-0.74335387
32
-0.03173344
13
0.71171373
23
-0.52576272
33
-0.03173344
0
3DFACE
5
B212
100
AcDbEntity
8
SHELLS
100
AcDbFace
10
1.17129092
20
0.49151581
30
0.00000000
11
1.14496485
21
0.54324115
31
0.00000000
12
1.14909166
22
0.54909282
32
-0.03173344
13
1.17849340
23
0.49132440
33
-0.03173344
0
3DFACE
5
B213
100
AcDbEntity
8
SHELLS
100
AcDbFace
10
1.14496485
20
0.54324115
30
0.00000000
11
1.19751362
21
0.52194120
31
0.00000000
12
1.20810381
22
0.52517301
32
-0.03173344
13
1.14909166
23
0.54909282
33
-0.03173344
0
3DFACE
5
B214
100
AcDbEntity
8
SHELLS
100
AcDbFace
10
1.19751362
20
0.52194120
30
0.00000000
11
1.31956729
21
0.41200221
31
0.00000000
12
1.32159402
22
0.42295044
32
-0.03173344
13
1.20810381
23
0.52517301
33
-0.03173344
0
3DFACE
5
B215
100
AcDbEntity
8
SHELLS
100
AcDbFace
10
1.31956729
20
0.41200221
30
0.00000000
11
1.36928133
21
0.33673943
31
0.00000000
12
1.37663000
22
0.33963071
32
-0.03173344
13
1.32159402
23
0.42295044
33
-0.03173344
0
3DFACE
5
B216
100
AcDbEntity
8
SHELLS
100
AcDbFace
10
1.36928133
20
0.33673943
30
0.00000000
11
1.29027221
21
0.38009605
31
0.00000000
12
1.28932351
22
0.38754055
32
-0.03173344
13
1.37663000
23
0.33963071
33
-0.03173344
0
3DFACE
5
B217
100
AcDbEntity
8
SHELLS
100
AcDbFace
10
1.29027221
20
0.38009605
30
0.00000000
11
1.17129092
21
0.49151581
31
0.00000000
12
1.17849340
22
0.49132440
32
-0.03173344
13
1.28932351
23
0.38754055
33
-0.03173344
0
3DFACE
5
B218
100
AcDbEntity
8
SHELLS
100
AcDbFace
10
1.02435085
20
0.43534514
30
0.00000000
11
1.16987842
21
0.48004511
31
0.00000000
12
1.17708090
22
0.47985370
32
-0.03173344
13
1.01918620
23
0.43135506
33
-0.03173344
0
3DFACE
5
B219
100
AcDbEntity
8
SHELLS
100
AcDbFace
10
1.16987842
20
0.48004511
30
0.00000000
11
1.10959017
21
0.38922798
31
0.00000000
12
1.10947392
22
0.37801178
32
-0.03173344
13
1.17708090
23
0.47985370
33
-0.03173344
0
3DFACE
5
B220
100
AcDbEntity
8
SHELLS
100
AcDbFace
10
1.10959017
20
0.38922798
30
0.00000000
11
0.87496765
21
0.22737379
31
0.00000000
12
0.88606974
22
0.22389577
32
-0.03173344
13
1.10947392
23
0.37801178
33
-0.03173344
0
3DFACE
5
B221
100
AcDbEntity
8
SHELLS
100
AcDbFace
10
0.87496765
20
0.22737379
30
0.00000000
11
0.81636029
21
0.21707020
31
0.00000000
12
0.81655268
22
0.21167417
32
-0.03173344
13
0.88606974
23
0.22389577
33
-0.03173344
0
3DFACE
5
B222
100
AcDbEntity
8
SHELLS
100
AcDbFace
10
0.81636029
20
0.21707020
30
0.00000000
11
0.86193479
21
0.30614847
31
0.00000000
12
0.86701595
22
0.31030786
32
-0.03173344
13
0.81655268
23
0.21167417
33
-0.03173344
0
3DFACE
5
B223
100
AcDbEntity
8
SHELLS
100
AcDbFace
10
0.86193479
20
0.30614847
30
0.00000000
11
1.02435085
21
0.43534514
31
0.00000000
12
1.01918620
22
0.43135506
32
-0.03173344
13
0.86701595
23
0.31030786
33
-0.03173344
0
3DFACE
5
B224
100
AcDbEntity
8
SHELLS
100
AcDbFace
10
0.96327549
20
-0.10124946
30
0.00000000
11
0.93087361
21
-0.10859273
31
0.00000000
12
0.92749905
22
-0.10457026
32
-0.03173344
13
0.96471965
23
-0.09613491
33
-0.03173344
0
3DFACE
5
B225
100
AcDbEntity
8
SHELLS
100
AcDbFace
10
0.93087361
20
-0.10859273
30
0.00000000
11
0.92801840
21
-0.08245076
31
0.00000000
12
0.92408578
22
-0.07331873
32
-0.03173344
13
0.92749905
23
-0.10457026
33
-0.03173344
0
3DFACE
5
B226
100
AcDbEntity
8
SHELLS
100
AcDbFace
10
0.92801840
20
-0.08245076
30
0.00000000
11
1.18840160
21
0.30161680
31
0.00000000
12
1.17775983
22
0.30085310
32
-0.03173344
13
0.92408578
23
-0.07331873
33
-0.03173344
0
3DFACE
5
B227
100
AcDbEntity
8
SHELLS
100
AcDbFace
10
1.18840160
20
0.30161680
30
0.00000000
11
1.27905054
21
0.37837938
31
0.00000000
12
1.27810185
22
0.38582388
32
-0.03173344
13
1.17775983
23
0.30085310
33
-0.03173344
0
3DFACE
5
B228
100
AcDbEntity
8
SHELLS
100
AcDbFace
10
1.27905054
20
0.37837938
30
0.00000000
11
1.23642609
21
0.26800328
31
0.00000000
12
1.23098154
22
0.26380576
32
-0.03173344
13
1.27810185
23
0.38582388
33
-0.03173344
0
3DFACE
5
B229
100
AcDbEntity
8
SHELLS
100
AcDbFace
10
1.23642609
20
0.26800328
30
0.00000000
11
0.96327549
21
-0.10124946
31
0.00000000
12
0.96471965
22
-0.09613491
32
-0.03173344
13
1.23098154
23
0.26380576
33
-0.03173344
0
3DFACE
5
B230
100
AcDbEntity
8
SHELLS
100
AcDbFace
10
0.93104205
20
-0.11475756
30
0.00000000
11
0.91865908
21
-0.14776207
31
0.00000000
12
0.91341477
22
-0.14872307
32
-0.03173344
13
0.92766749
23
-0.11073508
33
-0.03173344
0
3DFACE
5
B231
100
AcDbEntity
8
SHELLS
100
AcDbFace
10
0.91865908
20
-0.14776207
30
0.00000000
11
0.89322753
21
-0.13394221
31
0.00000000
12
0.88311114
22
-0.13225566
32
-0.03173344
13
0.91341477
23
-0.14872307
33
-0.03173344
0
3DFACE
5
B232
100
AcDbEntity
8
SHELLS
100
AcDbFace
10
0.89322753
20
-0.13394221
30
0.00000000
11
0.76607105
21
0.20793571
31
0.00000000
12
0.75959554
22
0.19983351
32
-0.03173344
13
0.88311114
23
-0.13225566
33
-0.03173344
0
3DFACE
5
B233
100
AcDbEntity
8
SHELLS
100
AcDbFace
10
0.76607105
20
0.20793571
30
0.00000000
11
0.77063220
21
0.25123293
31
0.00000000
12
0.76501394
22
0.25126830
32
-0.03173344
13
0.75959554
23
0.19983351
33
-0.03173344
0
3DFACE
5
B234
100
AcDbEntity
8
SHELLS
100
AcDbFace
10
0.77063220
20
0.25123293
30
0.00000000
11
0.80438753
21
0.21968072
31
0.00000000
12
0.80457992
22
0.21428469
32
-0.03173344
13
0.76501394
23
0.25126830
33
-0.03173344
0
3DFACE
5
B235
100
AcDbEntity
8
SHELLS
100
AcDbFace
10
0.80438753
20
0.21968072
30
0.00000000
11
0.93104205
21
-0.11475756
31
0.00000000
12
0.92766749
22
-0.11073508
32
-0.03173344
13
0.80457992
23
0.21428469
33
-0.03173344
0
3DFACE
5
B236
100
AcDbEntity
8
SHELLS
100
AcDbFace
10
0.46974474
20
0.16392457
30
0.00000000
11
0.40609305
21
0.15967901
31
0.00000000
12
0.39795671
22
0.16302665
32
-0.03173344
13
0.47791257
23
0.16835971
33
-0.03173344
0
3DFACE
5
B237
100
AcDbEntity
8
SHELLS
100
AcDbFace
10
0.40609305
20
0.15967901
30
0.00000000
11
0.45904892
21
0.19529266
31
0.00000000
12
0.46487616
22
0.20803104
32
-0.03173344
13
0.39795671
23
0.16302665
33
-0.03173344
0
3DFACE
5
B238
100
AcDbEntity
8
SHELLS
100
AcDbFace
10
0.45904892
20
0.19529266
30
0.00000000
11
0.76204161
21
0.30438183
31
0.00000000
12
0.75360138
22
0.31198326
32
-0.03173344
13
0.46487616
23
0.20803104
33
-0.03173344
0
3DFACE
5
B239
100
AcDbEntity
8
SHELLS
100
AcDbFace
10
0.76204161
20
0.30438183
30
0.00000000
11
0.81357678
21
0.29838292
31
0.00000000
12
0.81470357
22
0.30487071
32
-0.03173344
13
0.75360138
23
0.31198326
33
-0.03173344
0
3DFACE
5
B240
100
AcDbEntity
8
SHELLS
100
AcDbFace
10
0.81357678
20
0.29838292
30
0.00000000
11
0.77478570
21
0.26127482
31
0.00000000
12
0.76916744
22
0.26131019
32
-0.03173344
13
0.81470357
23
0.30487071
33
-0.03173344
0
3DFACE
5
B241
100
AcDbEntity
8
SHELLS
100
AcDbFace
10
0.77478570
20
0.26127482
30
0.00000000
11
0.46974474
21
0.16392457
31
0.00000000
12
0.47791257
22
0.16835971
32
-0.03173344
13
0.76916744
23
0.26131019
33
-0.03173344
0
3DFACE
5
B242
100
AcDbEntity
8
SHELLS
100
AcDbFace
10
0.69236692
20
0.48525921
30
0.00000000
11
0.66648142
21
0.54473407
31
0.00000000
12
0.67000815
22
0.55118486
32
-0.03173344
13
0.70004928
23
0.48216197
33
-0.03173344
0
3DFACE
5
B243
100
AcDbEntity
8
SHELLS
100
AcDbFace
10
0.66648142
20
0.54473407
30
0.00000000
11
0.71206647
21
0.49892235
31
0.00000000
12
0.72306091
22
0.49786830
32
-0.03173344
13
0.67000815
23
0.55118486
33
-0.03173344
0
3DFACE
5
B244
100
AcDbEntity
8
SHELLS
100
AcDbFace
10
0.71206647
20
0.49892235
30
0.00000000
11
0.84172388
21
0.30616377
31
0.00000000
12
0.84607752
22
0.31498424
32
-0.03173344
13
0.72306091
23
0.49786830
33
-0.03173344
0
3DFACE
5
B245
100
AcDbEntity
8
SHELLS
100
AcDbFace
10
0.84172388
20
0.30616377
30
0.00000000
11
0.84548006
21
0.28209869
31
0.00000000
12
0.85056122
22
0.28625808
32
-0.03173344
13
0.84607752
23
0.31498424
33
-0.03173344
0
3DFACE
5
B246
100
AcDbEntity
8
SHELLS
100
AcDbFace
10
0.84548006
20
0.28209869
30
0.00000000
11
0.82180440
21
0.29603935
31
0.00000000
12
0.82293119
22
0.30252714
32
-0.03173344
13
0.85056122
23
0.28625808
33
-0.03173344
0
3DFACE
5
B247
100
AcDbEntity
8
SHELLS
100
AcDbFace
10
0.82180440
20
0.29603935
30
0.00000000
11
0.69236692
21
0.48525921
31
0.00000000
12
0.70004928
22
0.48216197
32
-0.03173344
13
0.82293119
23
0.30252714
33
-0.03173344
0
3DFACE
5
B248
100
AcDbEntity
8
SHELLS
100
AcDbFace
10
0.65467579
20
0.54613703
30
0.00000000
11
0.58423739
21
0.49618446
31
0.00000000
12
0.57641630
22
0.49458774
32
-0.03173344
13
0.65820252
23
0.55258782
33
-0.03173344
0
3DFACE
5
B249
100
AcDbEntity
8
SHELLS
100
AcDbFace
10
0.58423739
20
0.49618446
30
0.00000000
11
0.62937305
21
0.56936284
31
0.00000000
12
0.62895508
22
0.57976881
32
-0.03173344
13
0.57641630
23
0.49458774
33
-0.03173344
0
3DFACE
5
B250
100
AcDbEntity
8
SHELLS
100
AcDbFace
10
0.62937305
20
0.56936284
30
0.00000000
11
0.77987461
21
0.73604829
31
0.00000000
12
0.77017317
22
0.73617323
32
-0.03173344
13
0.62895508
23
0.57976881
33
-0.03173344
0
3DFACE
5
B251
100
AcDbEntity
8
SHELLS
100
AcDbFace
10
0.77987461
20
0.73604829
30
0.00000000
11
0.87115780
21
0.80140899
31
0.00000000
12
0.87215709
22
0.80919588
32
-0.03173344
13
0.77017317
23
0.73617323
33
-0.03173344
0
3DFACE
5
B252
100
AcDbEntity
8
SHELLS
100
AcDbFace
10
0.87115780
20
0.80140899
30
0.00000000
11
0.81142597
21
0.70649389
31
0.00000000
12
0.80549778
22
0.70327286
32
-0.03173344
13
0.87215709
23
0.80919588
33
-0.03173344
0
3DFACE
5
B253
100
AcDbEntity
8
SHELLS
100
AcDbFace
10
0.81142597
20
0.70649389
30
0.00000000
11
0.65467579
21
0.54613703
31
0.00000000
12
0.65820252
22
0.55258782
32
-0.03173344
13
0.80549778
23
0.70327286
33
-0.03173344
0
3DFACE
5
B254
100
AcDbEntity
8
SHELLS
100
AcDbFace
10
0.13634685
20
0.35430929
30
0.00000000
11
0.06381346
21
0.35015970
31
0.00000000
12
0.05586106
22
0.35509935
32
-0.03173344
13
0.14590081
23
0.36025047
33
-0.03173344
0
3DFACE
5
B255
100
AcDbEntity
8
SHELLS
100
AcDbFace
10
0.06381346
20
0.35015970
30
0.00000000
11
0.13208856
21
0.37665658
31
0.00000000
12
0.14083711
22
0.38807771
32
-0.03173344
13
0.05586106
23
0.35509935
33
-0.03173344
0
3DFACE
5
B256
100
AcDbEntity
8
SHELLS
100
AcDbFace
10
0.13208856
20
0.37665658
30
0.00000000
11
0.31614903
21
0.41757309
31
0.00000000
12
0.30503317
22
0.42457786
32
-0.03173344
13
0.14083711
23
0.38807771
33
-0.03173344
0
3DFACE
5
B257
100
AcDbEntity
8
SHELLS
100
AcDbFace
10
0.31614903
20
0.41757309
30
0.00000000
11
0.39943673
21
0.42261634
31
0.00000000
12
0.40601056
22
0.43069225
32
-0.03173344
13
0.30503317
23
0.42457786
33
-0.03173344
0
3DFACE
5
B258
100
AcDbEntity
8
SHELLS
100
AcDbFace
10
0.39943673
20
0.42261634
30
0.00000000
11
0.32198760
21
0.39324144
31
0.00000000
12
0.31228308
22
0.39514331
32
-0.03173344
13
0.40601056
23
0.43069225
33
-0.03173344
0
3DFACE
5
B259
100
AcDbEntity
8
SHELLS
100
AcDbFace
10
0.32198760
20
0.39324144
30
0.00000000
11
0.13634685
21
0.35430929
31
0.00000000
12
0.14590081
22
0.36025047
32
-0.03173344
13
0.31228308
23
0.39514331
33
-0.03173344
0
3DFACE
5
B260
100
AcDbEntity
8
SHELLS
100
AcDbFace
10
0.06906528
20
0.28423127
30
0.00000000
11
0.13357486
21
0.28002948
31
0.00000000
12
0.14193423
22
0.27170581
32
-0.03173344
13
0.06195632
23
0.27691512
33
-0.03173344
0
3DFACE
5
B261
100
AcDbEntity
8
SHELLS
100
AcDbFace
10
0.13357486
20
0.28002948
30
0.00000000
11
0.07097618
21
0.26221977
31
0.00000000
12
0.06406639
22
0.24955193
32
-0.03173344
13
0.14193423
23
0.27170581
33
-0.03173344
0
3DFACE
5
B262
100
AcDbEntity
8
SHELLS
100
AcDbFace
10
0.07097618
20
0.26221977
30
0.00000000
11
-0.13110645
21
0.24086812
31
0.00000000
12
-0.11776858
22
0.23033782
32
-0.03173344
13
0.06406639
23
0.24955193
33
-0.03173344
0
3DFACE
5
B263
100
AcDbEntity
8
SHELLS
100
AcDbFace
10
-0.13110645
20
0.24086812
30
0.00000000
11
-0.22609720
21
0.24244783
31
0.00000000
12
-0.23524139
22
0.23229141
32
-0.03173344
13
-0.11776858
23
0.23033782
33
-0.03173344
0
3DFACE
5
B264
100
AcDbEntity
8
SHELLS
100
AcDbFace
10
-0.22609720
20
0.24244783
30
0.00000000
11
-0.13509704
21
0.26305728
31
0.00000000
12
-0.12283794
22
0.25774822
32
-0.03173344
13
-0.23524139
23
0.23229141
33
-0.03173344
0
3DFACE
5
B265
100
AcDbEntity
8
SHELLS
100
AcDbFace
10
-0.13509704
20
0.26305728
30
0.00000000
11
0.06906528
21
0.28423127
31
0.00000000
12
0.06195632
22
0.27691512
32
-0.03173344
13
-0.12283794
23
0.25774822
33
-0.03173344
0
3DFACE
5
B266
100
AcDbEntity
8
SHELLS
100
AcDbFace
10
-0.22406295
20
0.09990420
30
0.00000000
11
-0.22882071
21
0.06123954
31
0.00000000
12
-0.24057341
22
0.05769236
32
-0.03173344
13
-0.23444321
23
0.10751039
33
-0.03173344
0
3DFACE
5
B267
100
AcDbEntity
8
SHELLS
100
AcDbFace
10
-0.22882071
20
0.06123954
30
0.00000000
11
-0.23961183
21
0.09867237
31
0.00000000
12
-0.25459479
22
0.10633050
32
-0.03173344
13
-0.24057341
23
0.05769236
33
-0.03173344
0
3DFACE
5
B268
100
AcDbEntity
8
SHELLS
100
AcDbFace
10
-0.23961183
20
0.09867237
30
0.00000000
11
-0.25248373
21
0.24637620
31
0.00000000
12
-0.26585075
22
0.23546016
32
-0.03173344
13
-0.25459479
23
0.10633050
33
-0.03173344
0
3DFACE
5
B269
100
AcDbEntity
8
SHELLS
100
AcDbFace
10
-0.25248373
20
0.24637620
30
0.00000000
11
-0.24942517
21
0.32609201
31
0.00000000
12
-0.26207110
22
0.33396994
32
-0.03173344
13
-0.26585075
23
0.23546016
33
-0.03173344
0
3DFACE
5
B270
100
AcDbEntity
8
SHELLS
100
AcDbFace
10
-0.24942517
20
0.32609201
30
0.00000000
11
-0.23446002
21
0.24901961
31
0.00000000
12
-0.24360421
22
0.23886319
32
-0.03173344
13
-0.26207110
23
0.33396994
33
-0.03173344
0
3DFACE
5
B271
100
AcDbEntity
8
SHELLS
100
AcDbFace
10
-0.23446002
20
0.24901961
30
0.00000000
11
-0.22406295
21
0.09990420
31
0.00000000
12
-0.23444321
22
0.10751039
32
-0.03173344
13
-0.24360421
23
0.23886319
33
-0.03173344
0
3DFACE
5
B272
100
AcDbEntity
8
SHELLS
100
AcDbFace
10
0.99015243
20
-0.11532576
30
0.00000000
11
0.96718793
21
-0.09784569
31
0.00000000
12
0.96863208
22
-0.09273114
32
-0.03173344
13
0.99494747
23
-0.11276183
33
-0.03173344
0
3DFACE
5
B273
100
AcDbEntity
8
SHELLS
100
AcDbFace
10
0.96718793
20
-0.09784569
30
0.00000000
11
0.98259031
21
-0.08247416
31
0.00000000
12
0.98712436
22
-0.07427591
32
-0.03173344
13
0.96863208
23
-0.09273114
33
-0.03173344
0
3DFACE
5
B274
100
AcDbEntity
8
SHELLS
100
AcDbFace
10
0.98259031
20
-0.08247416
30
0.00000000
11
1.37249130
21
-0.04373172
31
0.00000000
12
1.36687053
22
-0.03654389
32
-0.03173344
13
0.98712436
23
-0.07427591
33
-0.03173344
0
3DFACE
5
B275
100
AcDbEntity
8
SHELLS
100
AcDbFace
10
1.37249130
20
-0.04373172
30
0.00000000
11
1.46751460
21
-0.06467994
31
0.00000000
12
1.47072984
22
-0.05944003
32
-0.03173344
13
1.36687053
23
-0.03654389
33
-0.03173344
0
3DFACE
5
B276
100
AcDbEntity
8
SHELLS
100
AcDbFace
10
1.46751460
20
-0.06467994
30
0.00000000
11
1.37582664
21
-0.09874882
31
0.00000000
12
1.37068749
22
-0.09661319
32
-0.03173344
13
1.47072984
23
-0.05944003
33
-0.03173344
0
3DFACE
5
B277
100
AcDbEntity
8
SHELLS
100
AcDbFace
10
1.37582664
20
-0.09874882
30
0.00000000
11
0.99015243
21
-0.11532576
31
0.00000000
12
0.99494747
22
-0.11276183
32
-0.03173344
13
1.37068749
23
-0.09661319
33
-0.03173344
0
3DFACE
5
B278
100
AcDbEntity
8
SHELLS
100
AcDbFace
10
1.52532589
20
0.09669067
30
0.00000000
11
1.59922084
21
0.22644981
31
0.00000000
12
1.60506336
22
0.23016755
32
-0.03173344
13
1.52493670
23
0.08946557
33
-0.03173344
0
3DFACE
5
B279
100
AcDbEntity
8
SHELLS
100
AcDbFace
10
1.59922084
20
0.22644981
30
0.00000000
11
1.59029285
21
0.07666416
31
0.00000000
12
1.59537459
22
0.06761822
32
-0.03173344
13
1.60506336
23
0.23016755
33
-0.03173344
0
3DFACE
5
B280
100
AcDbEntity
8
SHELLS
100
AcDbFace
10
1.59029285
20
0.07666416
30
0.00000000
11
1.53808462
21
-0.09306441
31
0.00000000
12
1.54708018
22
-0.08938250
32
-0.03173344
13
1.59537459
23
0.06761822
33
-0.03173344
0
3DFACE
5
B281
100
AcDbEntity
8
SHELLS
100
AcDbFace
10
1.53808462
20
-0.09306441
30
0.00000000
11
1.47590270
21
-0.18750337
31
0.00000000
12
1.47911496
22
-0.19260486
32
-0.03173344
13
1.54708018
23
-0.08938250
33
-0.03173344
0
3DFACE
5
B282
100
AcDbEntity
8
SHELLS
100
AcDbFace
10
1.47590270
20
-0.18750337
30
0.00000000
11
1.47593532
21
-0.07406018
31
0.00000000
12
1.47915056
22
-0.06882027
32
-0.03173344
13
1.47911496
23
-0.19260486
33
-0.03173344
0
3DFACE
5
B283
100
AcDbEntity
8
SHELLS
100
AcDbFace
10
1.47593532
20
-0.07406018
30
0.00000000
11
1.52532589
21
0.09669067
31
0.00000000
12
1.52493670
22
0.08946557
32
-0.03173344
13
1.47915056
23
-0.06882027
33
-0.03173344
0
3DFACE
5
B284
100
AcDbEntity
8
SHELLS
100
AcDbFace
10
1.02560705
20
-0.68080706
30
0.00000000
11
0.95597457
21
-0.71077420
31
0.00000000
12
0.95058172
22
-0.70690766
32
-0.03173344
13
1.02744965
23
-0.67382666
33
-0.03173344
0
3DFACE
5
B285
100
AcDbEntity
8
SHELLS
100
AcDbFace
10
0.95597457
20
-0.71077420
30
0.00000000
11
0.98840068
21
-0.64295480
31
0.00000000
12
0.98650900
22
-0.63176553
32
-0.03173344
13
0.95058172
23
-0.70690766
33
-0.03173344
0
3DFACE
5
B286
100
AcDbEntity
8
SHELLS
100
AcDbFace
10
0.98840068
20
-0.64295480
30
0.00000000
11
1.12091149
21
-0.51455438
31
0.00000000
12
1.11018190
22
-0.51192794
32
-0.03173344
13
0.98650900
23
-0.63176553
33
-0.03173344
0
3DFACE
5
B287
100
AcDbEntity
8
SHELLS
100
AcDbFace
10
1.12091149
20
-0.51455438
30
0.00000000
11
1.20152352
21
-0.47538427
31
0.00000000
12
1.19898729
22
-0.46877659
32
-0.03173344
13
1.11018190
23
-0.51192794
33
-0.03173344
0
3DFACE
5
B288
100
AcDbEntity
8
SHELLS
100
AcDbFace
10
1.20152352
20
-0.47538427
30
0.00000000
11
1.15871035
21
-0.55432315
31
0.00000000
12
1.15193534
22
-0.55553093
32
-0.03173344
13
1.19898729
23
-0.46877659
33
-0.03173344
0
3DFACE
5
B289
100
AcDbEntity
8
SHELLS
100
AcDbFace
10
1.15871035
20
-0.55432315
30
0.00000000
11
1.02560705
21
-0.68080706
31
0.00000000
12
1.02744965
22
-0.67382666
32
-0.03173344
13
1.15193534
23
-0.55553093
33
-0.03173344
0
3DFACE
5
B290
100
AcDbEntity
8
SHELLS
100
AcDbFace
10
1.01539716
20
-0.81853309
30
0.00000000
11
1.07617252
21
-0.78887811
31
0.00000000
12
1.08229533
22
-0.79203209
32
-0.03173344
13
1.01520637
23
-0.82476776
33
-0.03173344
0
3DFACE
5
B291
100
AcDbEntity
8
SHELLS
100
AcDbFace
10
1.07617252
20
-0.78887811
30
0.00000000
11
1.04612984
21
-0.84803910
31
0.00000000
12
1.04900762
22
-0.85758330
32
-0.03173344
13
1.08229533
23
-0.79203209
33
-0.03173344
0
3DFACE
5
B292
100
AcDbEntity
8
SHELLS
100
AcDbFace
10
1.04612984
20
-0.84803910
30
0.00000000
11
0.86766380
21
-1.02505133
31
0.00000000
12
0.87644420
22
-1.02874554
32
-0.03173344
13
1.04900762
23
-0.85758330
33
-0.03173344
0
3DFACE
5
B293
100
AcDbEntity
8
SHELLS
100
AcDbFace
10
0.86766380
20
-1.02505133
30
0.00000000
11
0.79530880
21
-1.06439080
31
0.00000000
12
0.79689754
22
-1.07199512
32
-0.03173344
13
0.87644420
23
-1.02874554
33
-0.03173344
0
3DFACE
5
B294
100
AcDbEntity
8
SHELLS
100
AcDbFace
10
0.79530880
20
-1.06439080
30
0.00000000
11
0.83677644
21
-0.99214437
31
0.00000000
12
0.84238326
22
-0.99274823
32
-0.03173344
13
0.79689754
23
-1.07199512
33
-0.03173344
0
3DFACE
5
B295
100
AcDbEntity
8
SHELLS
100
AcDbFace
10
0.83677644
20
-0.99214437
30
0.00000000
11
1.01539716
21
-0.81853309
31
0.00000000
12
1.01520637
22
-0.82476776
32
-0.03173344
13
0.84238326
23
-0.99274823
33
-0.03173344
0
3DFACE
5
B296
100
AcDbEntity
8
SHELLS
100
AcDbFace
10
0.95550554
20
-0.72175920
30
0.00000000
11
1.00501536
21
-0.81789592
31
0.00000000
12
1.00482458
22
-0.82413059
32
-0.03173344
13
0.95011269
23
-0.71789265
33
-0.03173344
0
3DFACE
5
B297
100
AcDbEntity
8
SHELLS
100
AcDbFace
10
1.00501536
20
-0.81789592
30
0.00000000
11
0.90817412
21
-0.76948929
31
0.00000000
12
0.89760990
22
-0.77053874
32
-0.03173344
13
1.00482458
23
-0.82413059
33
-0.03173344
0
3DFACE
5
B298
100
AcDbEntity
8
SHELLS
100
AcDbFace
10
0.90817412
20
-0.76948929
30
0.00000000
11
0.75201725
21
-0.60384423
31
0.00000000
12
0.75035210
22
-0.61433395
32
-0.03173344
13
0.89760990
23
-0.77053874
33
-0.03173344
0
3DFACE
5
B299
100
AcDbEntity
8
SHELLS
100
AcDbFace
10
0.75201725
20
-0.60384423
30
0.00000000
11
0.71978203
21
-0.53519323
31
0.00000000
12
0.71309348
22
-0.53498468
32
-0.03173344
13
0.75035210
23
-0.61433395
33
-0.03173344
0
3DFACE
5
B300
100
AcDbEntity
8
SHELLS
100
AcDbFace
10
0.71978203
20
-0.53519323
30
0.00000000
11
0.78970797
21
-0.56773965
31
0.00000000
12
0.79350703
22
-0.57241247
32
-0.03173344
13
0.71309348
23
-0.53498468
33
-0.03173344
0
3DFACE
5
B301
100
AcDbEntity
8
SHELLS
100
AcDbFace
10
0.78970797
20
-0.56773965
30
0.00000000
11
0.95550554
21
-0.72175920
31
0.00000000
12
0.95011269
22
-0.71789265
32
-0.03173344
13
0.79350703
23
-0.57241247
33
-0.03173344
0
3DFACE
5
B302
100
AcDbEntity
8
SHELLS
100
AcDbFace
10
0.64784457
20
-0.84615960
30
0.00000000
11
0.57491206
21
-0.74904078
31
0.00000000
12
0.57255955
22
-0.74256112
32
-0.03173344
13
0.65463664
23
-0.85185710
33
-0.03173344
0
3DFACE
5
B303
100
AcDbEntity
8
SHELLS
100
AcDbFace
10
0.57491206
20
-0.74904078
30
0.00000000
11
0.67986221
21
-0.81002941
31
0.00000000
12
0.69083533
22
-0.81129354
32
-0.03173344
13
0.57255955
23
-0.74256112
33
-0.03173344
0
3DFACE
5
B304
100
AcDbEntity
8
SHELLS
100
AcDbFace
10
0.67986221
20
-0.81002941
30
0.00000000
11
0.78204123
21
-0.89648052
31
0.00000000
12
0.78229725
22
-0.88867500
32
-0.03173344
13
0.69083533
23
-0.81129354
33
-0.03173344
0
3DFACE
5
B305
100
AcDbEntity
8
SHELLS
100
AcDbFace
10
0.78204123
20
-0.89648052
30
0.00000000
11
0.83591555
21
-0.98114993
31
0.00000000
12
0.84152237
22
-0.98175379
32
-0.03173344
13
0.78229725
23
-0.88867500
33
-0.03173344
0
3DFACE
5
B306
100
AcDbEntity
8
SHELLS
100
AcDbFace
10
0.83591555
20
-0.98114993
30
0.00000000
11
0.74482501
21
-0.93684435
31
0.00000000
12
0.74155452
22
-0.93313037
32
-0.03173344
13
0.84152237
23
-0.98175379
33
-0.03173344
0
3DFACE
5
B307
100
AcDbEntity
8
SHELLS
100
AcDbFace
10
0.74482501
20
-0.93684435
30
0.00000000
11
0.64784457
21
-0.84615960
31
0.00000000
12
0.65463664
22
-0.85185710
32
-0.03173344
13
0.74155452
23
-0.93313037
33
-0.03173344
0
3DFACE
5
B308
100
AcDbEntity
8
SHELLS
100
AcDbFace
10
0.99327042
20
-0.15651823
30
0.00000000
11
0.99596406
21
-0.11724317
31
0.00000000
12
1.00075911
22
-0.11467924
32
-0.03173344
13
0.99765356
23
-0.15996032
33
-0.03173344
0
3DFACE
5
B309
100
AcDbEntity
8
SHELLS
100
AcDbFace
10
0.99596406
20
-0.11724317
30
0.00000000
11
1.02842639
21
-0.12514761
31
0.00000000
12
1.03934098
22
-0.12407377
32
-0.03173344
13
1.00075911
23
-0.11467924
33
-0.03173344
0
3DFACE
5
B310
100
AcDbEntity
8
SHELLS
100
AcDbFace
10
1.02842639
20
-0.12514761
30
0.00000000
11
1.26997431
21
-0.43303968
31
0.00000000
12
1.27305471
22
-0.42198709
32
-0.03173344
13
1.03934098
23
-0.12407377
33
-0.03173344
0
3DFACE
5
B311
100
AcDbEntity
8
SHELLS
100
AcDbFace
10
1.26997431
20
-0.43303968
30
0.00000000
11
1.31683714
21
-0.55776050
31
0.00000000
12
1.32465252
22
-0.55930958
32
-0.03173344
13
1.27305471
23
-0.42198709
33
-0.03173344
0
3DFACE
5
B312
100
AcDbEntity
8
SHELLS
100
AcDbFace
10
1.31683714
20
-0.55776050
30
0.00000000
11
1.21308345
21
-0.47600567
31
0.00000000
12
1.21054722
22
-0.46939800
32
-0.03173344
13
1.32465252
23
-0.55930958
33
-0.03173344
0
3DFACE
5
B313
100
AcDbEntity
8
SHELLS
100
AcDbFace
10
1.21308345
20
-0.47600567
30
0.00000000
11
0.99327042
21
-0.15651823
31
0.00000000
12
0.99765356
22
-0.15996032
32
-0.03173344
13
1.21054722
23
-0.46939800
33
-0.03173344
0
3DFACE
5
B314
100
AcDbEntity
8
SHELLS
100
AcDbFace
10
1.44358435
20
-0.33672482
30
0.00000000
11
1.44042519
21
-0.49779722
31
0.00000000
12
1.43694301
22
-0.50475848
32
-0.03173344
13
1.44035840
23
-0.33062233
33
-0.03173344
0
3DFACE
5
B315
100
AcDbEntity
8
SHELLS
100
AcDbFace
10
1.44042519
20
-0.49779722
30
0.00000000
11
1.38009181
21
-0.34759675
31
0.00000000
12
1.37167675
22
-0.34227753
32
-0.03173344
13
1.43694301
23
-0.50475848
33
-0.03173344
0
3DFACE
5
B316
100
AcDbEntity
8
SHELLS
100
AcDbFace
10
1.38009181
20
-0.34759675
30
0.00000000
11
1.35593913
21
-0.20393419
31
0.00000000
12
1.34956115
22
-0.21074592
32
-0.03173344
13
1.37167675
23
-0.34227753
33
-0.03173344
0
3DFACE
5
B317
100
AcDbEntity
8
SHELLS
100
AcDbFace
10
1.35593913
20
-0.20393419
30
0.00000000
11
1.36921722
21
-0.10803409
31
0.00000000
12
1.36407807
22
-0.10589846
32
-0.03173344
13
1.34956115
23
-0.21074592
33
-0.03173344
0
3DFACE
5
B318
100
AcDbEntity
8
SHELLS
100
AcDbFace
10
1.36921722
20
-0.10803409
30
0.00000000
11
1.41563983
21
-0.19402632
31
0.00000000
12
1.41471849
22
-0.19970365
32
-0.03173344
13
1.36407807
23
-0.10589846
33
-0.03173344
0
3DFACE
5
B319
100
AcDbEntity
8
SHELLS
100
AcDbFace
10
1.41563983
20
-0.19402632
30
0.00000000
11
1.44358435
21
-0.33672482
31
0.00000000
12
1.44035840
22
-0.33062233
32
-0.03173344
13
1.41471849
23
-0.19970365
33
-0.03173344
0
3DFACE
5
B320
100
AcDbEntity
8
SHELLS
100
AcDbFace
10
1.45096009
20
-0.50379121
30
0.00000000
11
1.60581850
21
-0.46511756
31
0.00000000
12
1.61488296
22
-0.46894547
32
-0.03173344
13
1.44747792
23
-0.51075246
33
-0.03173344
0
3DFACE
5
B321
100
AcDbEntity
8
SHELLS
100
AcDbFace
10
1.60581850
20
-0.46511756
30
0.00000000
11
1.47402571
21
-0.55773050
31
0.00000000
12
1.47233726
22
-0.56911466
32
-0.03173344
13
1.61488296
23
-0.46894547
33
-0.03173344
0
3DFACE
5
B322
100
AcDbEntity
8
SHELLS
100
AcDbFace
10
1.47402571
20
-0.55773050
30
0.00000000
11
1.33652146
21
-0.61702557
31
0.00000000
12
1.34674039
22
-0.62327997
32
-0.03173344
13
1.47233726
23
-0.56911466
33
-0.03173344
0
3DFACE
5
B323
100
AcDbEntity
8
SHELLS
100
AcDbFace
10
1.33652146
20
-0.61702557
30
0.00000000
11
1.24622502
21
-0.62907986
31
0.00000000
12
1.24727099
22
-0.63655881
32
-0.03173344
13
1.34674039
23
-0.62327997
33
-0.03173344
0
3DFACE
5
B324
100
AcDbEntity
8
SHELLS
100
AcDbFace
10
1.24622502
20
-0.62907986
30
0.00000000
11
1.31463458
21
-0.56915433
31
0.00000000
12
1.32244996
22
-0.57070341
32
-0.03173344
13
1.24727099
23
-0.63655881
33
-0.03173344
0
3DFACE
5
B325
100
AcDbEntity
8
SHELLS
100
AcDbFace
10
1.31463458
20
-0.56915433
30
0.00000000
11
1.45096009
21
-0.50379121
31
0.00000000
12
1.44747792
22
-0.51075246
32
-0.03173344
13
1.32244996
23
-0.57070341
33
-0.03173344
0
3DFACE
5
B326
100
AcDbEntity
8
SHELLS
100
AcDbFace
10
1.43606118
20
0.17002485
30
0.00000000
11
1.51386004
21
0.09269069
31
0.00000000
12
1.51347086
22
0.08546559
32
-0.03173344
13
1.42913434
23
0.16929835
33
-0.03173344
0
3DFACE
5
B327
100
AcDbEntity
8
SHELLS
100
AcDbFace
10
1.51386004
20
0.09269069
30
0.00000000
11
1.40858694
21
0.12457195
31
0.00000000
12
1.39921711
22
0.12006658
32
-0.03173344
13
1.51347086
23
0.08546559
33
-0.03173344
0
3DFACE
5
B328
100
AcDbEntity
8
SHELLS
100
AcDbFace
10
1.40858694
20
0.12457195
30
0.00000000
11
1.29824295
21
0.19404240
31
0.00000000
12
1.29915511
22
0.18306606
32
-0.03173344
13
1.39921711
23
0.12006658
33
-0.03173344
0
3DFACE
5
B329
100
AcDbEntity
8
SHELLS
100
AcDbFace
10
1.29824295
20
0.19404240
30
0.00000000
11
1.23910714
21
0.25710513
31
0.00000000
12
1.23366259
22
0.25290761
32
-0.03173344
13
1.29915511
23
0.18306606
33
-0.03173344
0
3DFACE
5
B330
100
AcDbEntity
8
SHELLS
100
AcDbFace
10
1.23910714
20
0.25710513
30
0.00000000
11
1.32288247
21
0.23449299
31
0.00000000
12
1.32620939
22
0.22792793
32
-0.03173344
13
1.23366259
23
0.25290761
33
-0.03173344
0
3DFACE
5
B331
100
AcDbEntity
8
SHELLS
100
AcDbFace
10
1.32288247
20
0.23449299
30
0.00000000
11
1.43606118
21
0.17002485
31
0.00000000
12
1.42913434
22
0.16929835
32
-0.03173344
13
1.32620939
23
0.22792793
33
-0.03173344
0
3DFACE
5
B332
100
AcDbEntity
8
SHELLS
100
AcDbFace
10
0.60513893
20
0.45593236
30
0.00000000
11
0.68865232
21
0.47412856
31
0.00000000
12
0.69633468
22
0.47103132
32
-0.03173344
13
0.59936071
23
0.44990229
33
-0.03173344
0
3DFACE
5
B333
100
AcDbEntity
8
SHELLS
100
AcDbFace
10
0.68865232
20
0.47412856
30
0.00000000
11
0.61765481
21
0.42598902
31
0.00000000
12
0.61373444
22
0.41502460
32
-0.03173344
13
0.69633468
23
0.47103132
33
-0.03173344
0
3DFACE
5
B334
100
AcDbEntity
8
SHELLS
100
AcDbFace
10
0.61765481
20
0.42598902
30
0.00000000
11
0.43184252
21
0.34949544
31
0.00000000
12
0.44438532
22
0.34530748
32
-0.03173344
13
0.61373444
23
0.41502460
33
-0.03173344
0
3DFACE
5
B335
100
AcDbEntity
8
SHELLS
100
AcDbFace
10
0.43184252
20
0.34949544
30
0.00000000
11
0.35224373
21
0.33034110
31
0.00000000
12
0.34783442
22
0.32207384
32
-0.03173344
13
0.44438532
23
0.34530748
33
-0.03173344
0
3DFACE
5
B336
100
AcDbEntity
8
SHELLS
100
AcDbFace
10
0.35224373
20
0.33034110
30
0.00000000
11
0.42084887
21
0.37427469
31
0.00000000
12
0.43084895
22
0.37523497
32
-0.03173344
13
0.34783442
23
0.32207384
33
-0.03173344
0
3DFACE
5
B337
100
AcDbEntity
8
SHELLS
100
AcDbFace
10
0.42084887
20
0.37427469
30
0.00000000
11
0.60513893
21
0.45593236
31
0.00000000
12
0.59936071
22
0.44990229
32
-0.03173344
13
0.43084895
23
0.37523497
33
-0.03173344
0
3DFACE
5
B338
100
AcDbEntity
8
SHELLS
100
AcDbFace
10
0.18083712
20
-0.11599043
30
0.00000000
11
0.11814194
21
-0.10412674
31
0.00000000
12
0.10946564
22
-0.09708783
32
-0.03173344
13
0.19170423
23
-0.11264968
33
-0.03173344
0
3DFACE
5
B339
100
AcDbEntity
8
SHELLS
100
AcDbFace
10
0.11814194
20
-0.10412674
30
0.00000000
11
0.18125171
21
-0.08985849
31
0.00000000
12
0.19261834
22
-0.07828816
32
-0.03173344
13
0.10946564
23
-0.09708783
33
-0.03173344
0
3DFACE
5
B340
100
AcDbEntity
8
SHELLS
100
AcDbFace
10
0.18125171
20
-0.08985849
30
0.00000000
11
0.44699341
21
-0.08371338
31
0.00000000
12
0.43858611
22
-0.07260082
32
-0.03173344
13
0.19261834
23
-0.07828816
33
-0.03173344
0
3DFACE
5
B341
100
AcDbEntity
8
SHELLS
100
AcDbFace
10
0.44699341
20
-0.08371338
30
0.00000000
11
0.49755343
21
-0.09816826
31
0.00000000
12
0.50265913
22
-0.09091901
32
-0.03173344
13
0.43858611
23
-0.07260082
33
-0.03173344
0
3DFACE
5
B342
100
AcDbEntity
8
SHELLS
100
AcDbFace
10
0.49755343
20
-0.09816826
30
0.00000000
11
0.44721190
21
-0.11391626
31
0.00000000
12
0.43935580
22
-0.11072176
32
-0.03173344
13
0.50265913
23
-0.09091901
33
-0.03173344
0
3DFACE
5
B343
100
AcDbEntity
8
SHELLS
100
AcDbFace
10
0.44721190
20
-0.11391626
30
0.00000000
11
0.18083712
21
-0.11599043
31
0.00000000
12
0.19170423
22
-0.11264968
32
-0.03173344
13
0.43935580
23
-0.11072176
33
-0.03173344
0
3DFACE
5
B344
100
AcDbEntity
8
SHELLS
100
AcDbFace
10
1.04448665
20
0.47680261
30
0.00000000
11
1.05592738
21
0.44916473
31
0.00000000
12
1.05076273
22
0.44517466
32
-0.03173344
13
1.03802487
23
0.47594607
33
-0.03173344
0
3DFACE
5
B345
100
AcDbEntity
8
SHELLS
100
AcDbFace
10
1.05592738
20
0.44916473
30
0.00000000
11
1.03090972
21
0.45980339
31
0.00000000
12
1.02256274
22
0.45716659
32
-0.03173344
13
1.05076273
23
0.44517466
33
-0.03173344
0
3DFACE
5
B346
100
AcDbEntity
8
SHELLS
100
AcDbFace
10
1.03090972
20
0.45980339
30
0.00000000
11
0.83858904
21
0.65331912
31
0.00000000
12
0.83582734
22
0.64506135
32
-0.03173344
13
1.02256274
23
0.45716659
33
-0.03173344
0
3DFACE
5
B347
100
AcDbEntity
8
SHELLS
100
AcDbFace
10
0.83858904
20
0.65331912
30
0.00000000
11
0.81183984
21
0.69586733
31
0.00000000
12
0.80591164
22
0.69264629
32
-0.03173344
13
0.83582734
23
0.64506135
33
-0.03173344
0
3DFACE
5
B348
100
AcDbEntity
8
SHELLS
100
AcDbFace
10
0.81183984
20
0.69586733
30
0.00000000
11
0.85509819
21
0.66810785
31
0.00000000
12
0.85412254
22
0.66170870
32
-0.03173344
13
0.80591164
23
0.69264629
33
-0.03173344
0
3DFACE
5
B349
100
AcDbEntity
8
SHELLS
100
AcDbFace
10
0.85509819
20
0.66810785
30
0.00000000
11
1.04448665
21
0.47680261
31
0.00000000
12
1.03802487
22
0.47594607
32
-0.03173344
13
0.85412254
23
0.66170870
33
-0.03173344
0
3DFACE
5
B350
100
AcDbEntity
8
SHELLS
100
AcDbFace
10
-0.88894230
20
0.17926952
30
0.00000000
11
-0.92074163
21
0.15038061
31
0.00000000
12
-0.92863520
22
0.15391118
32
-0.03173344
13
-0.89188718
23
0.18729586
33
-0.03173344
0
3DFACE
5
B351
100
AcDbEntity
8
SHELLS
100
AcDbFace
10
-0.92074163
20
0.15038061
30
0.00000000
11
-0.91269975
21
0.19131294
31
0.00000000
12
-0.91926497
22
0.20160464
32
-0.03173344
13
-0.92863520
23
0.15391118
33
-0.03173344
0
3DFACE
5
B352
100
AcDbEntity
8
SHELLS
100
AcDbFace
10
-0.91269975
20
0.19131294
30
0.00000000
11
-0.81755889
21
0.36063415
31
0.00000000
12
-0.83196287
22
0.35697556
32
-0.03173344
13
-0.91926497
23
0.20160464
33
-0.03173344
0
3DFACE
5
B353
100
AcDbEntity
8
SHELLS
100
AcDbFace
10
-0.81755889
20
0.36063415
30
0.00000000
11
-0.75304431
21
0.44648797
31
0.00000000
12
-0.75757957
22
0.45596235
32
-0.03173344
13
-0.83196287
23
0.35697556
33
-0.03173344
0
3DFACE
5
B354
100
AcDbEntity
8
SHELLS
100
AcDbFace
10
-0.75304431
20
0.44648797
30
0.00000000
11
-0.79289547
21
0.34835984
31
0.00000000
12
-0.80348269
22
0.34293210
32
-0.03173344
13
-0.75757957
23
0.45596235
33
-0.03173344
0
3DFACE
5
B355
100
AcDbEntity
8
SHELLS
100
AcDbFace
10
-0.79289547
20
0.34835984
30
0.00000000
11
-0.88894230
21
0.17926952
31
0.00000000
12
-0.89188718
22
0.18729586
32
-0.03173344
13
-0.80348269
23
0.34293210
33
-0.03173344
0
3DFACE
5
B356
100
AcDbEntity
8
SHELLS
100
AcDbFace
10
-0.52961932
20
0.28931341
30
0.00000000
11
-0.43044774
21
0.25001947
31
0.00000000
12
-0.42392059
22
0.24040756
32
-0.03173344
13
-0.54277389
23
0.28749982
33
-0.03173344
0
3DFACE
5
B357
100
AcDbEntity
8
SHELLS
100
AcDbFace
10
-0.43044774
20
0.25001947
30
0.00000000
11
-0.53853938
21
0.26085600
31
0.00000000
12
-0.55363227
22
0.25341156
32
-0.03173344
13
-0.42392059
23
0.24040756
33
-0.03173344
0
3DFACE
5
B358
100
AcDbEntity
8
SHELLS
100
AcDbFace
10
-0.53853938
20
0.26085600
30
0.00000000
11
-0.66651315
21
0.28994166
31
0.00000000
12
-0.65855250
22
0.27725751
32
-0.03173344
13
-0.55363227
23
0.25341156
33
-0.03173344
0
3DFACE
5
B359
100
AcDbEntity
8
SHELLS
100
AcDbFace
10
-0.66651315
20
0.28994166
30
0.00000000
11
-0.78781524
21
0.33739819
31
0.00000000
12
-0.79840245
22
0.33197045
32
-0.03173344
13
-0.65855250
23
0.27725751
33
-0.03173344
0
3DFACE
5
B360
100
AcDbEntity
8
SHELLS
100
AcDbFace
10
-0.78781524
20
0.33739819
30
0.00000000
11
-0.66039692
21
0.32346470
31
0.00000000
12
-0.65159139
22
0.31591632
32
-0.03173344
13
-0.79840245
23
0.33197045
33
-0.03173344
0
3DFACE
5
B361
100
AcDbEntity
8
SHELLS
100
AcDbFace
10
-0.66039692
20
0.32346470
30
0.00000000
11
-0.52961932
21
0.28931341
31
0.00000000
12
-0.54277389
22
0.28749982
32
-0.03173344
13
-0.65159139
23
0.31591632
33
-0.03173344
0
3DFACE
5
B362
100
AcDbEntity
8
SHELLS
100
AcDbFace
10
-0.22156192
20
0.05418556
30
0.00000000
11
-0.15387222
21
0.04021160
31
0.00000000
12
-0.14571618
22
0.03255442
32
-0.03173344
13
-0.23331462
23
0.05063838
33
-0.03173344
0
3DFACE
5
B363
100
AcDbEntity
8
SHELLS
100
AcDbFace
10
-0.15387222
20
0.04021160
30
0.00000000
11
-0.22307652
21
0.02735542
31
0.00000000
12
-0.23560646
22
0.01585538
32
-0.03173344
13
-0.14571618
23
0.03255442
33
-0.03173344
0
3DFACE
5
B364
100
AcDbEntity
8
SHELLS
100
AcDbFace
10
-0.22307652
20
0.02735542
30
0.00000000
11
-0.44472400
21
0.02755332
31
0.00000000
12
-0.43472929
22
0.01603406
32
-0.03173344
13
-0.23560646
23
0.01585538
33
-0.03173344
0
3DFACE
5
B365
100
AcDbEntity
8
SHELLS
100
AcDbFace
10
-0.44472400
20
0.02755332
30
0.00000000
11
-0.52273270
21
0.04467164
31
0.00000000
12
-0.53126212
22
0.03721733
32
-0.03173344
13
-0.43472929
23
0.01603406
33
-0.03173344
0
3DFACE
5
B366
100
AcDbEntity
8
SHELLS
100
AcDbFace
10
-0.52273270
20
0.04467164
30
0.00000000
11
-0.44548340
21
0.05928580
31
0.00000000
12
-0.43592208
22
0.05525393
32
-0.03173344
13
-0.53126212
23
0.03721733
33
-0.03173344
0
3DFACE
5
B367
100
AcDbEntity
8
SHELLS
100
AcDbFace
10
-0.44548340
20
0.05928580
30
0.00000000
11
-0.22156192
21
0.05418556
31
0.00000000
12
-0.23331462
22
0.05063838
32
-0.03173344
13
-0.43592208
23
0.05525393
33
-0.03173344
0
3DFACE
5
B368
100
AcDbEntity
8
SHELLS
100
AcDbFace
10
-0.14582511
20
0.10009015
30
0.00000000
11
-0.21698566
21
0.10738109
31
0.00000000
12
-0.22736591
22
0.11498728
32
-0.03173344
13
-0.13528468
23
0.10555287
33
-0.03173344
0
3DFACE
5
B369
100
AcDbEntity
8
SHELLS
100
AcDbFace
10
-0.21698566
20
0.10738109
30
0.00000000
11
-0.14657022
21
0.12672077
31
0.00000000
12
-0.13597086
22
0.14008903
32
-0.03173344
13
-0.22736591
23
0.11498728
33
-0.03173344
0
3DFACE
5
B370
100
AcDbEntity
8
SHELLS
100
AcDbFace
10
-0.14657022
20
0.12672077
30
0.00000000
11
0.08414424
21
0.14490502
31
0.00000000
12
0.07187708
22
0.15647105
32
-0.03173344
13
-0.13597086
23
0.14008903
33
-0.03173344
0
3DFACE
5
B371
100
AcDbEntity
8
SHELLS
100
AcDbFace
10
0.08414424
20
0.14490502
30
0.00000000
11
0.14570391
21
0.13664236
31
0.00000000
12
0.15258009
22
0.14563893
32
-0.03173344
13
0.07187708
23
0.15647105
33
-0.03173344
0
3DFACE
5
B372
100
AcDbEntity
8
SHELLS
100
AcDbFace
10
0.14570391
20
0.13664236
30
0.00000000
11
0.08721635
21
0.11925128
31
0.00000000
12
0.07626514
22
0.12294694
32
-0.03173344
13
0.15258009
23
0.14563893
33
-0.03173344
0
3DFACE
5
B373
100
AcDbEntity
8
SHELLS
100
AcDbFace
10
0.08721635
20
0.11925128
30
0.00000000
11
-0.14582511
21
0.10009015
31
0.00000000
12
-0.13528468
22
0.10555287
32
-0.03173344
13
0.07626514
23
0.12294694
33
-0.03173344
0
ENDSEC
0
SECTION
2
OBJECTS
0
DICTIONARY
5
C
100
AcDbDictionary
3
ACAD_GROUP
350
D
3
ACAD_MLINESTYLE
350
E
0
DICTIONARY
5
D
102
{ACAD_REACTORS
330
C
102
}
100
AcDbDictionary
0
DICTIONARY
5
E
102
{ACAD_REACTORS
330
C
102
}
100
AcDbDictionary
3
STANDARD
350
1C
0
MLINESTYLE
5
1C
102
{ACAD_REACTORS
330
E
102
}
100
AcDbMlineStyle
2
STANDARD
70
0
3

62
0
51
90.0
52
90.0
71
2
49
0.5
62
256
6
BYLAYER
49
-0.5
62
256
6
BYLAYER
0
ENDSEC
0
EOF
