0
SECTION
2
HEADER
9
$ACADVER
1
AC1014
9
$ACADMAINTVER
70
8
9
$DWGCODEPAGE
3
ANSI_1252
9
$INSBASE
10
0.0
20
0.0
30
0.0
9
$EXTMIN
10
1.000000E+20
20
1.000000E+20
30
1.000000E+20
9
$EXTMAX
10
-1.000000E+20
20
-1.000000E+20
30
-1.000000E+20
9
$LIMMIN
10
0.0
20
0.0
9
$LIMMAX
10
12.0
20
9.0
9
$ORTHOMODE
70
0
9
$REGENMODE
70
1
9
$FILLMODE
70
1
9
$QTEXTMODE
70
0
9
$MIRRTEXT
70
1
9
$DRAGMODE
70
2
9
$LTSCALE
40
1.0
9
$OSMODE
70
0
9
$ATTMODE
70
1
9
$TEXTSIZE
40
0.2
9
$TRACEWID
40
0.05
9
$TEXTSTYLE
7
STANDARD
9
$CLAYER
8
0
9
$CELTYPE
6
BYLAYER
9
$CECOLOR
62
256
9
$CELTSCALE
40
1.0
9
$DELOBJ
70
1
9
$DISPSILH
70
0
9
$DIMSCALE
40
1.0
9
$DIMASZ
40
0.18
9
$DIMEXO
40
0.0625
9
$DIMDLI
40
0.38
9
$DIMRND
40
0.0
9
$DIMDLE
40
0.0
9
$DIMEXE
40
0.18
9
$DIMTP
40
0.0
9
$DIMTM
40
0.0
9
$DIMTXT
40
0.18
9
$DIMCEN
40
0.09
9
$DIMTSZ
40
0.0
9
$DIMTOL
70
0
9
$DIMLIM
70
0
9
$DIMTIH
70
1
9
$DIMTOH
70
1
9
$DIMSE1
70
0
9
$DIMSE2
70
0
9
$DIMTAD
70
0
9
$DIMZIN
70
0
9
$DIMBLK
1

9
$DIMASO
70
1
9
$DIMSHO
70
1
9
$DIMPOST
1

9
$DIMAPOST
1

9
$DIMALT
70
0
9
$DIMALTD
70
2
9
$DIMALTF
40
25.4
9
$DIMLFAC
40
1.0
9
$DIMTOFL
70
0
9
$DIMTVP
40
0.0
9
$DIMTIX
70
0
9
$DIMSOXD
70
0
9
$DIMSAH
70
0
9
$DIMBLK1
1

9
$DIMBLK2
1

9
$DIMSTYLE
2
STANDARD
9
$DIMCLRD
70
0
9
$DIMCLRE
70
0
9
$DIMCLRT
70
0
9
$DIMTFAC
40
1.0
9
$DIMGAP
40
0.09
9
$DIMJUST
70
0
9
$DIMSD1
70
0
9
$DIMSD2
70
0
9
$DIMTOLJ
70
1
9
$DIMTZIN
70
0
9
$DIMALTZ
70
0
9
$DIMALTTZ
70
0
9
$DIMFIT
70
3
9
$DIMUPT
70
0
9
$DIMUNIT
70
2
9
$DIMDEC
70
4
9
$DIMTDEC
70
4
9
$DIMALTU
70
2
9
$DIMALTTD
70
2
9
$DIMTXSTY
7
STANDARD
9
$DIMAUNIT
70
0
9
$LUNITS
70
2
9
$LUPREC
70
4
9
$SKETCHINC
40
0.1
9
$FILLETRAD
40
0.5
9
$AUNITS
70
0
9
$AUPREC
70
0
9
$MENU
1
.
9
$ELEVATION
40
0.0
9
$PELEVATION
40
0.0
9
$THICKNESS
40
0.0
9
$LIMCHECK
70
0
9
$BLIPMODE
70
0
9
$CHAMFERA
40
0.5
9
$CHAMFERB
40
0.5
9
$CHAMFERC
40
1.0
9
$CHAMFERD
40
0.0
9
$SKPOLY
70
1
9
$TDCREATE
40
2451008.519973958
9
$TDUPDATE
40
2451008.523538426
9
$TDINDWG
40
0.0024055556
9
$TDUSRTIMER
40
0.0024055556
9
$USRTIMER
70
1
9
$ANGBASE
50
0.0
9
$ANGDIR
70
0
9
$PDMODE
70
0
9
$PDSIZE
40
0.0
9
$PLINEWID
40
0.0
9
$COORDS
70
1
9
$SPLFRAME
70
0
9
$SPLINETYPE
70
6
9
$SPLINESEGS
70
8
9
$ATTDIA
70
0
9
$ATTREQ
70
1
9
$HANDLING
70
1
9
$HANDSEED
5
5B
9
$SURFTAB1
70
6
9
$SURFTAB2
70
6
9
$SURFTYPE
70
6
9
$SURFU
70
6
9
$SURFV
70
6
9
$UCSNAME
2

9
$UCSORG
10
0.0
20
0.0
30
0.0
9
$UCSXDIR
10
1.0
20
0.0
30
0.0
9
$UCSYDIR
10
0.0
20
1.0
30
0.0
9
$PUCSNAME
2

9
$PUCSORG
10
0.0
20
0.0
30
0.0
9
$PUCSXDIR
10
1.0
20
0.0
30
0.0
9
$PUCSYDIR
10
0.0
20
1.0
30
0.0
9
$USERI1
70
0
9
$USERI2
70
0
9
$USERI3
70
0
9
$USERI4
70
0
9
$USERI5
70
0
9
$USERR1
40
0.0
9
$USERR2
40
0.0
9
$USERR3
40
0.0
9
$USERR4
40
0.0
9
$USERR5
40
0.0
9
$WORLDVIEW
70
1
9
$SHADEDGE
70
3
9
$SHADEDIF
70
70
9
$TILEMODE
70
1
9
$MAXACTVP
70
48
9
$PINSBASE
10
0.0
20
0.0
30
0.0
9
$PLIMCHECK
70
0
9
$PEXTMIN
10
1.000000E+20
20
1.000000E+20
30
1.000000E+20
9
$PEXTMAX
10
-1.000000E+20
20
-1.000000E+20
30
-1.000000E+20
9
$PLIMMIN
10
0.0
20
0.0
9
$PLIMMAX
10
12.0
20
9.0
9
$UNITMODE
70
0
9
$VISRETAIN
70
1
9
$PLINEGEN
70
0
9
$PSLTSCALE
70
1
9
$TREEDEPTH
70
3020
9
$PICKSTYLE
70
1
9
$CMLSTYLE
2
STANDARD
9
$CMLJUST
70
0
9
$CMLSCALE
40
1.0
9
$PROXYGRAPHICS
70
1
9
$MEASUREMENT
70
0
0
ENDSEC
0
SECTION
2
CLASSES
0
ENDSEC
0
SECTION
2
TABLES
0
TABLE
2
VPORT
5
8
100
AcDbSymbolTable
70
3
0
VPORT
5
5A
100
AcDbSymbolTableRecord
100
AcDbViewportTableRecord
2
*ACTIVE
70
0
10
0.0
20
0.0
11
1.0
21
1.0
12
7.623626
22
4.5
13
0.0
23
0.0
14
0.5
24
0.5
15
0.5
25
0.5
16
0.0
26
0.0
36
1.0
17
0.0
27
0.0
37
0.0
40
9.0
41
1.694139
42
50.0
43
0.0
44
0.0
50
0.0
51
0.0
71
0
72
100
73
1
74
1
75
0
76
0
77
0
78
0
0
ENDTAB
0
TABLE
2
LTYPE
5
5
100
AcDbSymbolTable
70
1
0
LTYPE
5
13
100
AcDbSymbolTableRecord
100
AcDbLinetypeTableRecord
2
BYBLOCK
70
0
3

72
65
73
0
40
0.0
0
LTYPE
5
14
100
AcDbSymbolTableRecord
100
AcDbLinetypeTableRecord
2
BYLAYER
70
0
3

72
65
73
0
40
0.0
0
LTYPE
5
15
100
AcDbSymbolTableRecord
100
AcDbLinetypeTableRecord
2
CONTINUOUS
70
0
3
Solid line
72
65
73
0
40
0.0
0
ENDTAB
0
TABLE
2
LAYER
5
2
100
AcDbSymbolTable
70
10
0
LAYER
5
F
100
AcDbSymbolTableRecord
100
AcDbLayerTableRecord
2
0
70
0
62
7
6
CONTINUOUS
0
LAYER
5
4C
100
AcDbSymbolTableRecord
100
AcDbLayerTableRecord
2
FRAMES
70
0
62
2
6
CONTINUOUS
0
LAYER
5
4D
100
AcDbSymbolTableRecord
100
AcDbLayerTableRecord
2
JOINTS
70
0
62
2
6
CONTINUOUS
0
LAYER
5
4E
100
AcDbSymbolTableRecord
100
AcDbLayerTableRecord
2
SHELLS
70
0
62
1
6
CONTINUOUS
0
LAYER
5
4F
100
AcDbSymbolTableRecord
100
AcDbLayerTableRecord
2
GRIDS
70
0
62
8
6
CONTINUOUS
0
LAYER
5
50
100
AcDbSymbolTableRecord
100
AcDbLayerTableRecord
2
PLANES
70
0
62
5
6
CONTINUOUS
0
LAYER
5
51
100
AcDbSymbolTableRecord
100
AcDbLayerTableRecord
2
ASOLIDS
70
0
62
6
6
CONTINUOUS
0
LAYER
5
52
100
AcDbSymbolTableRecord
100
AcDbLayerTableRecord
2
SOLIDS
70
0
62
7
6
CONTINUOUS
0
LAYER
5
53
100
AcDbSymbolTableRecord
100
AcDbLayerTableRecord
2
TEXT
70
0
62
94
6
CONTINUOUS
0
LAYER
5
58
100
AcDbSymbolTableRecord
100
AcDbLayerTableRecord
2
NLLINKS
70
0
62
3
6
CONTINUOUS
0
ENDTAB
0
TABLE
2
STYLE
5
3
100
AcDbSymbolTable
70
1
0
STYLE
5
10
100
AcDbSymbolTableRecord
100
AcDbTextStyleTableRecord
2
STANDARD
70
0
40
0.0
41
1.0
50
0.0
71
0
42
0.2
3
txt
4

0
ENDTAB
0
TABLE
2
VIEW
5
6
100
AcDbSymbolTable
70
0
0
ENDTAB
0
TABLE
2
UCS
5
7
100
AcDbSymbolTable
70
0
0
ENDTAB
0
TABLE
2
APPID
5
9
100
AcDbSymbolTable
70
1
0
APPID
5
11
100
AcDbSymbolTableRecord
100
AcDbRegAppTableRecord
2
ACAD
70
0
0
ENDTAB
0
TABLE
2
DIMSTYLE
5
A
100
AcDbSymbolTable
70
1
0
DIMSTYLE
105
1D
100
AcDbSymbolTableRecord
100
AcDbDimStyleTableRecord
2
STANDARD
70
0
3

4

5

6

7

40
1.0
41
0.18
42
0.0625
43
0.38
44
0.18
45
0.0
46
0.0
47
0.0
48
0.0
140
0.18
141
0.09
142
0.0
143
25.4
144
1.0
145
0.0
146
1.0
147
0.09
71
0
72
0
73
1
74
1
75
0
76
0
77
0
78
0
170
0
171
2
172
0
173
0
174
0
175
0
176
0
177
0
178
0
270
2
271
4
272
4
273
2
274
2
340
10
275
0
280
0
281
0
282
0
283
1
284
0
285
0
286
0
287
3
288
0
0
ENDTAB
0
TABLE
2
BLOCK_RECORD
5
1
100
AcDbSymbolTable
70
0
0
BLOCK_RECORD
5
19
100
AcDbSymbolTableRecord
100
AcDbBlockTableRecord
2
*MODEL_SPACE
0
BLOCK_RECORD
5
16
100
AcDbSymbolTableRecord
100
AcDbBlockTableRecord
2
*PAPER_SPACE
0
ENDTAB
0
ENDSEC
0
SECTION
2
BLOCKS
0
BLOCK
5
1A
100
AcDbEntity
8
0
100
AcDbBlockBegin
2
*MODEL_SPACE
70
0
10
0.0
20
0.0
30
0.0
3
*MODEL_SPACE
1

0
ENDBLK
5
1B
100
AcDbEntity
8
0
100
AcDbBlockEnd
0
BLOCK
5
17
100
AcDbEntity
67
1
8
0
100
AcDbBlockBegin
2
*PAPER_SPACE
70
0
10
0.0
20
0.0
30
0.0
3
*PAPER_SPACE
1

0
ENDBLK
5
18
100
AcDbEntity
67
1
8
0
100
AcDbBlockEnd
0
ENDSEC
0
SECTION
2
ENTITIES
0
3DFACE
5
B2
100
AcDbEntity
8
SHELLS
100
AcDbFace
10
0.95926005
20
-0.17094620
30
0.00000000
11
0.98508931
21
-0.15864272
31
0.00000000
12
0.98947244
22
-0.16208482
32
-0.03173344
13
0.95924114
23
-0.17648516
33
-0.03173344
0
3DFACE
5
B3
100
AcDbEntity
8
SHELLS
100
AcDbFace
10
0.98508931
20
-0.15864272
30
0.00000000
11
0.99201532
21
-0.18757674
31
0.00000000
12
0.99757884
22
-0.19595002
32
-0.03173344
13
0.98947244
23
-0.16208482
33
-0.03173344
0
3DFACE
5
B4
100
AcDbEntity
8
SHELLS
100
AcDbFace
10
0.99201532
20
-0.18757674
30
0.00000000
11
0.83861037
21
-0.51472079
31
0.00000000
12
0.84924738
22
-0.51227564
32
-0.03173344
13
0.99757884
23
-0.19595002
33
-0.03173344
0
3DFACE
5
B5
100
AcDbEntity
8
SHELLS
100
AcDbFace
10
0.83861037
20
-0.51472079
30
0.00000000
11
0.79413366
21
-0.56101888
31
0.00000000
12
0.79793273
22
-0.56569170
32
-0.03173344
13
0.84924738
23
-0.51227564
33
-0.03173344
0
3DFACE
5
B6
100
AcDbEntity
8
SHELLS
100
AcDbFace
10
0.79413366
20
-0.56101888
30
0.00000000
11
0.80186186
21
-0.49882808
31
0.00000000
12
0.80684908
22
-0.49393955
32
-0.03173344
13
0.79793273
23
-0.56569170
33
-0.03173344
0
3DFACE
5
B7
100
AcDbEntity
8
SHELLS
100
AcDbFace
10
0.80186186
20
-0.49882808
30
0.00000000
11
0.95926005
21
-0.17094620
31
0.00000000
12
0.95924114
22
-0.17648516
32
-0.03173344
13
0.80684908
23
-0.49393955
33
-0.03173344
0
3DFACE
5
B8
100
AcDbEntity
8
SHELLS
100
AcDbFace
10
0.47786638
20
-0.43088630
30
0.00000000
11
0.41294228
21
-0.39552169
31
0.00000000
12
0.40836058
22
-0.38809174
32
-0.03173344
13
0.48718566
23
-0.43102832
33
-0.03173344
0
3DFACE
5
B9
100
AcDbEntity
8
SHELLS
100
AcDbFace
10
0.41294228
20
-0.39552169
30
0.00000000
11
0.48890230
21
-0.39676271
31
0.00000000
12
0.50058450
22
-0.38959849
32
-0.03173344
13
0.40836058
23
-0.38809174
33
-0.03173344
0
3DFACE
5
B10
100
AcDbEntity
8
SHELLS
100
AcDbFace
10
0.48890230
20
-0.39676271
30
0.00000000
11
0.74256862
21
-0.45885105
31
0.00000000
12
0.73843998
22
-0.44781637
32
-0.03173344
13
0.50058450
23
-0.38959849
33
-0.03173344
0
3DFACE
5
B11
100
AcDbEntity
8
SHELLS
100
AcDbFace
10
0.74256862
20
-0.45885105
30
0.00000000
11
0.80186186
21
-0.49882808
31
0.00000000
12
0.80684908
22
-0.49393955
32
-0.03173344
13
0.73843998
23
-0.44781637
33
-0.03173344
0
3DFACE
5
B12
100
AcDbEntity
8
SHELLS
100
AcDbFace
10
0.80186186
20
-0.49882808
30
0.00000000
11
0.73249251
21
-0.50366444
31
0.00000000
12
0.72681474
22
-0.49951947
32
-0.03173344
13
0.80684908
23
-0.49393955
33
-0.03173344
0
3DFACE
5
B13
100
AcDbEntity
8
SHELLS
100
AcDbFace
10
0.73249251
20
-0.50366444
30
0.00000000
11
0.47786638
21
-0.43088630
31
0.00000000
12
0.48718566
22
-0.43102832
32
-0.03173344
13
0.72681474
23
-0.49951947
33
-0.03173344
0
3DFACE
5
B14
100
AcDbEntity
8
SHELLS
100
AcDbFace
10
0.15573383
20
-0.56512187
30
0.00000000
11
0.06893363
21
-0.52375234
31
0.00000000
12
0.06317492
22
-0.51395401
32
-0.03173344
13
0.16685051
23
-0.56336645
33
-0.03173344
0
3DFACE
5
B15
100
AcDbEntity
8
SHELLS
100
AcDbFace
10
0.06893363
20
-0.52375234
30
0.00000000
11
0.16514065
21
-0.54223495
31
0.00000000
12
0.17808618
22
-0.53602995
32
-0.03173344
13
0.06317492
23
-0.51395401
33
-0.03173344
0
3DFACE
5
B16
100
AcDbEntity
8
SHELLS
100
AcDbFace
10
0.16514065
20
-0.54223495
30
0.00000000
11
0.33856334
21
-0.59771588
31
0.00000000
12
0.33409019
22
-0.58593670
32
-0.03173344
13
0.17808618
23
-0.53602995
33
-0.03173344
0
3DFACE
5
B17
100
AcDbEntity
8
SHELLS
100
AcDbFace
10
0.33856334
20
-0.59771588
30
0.00000000
11
0.41928387
21
-0.63916939
31
0.00000000
12
0.42786588
22
-0.63409460
32
-0.03173344
13
0.33409019
23
-0.58593670
33
-0.03173344
0
3DFACE
5
B18
100
AcDbEntity
8
SHELLS
100
AcDbFace
10
0.41928387
20
-0.63916939
30
0.00000000
11
0.33132306
21
-0.62458732
31
0.00000000
12
0.32567892
22
-0.61715413
32
-0.03173344
13
0.42786588
23
-0.63409460
33
-0.03173344
0
3DFACE
5
B19
100
AcDbEntity
8
SHELLS
100
AcDbFace
10
0.33132306
20
-0.62458732
30
0.00000000
11
0.15573383
21
-0.56512187
31
0.00000000
12
0.16685051
22
-0.56336645
32
-0.03173344
13
0.32567892
23
-0.61715413
33
-0.03173344
0
3DFACE
5
B20
100
AcDbEntity
8
SHELLS
100
AcDbFace
10
-0.21282685
20
-0.38953405
30
0.00000000
11
-0.13574090
21
-0.39769763
31
0.00000000
12
-0.12703494
22
-0.40744655
32
-0.03173344
13
-0.22362295
23
-0.39721765
33
-0.03173344
0
3DFACE
5
B21
100
AcDbEntity
8
SHELLS
100
AcDbFace
10
-0.13574090
20
-0.39769763
30
0.00000000
11
-0.21422299
21
-0.41386584
31
0.00000000
12
-0.22537231
22
-0.42770518
32
-0.03173344
13
-0.12703494
23
-0.40744655
33
-0.03173344
0
3DFACE
5
B22
100
AcDbEntity
8
SHELLS
100
AcDbFace
10
-0.21422299
20
-0.41386584
30
0.00000000
11
-0.41287692
21
-0.42495452
31
0.00000000
12
-0.40072310
22
-0.43749420
32
-0.03173344
13
-0.22537231
23
-0.42770518
33
-0.03173344
0
3DFACE
5
B23
100
AcDbEntity
8
SHELLS
100
AcDbFace
10
-0.41287692
20
-0.42495452
30
0.00000000
11
-0.52400852
21
-0.41597932
31
0.00000000
12
-0.53495336
22
-0.42665350
32
-0.03173344
13
-0.40072310
23
-0.43749420
33
-0.03173344
0
3DFACE
5
B24
100
AcDbEntity
8
SHELLS
100
AcDbFace
10
-0.52400852
20
-0.41597932
30
0.00000000
11
-0.41701782
21
-0.39746694
31
0.00000000
12
-0.40572469
22
-0.40429333
32
-0.03173344
13
-0.53495336
23
-0.42665350
33
-0.03173344
0
3DFACE
5
B25
100
AcDbEntity
8
SHELLS
100
AcDbFace
10
-0.41701782
20
-0.39746694
30
0.00000000
11
-0.21282685
21
-0.38953405
31
0.00000000
12
-0.22362295
22
-0.39721765
32
-0.03173344
13
-0.40572469
23
-0.40429333
33
-0.03173344
0
3DFACE
5
B26
100
AcDbEntity
8
SHELLS
100
AcDbFace
10
-0.12385056
20
-0.34223673
30
0.00000000
11
-0.20241957
21
-0.32152595
31
0.00000000
12
-0.21058273
22
-0.31200412
32
-0.03173344
13
-0.11213646
23
-0.33795454
33
-0.03173344
0
3DFACE
5
B27
100
AcDbEntity
8
SHELLS
100
AcDbFace
10
-0.20241957
20
-0.32152595
30
0.00000000
11
-0.11884521
21
-0.31669477
31
0.00000000
12
-0.10586479
22
-0.30595068
32
-0.03173344
13
-0.21058273
23
-0.31200412
33
-0.03173344
0
3DFACE
5
B28
100
AcDbEntity
8
SHELLS
100
AcDbFace
10
-0.11884521
20
-0.31669477
30
0.00000000
11
0.09802068
21
-0.33883889
31
0.00000000
12
0.08940440
22
-0.32589146
32
-0.03173344
13
-0.10586479
23
-0.30595068
33
-0.03173344
0
3DFACE
5
B29
100
AcDbEntity
8
SHELLS
100
AcDbFace
10
0.09802068
20
-0.33883889
30
0.00000000
11
0.16612052
21
-0.35917434
31
0.00000000
12
0.17471082
22
-0.35136500
32
-0.03173344
13
0.08940440
23
-0.32589146
33
-0.03173344
0
3DFACE
5
B30
100
AcDbEntity
8
SHELLS
100
AcDbFace
10
0.16612052
20
-0.35917434
30
0.00000000
11
0.09736987
21
-0.36484933
31
0.00000000
12
0.08858916
22
-0.35847387
32
-0.03173344
13
0.17471082
23
-0.35136500
33
-0.03173344
0
3DFACE
5
B31
100
AcDbEntity
8
SHELLS
100
AcDbFace
10
0.09736987
20
-0.36484933
30
0.00000000
11
-0.12385056
21
-0.34223673
31
0.00000000
12
-0.11213646
22
-0.33795454
32
-0.03173344
13
0.08858916
23
-0.35847387
33
-0.03173344
0
3DFACE
5
B32
100
AcDbEntity
8
SHELLS
100
AcDbFace
10
0.92859965
20
-0.14408474
30
0.00000000
11
0.95926005
21
-0.17094620
31
0.00000000
12
0.95924114
22
-0.17648516
32
-0.03173344
13
0.92335534
23
-0.14504574
33
-0.03173344
0
3DFACE
5
B33
100
AcDbEntity
8
SHELLS
100
AcDbFace
10
0.95926005
20
-0.17094620
30
0.00000000
11
0.92530763
21
-0.19689499
31
0.00000000
12
0.91950226
22
-0.20685636
32
-0.03173344
13
0.95924114
23
-0.17648516
33
-0.03173344
0
3DFACE
5
B34
100
AcDbEntity
8
SHELLS
100
AcDbFace
10
0.92530763
20
-0.19689499
30
0.00000000
11
0.51234321
21
-0.17433843
31
0.00000000
12
0.52143268
22
-0.18511332
32
-0.03173344
13
0.91950226
23
-0.20685636
33
-0.03173344
0
3DFACE
5
B35
100
AcDbEntity
8
SHELLS
100
AcDbFace
10
0.51234321
20
-0.17433843
30
0.00000000
11
0.45306204
21
-0.15382815
31
0.00000000
12
0.44636529
22
-0.15914128
32
-0.03173344
13
0.52143268
23
-0.18511332
33
-0.03173344
0
3DFACE
5
B36
100
AcDbEntity
8
SHELLS
100
AcDbFace
10
0.45306204
20
-0.15382815
30
0.00000000
11
0.51179156
21
-0.13823264
31
0.00000000
12
0.52073412
22
-0.13939278
32
-0.03173344
13
0.44636529
23
-0.15914128
33
-0.03173344
0
3DFACE
5
B37
100
AcDbEntity
8
SHELLS
100
AcDbFace
10
0.51179156
20
-0.13823264
30
0.00000000
11
0.92859965
21
-0.14408474
31
0.00000000
12
0.92335534
22
-0.14504574
32
-0.03173344
13
0.52073412
23
-0.13939278
33
-0.03173344
0
3DFACE
5
B38
100
AcDbEntity
8
SHELLS
100
AcDbFace
10
0.41294228
20
-0.39552169
30
0.00000000
11
0.39307108
21
-0.44161319
31
0.00000000
12
0.38423472
22
-0.44405195
32
-0.03173344
13
0.40836058
23
-0.38809174
33
-0.03173344
0
3DFACE
5
B39
100
AcDbEntity
8
SHELLS
100
AcDbFace
10
0.39307108
20
-0.44161319
30
0.00000000
11
0.38968431
21
-0.39023337
31
0.00000000
12
0.38012281
22
-0.38167114
32
-0.03173344
13
0.38423472
23
-0.44405195
33
-0.03173344
0
3DFACE
5
B40
100
AcDbEntity
8
SHELLS
100
AcDbFace
10
0.38968431
20
-0.39023337
30
0.00000000
11
0.43324544
21
-0.15139544
31
0.00000000
12
0.42127165
22
-0.15606076
32
-0.03173344
13
0.38012281
23
-0.38167114
33
-0.03173344
0
3DFACE
5
B41
100
AcDbEntity
8
SHELLS
100
AcDbFace
10
0.43324544
20
-0.15139544
30
0.00000000
11
0.44870836
21
-0.12187985
31
0.00000000
12
0.44085226
22
-0.11868535
32
-0.03173344
13
0.42127165
23
-0.15606076
33
-0.03173344
0
3DFACE
5
B42
100
AcDbEntity
8
SHELLS
100
AcDbFace
10
0.44870836
20
-0.12187985
30
0.00000000
11
0.45306204
21
-0.15382815
31
0.00000000
12
0.44636529
22
-0.15914128
32
-0.03173344
13
0.44085226
23
-0.11868535
33
-0.03173344
0
3DFACE
5
B43
100
AcDbEntity
8
SHELLS
100
AcDbFace
10
0.45306204
20
-0.15382815
30
0.00000000
11
0.41294228
21
-0.39552169
31
0.00000000
12
0.40836058
22
-0.38809174
32
-0.03173344
13
0.44636529
23
-0.15914128
33
-0.03173344
0
3DFACE
5
B44
100
AcDbEntity
8
SHELLS
100
AcDbFace
10
0.46636223
20
0.11667571
30
0.00000000
11
0.47105141
21
0.15600148
31
0.00000000
12
0.47921924
22
0.16043661
32
-0.03173344
13
0.47329665
23
0.11076684
33
-0.03173344
0
3DFACE
5
B45
100
AcDbEntity
8
SHELLS
100
AcDbFace
10
0.47105141
20
0.15600148
30
0.00000000
11
0.48685417
21
0.11835541
31
0.00000000
12
0.49917865
22
0.11288836
32
-0.03173344
13
0.47921924
23
0.16043661
33
-0.03173344
0
3DFACE
5
B46
100
AcDbEntity
8
SHELLS
100
AcDbFace
10
0.48685417
20
0.11835541
30
0.00000000
11
0.51736647
21
-0.10279479
31
0.00000000
12
0.52779360
22
-0.09451805
32
-0.03173344
13
0.49917865
23
0.11288836
33
-0.03173344
0
3DFACE
5
B47
100
AcDbEntity
8
SHELLS
100
AcDbFace
10
0.51736647
20
-0.10279479
30
0.00000000
11
0.51179156
21
-0.13823264
31
0.00000000
12
0.52073412
22
-0.13939278
32
-0.03173344
13
0.52779360
23
-0.09451805
33
-0.03173344
0
3DFACE
5
B48
100
AcDbEntity
8
SHELLS
100
AcDbFace
10
0.51179156
20
-0.13823264
30
0.00000000
11
0.49738320
21
-0.10665323
31
0.00000000
12
0.50248891
22
-0.09940397
32
-0.03173344
13
0.52073412
23
-0.13939278
33
-0.03173344
0
3DFACE
5
B49
100
AcDbEntity
8
SHELLS
100
AcDbFace
10
0.49738320
20
-0.10665323
30
0.00000000
11
0.46636223
21
0.11667571
31
0.00000000
12
0.47329665
22
0.11076684
32
-0.03173344
13
0.50248891
23
-0.09940397
33
-0.03173344
0
3DFACE
5
B50
100
AcDbEntity
8
SHELLS
100
AcDbFace
10
0.40906628
20
0.15186707
30
0.00000000
11
0.41022097
21
0.12469852
31
0.00000000
12
0.40238835
22
0.12089992
32
-0.03173344
13
0.40092994
23
0.15521472
33
-0.03173344
0
3DFACE
5
B51
100
AcDbEntity
8
SHELLS
100
AcDbFace
10
0.41022097
20
0.12469852
30
0.00000000
11
0.39460382
21
0.14784925
31
0.00000000
12
0.38266335
22
0.15014008
32
-0.03173344
13
0.40238835
23
0.12089992
33
-0.03173344
0
3DFACE
5
B52
100
AcDbEntity
8
SHELLS
100
AcDbFace
10
0.39460382
20
0.14784925
30
0.00000000
11
0.33283858
21
0.33160464
31
0.00000000
12
0.32490572
22
0.32197195
32
-0.03173344
13
0.38266335
23
0.15014008
33
-0.03173344
0
3DFACE
5
B53
100
AcDbEntity
8
SHELLS
100
AcDbFace
10
0.33283858
20
0.33160464
30
0.00000000
11
0.32454329
21
0.38561194
31
0.00000000
12
0.31483877
22
0.38751380
32
-0.03173344
13
0.32490572
23
0.32197195
33
-0.03173344
0
3DFACE
5
B54
100
AcDbEntity
8
SHELLS
100
AcDbFace
10
0.32454329
20
0.38561194
30
0.00000000
11
0.34933663
21
0.33799788
31
0.00000000
12
0.34492732
22
0.32973062
32
-0.03173344
13
0.31483877
23
0.38751380
33
-0.03173344
0
3DFACE
5
B55
100
AcDbEntity
8
SHELLS
100
AcDbFace
10
0.34933663
20
0.33799788
30
0.00000000
11
0.40906628
21
0.15186707
31
0.00000000
12
0.40092994
22
0.15521472
32
-0.03173344
13
0.34492732
23
0.32973062
33
-0.03173344
0
3DFACE
5
B56
100
AcDbEntity
8
SHELLS
100
AcDbFace
10
0.13218291
20
0.28830473
30
0.00000000
11
0.13703872
21
0.34628890
31
0.00000000
12
0.14659268
22
0.35223009
32
-0.03173344
13
0.14054228
23
0.27998106
33
-0.03173344
0
3DFACE
5
B57
100
AcDbEntity
8
SHELLS
100
AcDbFace
10
0.13703872
20
0.34628890
30
0.00000000
11
0.15114232
21
0.28819150
31
0.00000000
12
0.16416595
22
0.27983998
32
-0.03173344
13
0.14659268
23
0.35223009
33
-0.03173344
0
3DFACE
5
B58
100
AcDbEntity
8
SHELLS
100
AcDbFace
10
0.15114232
20
0.28819150
30
0.00000000
11
0.16161344
21
0.13067748
31
0.00000000
12
0.17343205
22
0.14044037
32
-0.03173344
13
0.16416595
23
0.27983998
33
-0.03173344
0
3DFACE
5
B59
100
AcDbEntity
8
SHELLS
100
AcDbFace
10
0.16161344
20
0.13067748
30
0.00000000
11
0.15624665
21
0.09434620
31
0.00000000
12
0.16637903
22
0.09269397
32
-0.03173344
13
0.17343205
23
0.14044037
33
-0.03173344
0
3DFACE
5
B60
100
AcDbEntity
8
SHELLS
100
AcDbFace
10
0.15624665
20
0.09434620
30
0.00000000
11
0.14588304
21
0.12823846
31
0.00000000
12
0.15275923
22
0.13723504
32
-0.03173344
13
0.16637903
23
0.09269397
33
-0.03173344
0
3DFACE
5
B61
100
AcDbEntity
8
SHELLS
100
AcDbFace
10
0.14588304
20
0.12823846
30
0.00000000
11
0.13218291
21
0.28830473
31
0.00000000
12
0.14054228
22
0.27998106
32
-0.03173344
13
0.15275923
23
0.13723504
33
-0.03173344
0
3DFACE
5
B62
100
AcDbEntity
8
SHELLS
100
AcDbFace
10
-0.81619772
20
0.14100903
30
0.00000000
11
-0.88266149
21
0.17392828
31
0.00000000
12
-0.88560636
22
0.18195462
32
-0.03173344
13
-0.80837264
23
0.14370105
33
-0.03173344
0
3DFACE
5
B63
100
AcDbEntity
8
SHELLS
100
AcDbFace
10
-0.88266149
20
0.17392828
30
0.00000000
11
-0.80687464
21
0.18731177
31
0.00000000
12
-0.79753882
22
0.19750680
32
-0.03173344
13
-0.88560636
23
0.18195462
33
-0.03173344
0
3DFACE
5
B64
100
AcDbEntity
8
SHELLS
100
AcDbFace
10
-0.80687464
20
0.18731177
30
0.00000000
11
-0.52943452
21
0.14059645
31
0.00000000
12
-0.53971009
22
0.15409297
32
-0.03173344
13
-0.79753882
23
0.19750680
33
-0.03173344
0
3DFACE
5
B65
100
AcDbEntity
8
SHELLS
100
AcDbFace
10
-0.52943452
20
0.14059645
30
0.00000000
11
-0.44979037
21
0.11054986
31
0.00000000
12
-0.44101925
22
0.11686081
32
-0.03173344
13
-0.53971009
23
0.15409297
33
-0.03173344
0
3DFACE
5
B66
100
AcDbEntity
8
SHELLS
100
AcDbFace
10
-0.44979037
20
0.11054986
30
0.00000000
11
-0.53164753
21
0.10521429
31
0.00000000
12
-0.54245234
22
0.11024925
32
-0.03173344
13
-0.44101925
23
0.11686081
33
-0.03173344
0
3DFACE
5
B67
100
AcDbEntity
8
SHELLS
100
AcDbFace
10
-0.53164753
20
0.10521429
30
0.00000000
11
-0.81619772
21
0.14100903
31
0.00000000
12
-0.80837264
22
0.14370105
32
-0.03173344
13
-0.54245234
23
0.11024925
33
-0.03173344
0
3DFACE
5
B68
100
AcDbEntity
8
SHELLS
100
AcDbFace
10
-0.52654882
20
-0.11627095
30
0.00000000
11
-0.53873559
21
-0.16934253
31
0.00000000
12
-0.54978432
22
-0.17375589
32
-0.03173344
13
-0.53466739
23
-0.10792391
33
-0.03173344
0
3DFACE
5
B69
100
AcDbEntity
8
SHELLS
100
AcDbFace
10
-0.53873559
20
-0.16934253
30
0.00000000
11
-0.54869571
21
-0.11390080
31
0.00000000
12
-0.56213923
22
-0.10498388
32
-0.03173344
13
-0.54978432
23
-0.17375589
33
-0.03173344
0
3DFACE
5
B70
100
AcDbEntity
8
SHELLS
100
AcDbFace
10
-0.54869571
20
-0.11390080
30
0.00000000
11
-0.54445486
21
0.05186407
31
0.00000000
12
-0.55832251
22
0.04414046
32
-0.03173344
13
-0.56213923
23
-0.10498388
33
-0.03173344
0
3DFACE
5
B71
100
AcDbEntity
8
SHELLS
100
AcDbFace
10
-0.54445486
20
0.05186407
30
0.00000000
11
-0.53164753
21
0.10521429
31
0.00000000
12
-0.54245234
22
0.11024925
32
-0.03173344
13
-0.55832251
23
0.04414046
33
-0.03173344
0
3DFACE
5
B72
100
AcDbEntity
8
SHELLS
100
AcDbFace
10
-0.53164753
20
0.10521429
30
0.00000000
11
-0.52213291
21
0.05299016
31
0.00000000
12
-0.53066232
22
0.04553585
32
-0.03173344
13
-0.54245234
23
0.11024925
33
-0.03173344
0
3DFACE
5
B73
100
AcDbEntity
8
SHELLS
100
AcDbFace
10
-0.52213291
20
0.05299016
30
0.00000000
11
-0.52654882
21
-0.11627095
31
0.00000000
12
-0.53466739
22
-0.10792391
32
-0.03173344
13
-0.53066232
23
0.04553585
33
-0.03173344
0
3DFACE
5
B74
100
AcDbEntity
8
SHELLS
100
AcDbFace
10
-0.42899269
20
0.25815524
30
0.00000000
11
-0.40632436
21
0.33702242
31
0.00000000
12
-0.39522609
22
0.34331427
32
-0.03173344
13
-0.42246555
23
0.24854333
33
-0.03173344
0
3DFACE
5
B75
100
AcDbEntity
8
SHELLS
100
AcDbFace
10
-0.40632436
20
0.33702242
30
0.00000000
11
-0.40743457
21
0.25318175
31
0.00000000
12
-0.39656018
22
0.24256692
32
-0.03173344
13
-0.39522609
23
0.34331427
33
-0.03173344
0
3DFACE
5
B76
100
AcDbEntity
8
SHELLS
100
AcDbFace
10
-0.40743457
20
0.25318175
30
0.00000000
11
-0.43010618
21
0.10900871
31
0.00000000
12
-0.41662763
22
0.11495110
32
-0.03173344
13
-0.39656018
23
0.24256692
33
-0.03173344
0
3DFACE
5
B77
100
AcDbEntity
8
SHELLS
100
AcDbFace
10
-0.43010618
20
0.10900871
30
0.00000000
11
-0.44648619
21
0.06730114
31
0.00000000
12
-0.43692488
22
0.06326927
32
-0.03173344
13
-0.41662763
23
0.11495110
33
-0.03173344
0
3DFACE
5
B78
100
AcDbEntity
8
SHELLS
100
AcDbFace
10
-0.44648619
20
0.06730114
30
0.00000000
11
-0.44979037
21
0.11054986
31
0.00000000
12
-0.44101925
22
0.11686081
32
-0.03173344
13
-0.43692488
23
0.06326927
33
-0.03173344
0
3DFACE
5
B79
100
AcDbEntity
8
SHELLS
100
AcDbFace
10
-0.44979037
20
0.11054986
30
0.00000000
11
-0.42899269
21
0.25815524
31
0.00000000
12
-0.42246555
22
0.24854333
32
-0.03173344
13
-0.44101925
23
0.11686081
33
-0.03173344
0
3DFACE
5
B80
100
AcDbEntity
8
SHELLS
100
AcDbFace
10
-0.40632436
20
0.33702242
30
0.00000000
11
-0.50902589
21
0.35730686
31
0.00000000
12
-0.51863763
22
0.36768911
32
-0.03173344
13
-0.39522609
23
0.34331427
33
-0.03173344
0
3DFACE
5
B81
100
AcDbEntity
8
SHELLS
100
AcDbFace
10
-0.50902589
20
0.35730686
30
0.00000000
11
-0.40196494
21
0.36257046
31
0.00000000
12
-0.38998758
22
0.37401413
32
-0.03173344
13
-0.51863763
23
0.36768911
33
-0.03173344
0
3DFACE
5
B82
100
AcDbEntity
8
SHELLS
100
AcDbFace
10
-0.40196494
20
0.36257046
30
0.00000000
11
-0.24187866
21
0.34938085
31
0.00000000
12
-0.25476991
22
0.36287400
32
-0.03173344
13
-0.38998758
23
0.37401413
33
-0.03173344
0
3DFACE
5
B83
100
AcDbEntity
8
SHELLS
100
AcDbFace
10
-0.24187866
20
0.34938085
30
0.00000000
11
-0.14136871
21
0.32995114
31
0.00000000
12
-0.13014930
22
0.33878344
32
-0.03173344
13
-0.25476991
23
0.36287400
33
-0.03173344
0
3DFACE
5
B84
100
AcDbEntity
8
SHELLS
100
AcDbFace
10
-0.14136871
20
0.32995114
30
0.00000000
11
-0.24085599
21
0.32597269
31
0.00000000
12
-0.25350192
22
0.33385062
32
-0.03173344
13
-0.13014930
23
0.33878344
33
-0.03173344
0
3DFACE
5
B85
100
AcDbEntity
8
SHELLS
100
AcDbFace
10
-0.24085599
20
0.32597269
30
0.00000000
11
-0.40632436
21
0.33702242
31
0.00000000
12
-0.39522609
22
0.34331427
32
-0.03173344
13
-0.25350192
23
0.33385062
33
-0.03173344
0
3DFACE
5
B86
100
AcDbEntity
8
SHELLS
100
AcDbFace
10
-0.89858068
20
0.55350771
30
0.00000000
11
-0.99137972
21
0.64949043
31
0.00000000
12
-0.99261146
22
0.65963508
32
-0.03173344
13
-0.88965544
23
0.55314692
33
-0.03173344
0
3DFACE
5
B87
100
AcDbEntity
8
SHELLS
100
AcDbFace
10
-0.99137972
20
0.64949043
30
0.00000000
11
-0.87209806
21
0.58483072
31
0.00000000
12
-0.86027426
22
0.58789829
32
-0.03173344
13
-0.99261146
23
0.65963508
33
-0.03173344
0
3DFACE
5
B88
100
AcDbEntity
8
SHELLS
100
AcDbFace
10
-0.87209806
20
0.58483072
30
0.00000000
11
-0.72747902
21
0.47006929
31
0.00000000
12
-0.72915891
22
0.48385517
32
-0.03173344
13
-0.86027426
23
0.58789829
33
-0.03173344
0
3DFACE
5
B89
100
AcDbEntity
8
SHELLS
100
AcDbFace
10
-0.72747902
20
0.47006929
30
0.00000000
11
-0.64559424
21
0.38631189
31
0.00000000
12
-0.63466692
22
0.38720224
32
-0.03173344
13
-0.72915891
23
0.48385517
33
-0.03173344
0
3DFACE
5
B90
100
AcDbEntity
8
SHELLS
100
AcDbFace
10
-0.64559424
20
0.38631189
30
0.00000000
11
-0.74602487
21
0.44206576
31
0.00000000
12
-0.75056013
22
0.45154014
32
-0.03173344
13
-0.63466692
23
0.38720224
33
-0.03173344
0
3DFACE
5
B91
100
AcDbEntity
8
SHELLS
100
AcDbFace
10
-0.74602487
20
0.44206576
30
0.00000000
11
-0.89858068
21
0.55350771
31
0.00000000
12
-0.88965544
22
0.55314692
32
-0.03173344
13
-0.75056013
23
0.45154014
33
-0.03173344
0
3DFACE
5
B92
100
AcDbEntity
8
SHELLS
100
AcDbFace
10
-1.14608452
20
-0.29424138
30
0.00000000
11
-1.15712719
21
-0.24389632
31
0.00000000
12
-1.14873717
22
-0.23906992
32
-0.03173344
13
-1.13650476
23
-0.29483917
33
-0.03173344
0
3DFACE
5
B93
100
AcDbEntity
8
SHELLS
100
AcDbFace
10
-1.15712719
20
-0.24389632
30
0.00000000
11
-1.12284237
21
-0.28387903
31
0.00000000
12
-1.11075850
22
-0.28336037
32
-0.03173344
13
-1.14873717
23
-0.23906992
33
-0.03173344
0
3DFACE
5
B94
100
AcDbEntity
8
SHELLS
100
AcDbFace
10
-1.12284237
20
-0.28387903
30
0.00000000
11
-1.01177731
21
-0.50652419
31
0.00000000
12
-1.00407871
22
-0.49721940
32
-0.03173344
13
-1.11075850
23
-0.28336037
33
-0.03173344
0
3DFACE
5
B95
100
AcDbEntity
8
SHELLS
100
AcDbFace
10
-1.01177731
20
-0.50652419
30
0.00000000
11
-0.99165446
21
-0.57618274
31
0.00000000
12
-0.98182795
22
-0.57424407
32
-0.03173344
13
-1.00407871
23
-0.49721940
33
-0.03173344
0
3DFACE
5
B96
100
AcDbEntity
8
SHELLS
100
AcDbFace
10
-0.99165446
20
-0.57618274
30
0.00000000
11
-1.03436061
21
-0.51899444
31
0.00000000
12
-1.02905011
22
-0.51100834
32
-0.03173344
13
-0.98182795
23
-0.57424407
33
-0.03173344
0
3DFACE
5
B97
100
AcDbEntity
8
SHELLS
100
AcDbFace
10
-1.03436061
20
-0.51899444
30
0.00000000
11
-1.14608452
21
-0.29424138
31
0.00000000
12
-1.13650476
22
-0.29483917
32
-0.03173344
13
-1.02905011
23
-0.51100834
33
-0.03173344
0
3DFACE
5
B98
100
AcDbEntity
8
SHELLS
100
AcDbFace
10
-0.82000321
20
-0.49173270
30
0.00000000
11
-0.70264401
21
-0.45582574
31
0.00000000
12
-0.69297996
22
-0.45728677
32
-0.03173344
13
-0.82817644
23
-0.49865119
33
-0.03173344
0
3DFACE
5
B99
100
AcDbEntity
8
SHELLS
100
AcDbFace
10
-0.70264401
20
-0.45582574
30
0.00000000
11
-0.80086811
21
-0.53410498
31
0.00000000
12
-0.80613302
22
-0.54746357
32
-0.03173344
13
-0.69297996
23
-0.45728677
33
-0.03173344
0
3DFACE
5
B100
100
AcDbEntity
8
SHELLS
100
AcDbFace
10
-0.80086811
20
-0.53410498
30
0.00000000
11
-0.96271837
21
-0.62472247
31
0.00000000
12
-0.94983198
22
-0.62791669
32
-0.03173344
13
-0.80613302
23
-0.54746357
33
-0.03173344
0
3DFACE
5
B101
100
AcDbEntity
8
SHELLS
100
AcDbFace
10
-0.96271837
20
-0.62472247
30
0.00000000
11
-1.15212509
21
-0.69175631
31
0.00000000
12
-1.15926771
22
-0.70203909
32
-0.03173344
13
-0.94983198
23
-0.62791669
33
-0.03173344
0
3DFACE
5
B102
100
AcDbEntity
8
SHELLS
100
AcDbFace
10
-1.15212509
20
-0.69175631
30
0.00000000
11
-0.99165446
21
-0.57618274
31
0.00000000
12
-0.98182795
22
-0.57424407
32
-0.03173344
13
-1.15926771
23
-0.70203909
33
-0.03173344
0
3DFACE
5
B103
100
AcDbEntity
8
SHELLS
100
AcDbFace
10
-0.99165446
20
-0.57618274
30
0.00000000
11
-0.82000321
21
-0.49173270
31
0.00000000
12
-0.82817644
22
-0.49865119
32
-0.03173344
13
-0.98182795
23
-0.57424407
33
-0.03173344
0
3DFACE
5
B104
100
AcDbEntity
8
SHELLS
100
AcDbFace
10
-1.15712719
20
-0.24389632
30
0.00000000
11
-1.33400147
21
-0.25037939
31
0.00000000
12
-1.34466790
22
-0.24625148
32
-0.03173344
13
-1.14873717
23
-0.23906992
33
-0.03173344
0
3DFACE
5
B105
100
AcDbEntity
8
SHELLS
100
AcDbFace
10
-1.33400147
20
-0.25037939
30
0.00000000
11
-1.16945242
21
-0.17404874
31
0.00000000
12
-1.16239032
22
-0.16169696
32
-0.03173344
13
-1.34466790
23
-0.24625148
33
-0.03173344
0
3DFACE
5
B106
100
AcDbEntity
8
SHELLS
100
AcDbFace
10
-1.16945242
20
-0.17404874
30
0.00000000
11
-0.90751834
21
-0.12111492
31
0.00000000
12
-0.91980996
22
-0.11267272
32
-0.03173344
13
-1.16239032
23
-0.16169696
33
-0.03173344
0
3DFACE
5
B107
100
AcDbEntity
8
SHELLS
100
AcDbFace
10
-0.90751834
20
-0.12111492
30
0.00000000
11
-0.80935710
21
-0.12573311
31
0.00000000
12
-0.80513459
22
-0.11806785
32
-0.03173344
13
-0.91980996
23
-0.11267272
33
-0.03173344
0
3DFACE
5
B108
100
AcDbEntity
8
SHELLS
100
AcDbFace
10
-0.80935710
20
-0.12573311
30
0.00000000
11
-0.89219223
21
-0.17185839
31
0.00000000
12
-0.90190547
22
-0.17195300
32
-0.03173344
13
-0.80513459
23
-0.11806785
33
-0.03173344
0
3DFACE
5
B109
100
AcDbEntity
8
SHELLS
100
AcDbFace
10
-0.89219223
20
-0.17185839
30
0.00000000
11
-1.15712719
21
-0.24389632
31
0.00000000
12
-1.14873717
22
-0.23906992
32
-0.03173344
13
-0.90190547
23
-0.17195300
33
-0.03173344
0
3DFACE
5
B110
100
AcDbEntity
8
SHELLS
100
AcDbFace
10
-0.83011369
20
0.08664953
30
0.00000000
11
-0.81619772
21
0.14100903
31
0.00000000
12
-0.80837264
22
0.14370105
32
-0.03173344
13
-0.82454359
23
0.08053300
33
-0.03173344
0
3DFACE
5
B111
100
AcDbEntity
8
SHELLS
100
AcDbFace
10
-0.81619772
20
0.14100903
30
0.00000000
11
-0.79115286
21
0.08837506
31
0.00000000
12
-0.77926945
22
0.08253814
32
-0.03173344
13
-0.80837264
23
0.14370105
33
-0.03173344
0
3DFACE
5
B112
100
AcDbEntity
8
SHELLS
100
AcDbFace
10
-0.79115286
20
0.08837506
30
0.00000000
11
-0.77180450
21
-0.12003526
31
0.00000000
12
-0.76126435
22
-0.11141143
32
-0.03173344
13
-0.77926945
23
0.08253814
33
-0.03173344
0
3DFACE
5
B113
100
AcDbEntity
8
SHELLS
100
AcDbFace
10
-0.77180450
20
-0.12003526
30
0.00000000
11
-0.78477649
21
-0.18853372
31
0.00000000
12
-0.77641867
22
-0.19143371
32
-0.03173344
13
-0.76126435
23
-0.11141143
33
-0.03173344
0
3DFACE
5
B114
100
AcDbEntity
8
SHELLS
100
AcDbFace
10
-0.78477649
20
-0.18853372
30
0.00000000
11
-0.80935710
21
-0.12573311
31
0.00000000
12
-0.80513459
22
-0.11806785
32
-0.03173344
13
-0.77641867
23
-0.19143371
33
-0.03173344
0
3DFACE
5
B115
100
AcDbEntity
8
SHELLS
100
AcDbFace
10
-0.80935710
20
-0.12573311
30
0.00000000
11
-0.83011369
21
0.08664953
31
0.00000000
12
-0.82454359
22
0.08053300
32
-0.03173344
13
-0.80513459
23
-0.11806785
33
-0.03173344
0
3DFACE
5
B116
100
AcDbEntity
8
SHELLS
100
AcDbFace
10
-0.53873559
20
-0.16934253
30
0.00000000
11
-0.45614838
21
-0.17816978
31
0.00000000
12
-0.44734004
22
-0.18470555
32
-0.03173344
13
-0.54978432
23
-0.17375589
33
-0.03173344
0
3DFACE
5
B117
100
AcDbEntity
8
SHELLS
100
AcDbFace
10
-0.45614838
20
-0.17816978
30
0.00000000
11
-0.53816547
21
-0.20415300
31
0.00000000
12
-0.54907712
22
-0.21693611
32
-0.03173344
13
-0.44734004
23
-0.18470555
33
-0.03173344
0
3DFACE
5
B118
100
AcDbEntity
8
SHELLS
100
AcDbFace
10
-0.53816547
20
-0.20415300
30
0.00000000
11
-0.77786594
21
-0.23277835
31
0.00000000
12
-0.76834553
22
-0.24312182
32
-0.03173344
13
-0.54907712
23
-0.21693611
33
-0.03173344
0
3DFACE
5
B119
100
AcDbEntity
8
SHELLS
100
AcDbFace
10
-0.77786594
20
-0.23277835
30
0.00000000
11
-0.86780681
21
-0.21855296
31
0.00000000
12
-0.87341757
22
-0.22650322
32
-0.03173344
13
-0.76834553
23
-0.24312182
33
-0.03173344
0
3DFACE
5
B120
100
AcDbEntity
8
SHELLS
100
AcDbFace
10
-0.86780681
20
-0.21855296
30
0.00000000
11
-0.78477649
21
-0.18853372
31
0.00000000
12
-0.77641867
22
-0.19143371
32
-0.03173344
13
-0.87341757
23
-0.22650322
33
-0.03173344
0
3DFACE
5
B121
100
AcDbEntity
8
SHELLS
100
AcDbFace
10
-0.78477649
20
-0.18853372
30
0.00000000
11
-0.53873559
21
-0.16934253
31
0.00000000
12
-0.54978432
22
-0.17375589
32
-0.03173344
13
-0.77641867
23
-0.19143371
33
-0.03173344
0
3DFACE
5
B122
100
AcDbEntity
8
SHELLS
100
AcDbFace
10
-0.71929914
20
-0.40159284
30
0.00000000
11
-0.82430379
21
-0.40690077
31
0.00000000
12
-0.83313066
22
-0.40092575
32
-0.03173344
13
-0.71216648
23
-0.39481107
33
-0.03173344
0
3DFACE
5
B123
100
AcDbEntity
8
SHELLS
100
AcDbFace
10
-0.82430379
20
-0.40690077
30
0.00000000
11
-0.72531583
21
-0.36475614
31
0.00000000
12
-0.71909764
22
-0.35237561
32
-0.03173344
13
-0.83313066
23
-0.40092575
33
-0.03173344
0
3DFACE
5
B124
100
AcDbEntity
8
SHELLS
100
AcDbFace
10
-0.72531583
20
-0.36475614
30
0.00000000
11
-0.54921187
21
-0.32772289
31
0.00000000
12
-0.56539522
22
-0.32005300
32
-0.03173344
13
-0.71909764
23
-0.35237561
33
-0.03173344
0
3DFACE
5
B125
100
AcDbEntity
8
SHELLS
100
AcDbFace
10
-0.54921187
20
-0.32772289
30
0.00000000
11
-0.43862188
21
-0.31867535
31
0.00000000
12
-0.43181914
22
-0.30912494
32
-0.03173344
13
-0.56539522
23
-0.32005300
33
-0.03173344
0
3DFACE
5
B126
100
AcDbEntity
8
SHELLS
100
AcDbFace
10
-0.43862188
20
-0.31867535
30
0.00000000
11
-0.53928412
21
-0.35720652
31
0.00000000
12
-0.55340399
22
-0.35566480
32
-0.03173344
13
-0.43181914
23
-0.30912494
33
-0.03173344
0
3DFACE
5
B127
100
AcDbEntity
8
SHELLS
100
AcDbFace
10
-0.53928412
20
-0.35720652
30
0.00000000
11
-0.71929914
21
-0.40159284
31
0.00000000
12
-0.71216648
22
-0.39481107
32
-0.03173344
13
-0.55340399
23
-0.35566480
33
-0.03173344
0
3DFACE
5
B128
100
AcDbEntity
8
SHELLS
100
AcDbFace
10
-0.82430379
20
-0.40690077
30
0.00000000
11
-0.82000321
21
-0.49173270
31
0.00000000
12
-0.82817644
22
-0.49865119
32
-0.03173344
13
-0.83313066
23
-0.40092575
33
-0.03173344
0
3DFACE
5
B129
100
AcDbEntity
8
SHELLS
100
AcDbFace
10
-0.82000321
20
-0.49173270
30
0.00000000
11
-0.85355644
21
-0.41142673
31
0.00000000
12
-0.86682939
22
-0.40613961
32
-0.03173344
13
-0.82817644
23
-0.49865119
33
-0.03173344
0
3DFACE
5
B130
100
AcDbEntity
8
SHELLS
100
AcDbFace
10
-0.85355644
20
-0.41142673
30
0.00000000
11
-0.89434966
21
-0.22616991
31
0.00000000
12
-0.90442585
22
-0.23540161
32
-0.03173344
13
-0.86682939
23
-0.40613961
33
-0.03173344
0
3DFACE
5
B131
100
AcDbEntity
8
SHELLS
100
AcDbFace
10
-0.89434966
20
-0.22616991
30
0.00000000
11
-0.89219223
21
-0.17185839
31
0.00000000
12
-0.90190547
22
-0.17195300
32
-0.03173344
13
-0.90442585
23
-0.23540161
33
-0.03173344
0
3DFACE
5
B132
100
AcDbEntity
8
SHELLS
100
AcDbFace
10
-0.89219223
20
-0.17185839
30
0.00000000
11
-0.86780681
21
-0.21855296
31
0.00000000
12
-0.87341757
22
-0.22650322
32
-0.03173344
13
-0.90190547
23
-0.17195300
33
-0.03173344
0
3DFACE
5
B133
100
AcDbEntity
8
SHELLS
100
AcDbFace
10
-0.86780681
20
-0.21855296
30
0.00000000
11
-0.82430379
21
-0.40690077
31
0.00000000
12
-0.83313066
22
-0.40092575
32
-0.03173344
13
-0.87341757
23
-0.22650322
33
-0.03173344
0
3DFACE
5
B134
100
AcDbEntity
8
SHELLS
100
AcDbFace
10
-0.45614838
20
-0.17816978
30
0.00000000
11
-0.45211340
21
-0.13169008
31
0.00000000
12
-0.44233490
22
-0.12705037
32
-0.03173344
13
-0.44734004
23
-0.18470555
33
-0.03173344
0
3DFACE
5
B135
100
AcDbEntity
8
SHELLS
100
AcDbFace
10
-0.45211340
20
-0.13169008
30
0.00000000
11
-0.43548793
21
-0.17694640
31
0.00000000
12
-0.42171204
22
-0.18318802
32
-0.03173344
13
-0.44233490
23
-0.12705037
33
-0.03173344
0
3DFACE
5
B136
100
AcDbEntity
8
SHELLS
100
AcDbFace
10
-0.43548793
20
-0.17694640
30
0.00000000
11
-0.41635449
21
-0.31387745
31
0.00000000
12
-0.40492349
22
-0.30332980
32
-0.03173344
13
-0.42171204
23
-0.18318802
33
-0.03173344
0
3DFACE
5
B137
100
AcDbEntity
8
SHELLS
100
AcDbFace
10
-0.41635449
20
-0.31387745
30
0.00000000
11
-0.41701782
21
-0.39746694
31
0.00000000
12
-0.40572469
22
-0.40429333
32
-0.03173344
13
-0.40492349
23
-0.30332980
33
-0.03173344
0
3DFACE
5
B138
100
AcDbEntity
8
SHELLS
100
AcDbFace
10
-0.41701782
20
-0.39746694
30
0.00000000
11
-0.43862188
21
-0.31867535
31
0.00000000
12
-0.43181914
22
-0.30912494
32
-0.03173344
13
-0.40572469
23
-0.40429333
33
-0.03173344
0
3DFACE
5
B139
100
AcDbEntity
8
SHELLS
100
AcDbFace
10
-0.43862188
20
-0.31867535
30
0.00000000
11
-0.45614838
21
-0.17816978
31
0.00000000
12
-0.44734004
22
-0.18470555
32
-0.03173344
13
-0.43181914
23
-0.30912494
33
-0.03173344
0
3DFACE
5
B140
100
AcDbEntity
8
SHELLS
100
AcDbFace
10
-0.45211340
20
-0.13169008
30
0.00000000
11
-0.52654882
21
-0.11627095
31
0.00000000
12
-0.53466739
22
-0.10792391
32
-0.03173344
13
-0.44233490
23
-0.12705037
33
-0.03173344
0
3DFACE
5
B141
100
AcDbEntity
8
SHELLS
100
AcDbFace
10
-0.52654882
20
-0.11627095
30
0.00000000
11
-0.44949370
21
-0.10146671
31
0.00000000
12
-0.43908532
22
-0.08956017
32
-0.03173344
13
-0.53466739
23
-0.10792391
33
-0.03173344
0
3DFACE
5
B142
100
AcDbEntity
8
SHELLS
100
AcDbFace
10
-0.44949370
20
-0.10146671
30
0.00000000
11
-0.21411550
21
-0.10631941
31
0.00000000
12
-0.22546791
22
-0.09396539
32
-0.03173344
13
-0.43908532
23
-0.08956017
33
-0.03173344
0
3DFACE
5
B143
100
AcDbEntity
8
SHELLS
100
AcDbFace
10
-0.21411550
20
-0.10631941
30
0.00000000
11
-0.15133933
21
-0.11990306
31
0.00000000
12
-0.14345792
22
-0.11171090
32
-0.03173344
13
-0.22546791
23
-0.09396539
33
-0.03173344
0
3DFACE
5
B144
100
AcDbEntity
8
SHELLS
100
AcDbFace
10
-0.15133933
20
-0.11990306
30
0.00000000
11
-0.21220259
21
-0.13154232
31
0.00000000
12
-0.22296891
22
-0.12691628
32
-0.03173344
13
-0.14345792
23
-0.11171090
33
-0.03173344
0
3DFACE
5
B145
100
AcDbEntity
8
SHELLS
100
AcDbFace
10
-0.21220259
20
-0.13154232
30
0.00000000
11
-0.45211340
21
-0.13169008
31
0.00000000
12
-0.44233490
22
-0.12705037
32
-0.03173344
13
-0.22296891
23
-0.12691628
33
-0.03173344
0
3DFACE
5
B146
100
AcDbEntity
8
SHELLS
100
AcDbFace
10
-0.15425835
20
0.04852846
30
0.00000000
11
-0.14635722
21
0.09200377
31
0.00000000
12
-0.13581680
22
0.09746648
32
-0.03173344
13
-0.14610231
23
0.04087129
33
-0.03173344
0
3DFACE
5
B147
100
AcDbEntity
8
SHELLS
100
AcDbFace
10
-0.14635722
20
0.09200377
30
0.00000000
11
-0.13653434
21
0.04748238
31
0.00000000
12
-0.12302959
22
0.03950952
32
-0.03173344
13
-0.13581680
23
0.09746648
33
-0.03173344
0
3DFACE
5
B148
100
AcDbEntity
8
SHELLS
100
AcDbFace
10
-0.13653434
20
0.04748238
30
0.00000000
11
-0.13386282
21
-0.11823752
31
0.00000000
12
-0.12062684
22
-0.10953505
32
-0.03173344
13
-0.12302959
23
0.03950952
33
-0.03173344
0
3DFACE
5
B149
100
AcDbEntity
8
SHELLS
100
AcDbFace
10
-0.13386282
20
-0.11823752
30
0.00000000
11
-0.14211958
21
-0.16112878
31
0.00000000
12
-0.13141337
22
-0.16556765
32
-0.03173344
13
-0.12062684
23
-0.10953505
33
-0.03173344
0
3DFACE
5
B150
100
AcDbEntity
8
SHELLS
100
AcDbFace
10
-0.14211958
20
-0.16112878
30
0.00000000
11
-0.15133933
21
-0.11990306
31
0.00000000
12
-0.14345792
22
-0.11171090
32
-0.03173344
13
-0.13141337
23
-0.16556765
33
-0.03173344
0
3DFACE
5
B151
100
AcDbEntity
8
SHELLS
100
AcDbFace
10
-0.15133933
20
-0.11990306
30
0.00000000
11
-0.15425835
21
0.04852846
31
0.00000000
12
-0.14610231
22
0.04087129
32
-0.03173344
13
-0.14345792
23
-0.11171090
33
-0.03173344
0
3DFACE
5
B152
100
AcDbEntity
8
SHELLS
100
AcDbFace
10
0.11433860
20
-0.15086225
30
0.00000000
11
0.17135263
21
-0.15991936
31
0.00000000
12
0.17952468
22
-0.16809197
32
-0.03173344
13
0.10424897
23
-0.15613385
33
-0.03173344
0
3DFACE
5
B153
100
AcDbEntity
8
SHELLS
100
AcDbFace
10
0.17135263
20
-0.15991936
30
0.00000000
11
0.11335212
21
-0.17446445
31
0.00000000
12
0.10294653
22
-0.18729587
32
-0.03173344
13
0.17952468
23
-0.16809197
33
-0.03173344
0
3DFACE
5
B154
100
AcDbEntity
8
SHELLS
100
AcDbFace
10
0.11335212
20
-0.17446445
30
0.00000000
11
-0.13902838
21
-0.18540022
31
0.00000000
12
-0.12737506
22
-0.19727555
32
-0.03173344
13
0.10294653
23
-0.18729587
33
-0.03173344
0
3DFACE
5
B155
100
AcDbEntity
8
SHELLS
100
AcDbFace
10
-0.13902838
20
-0.18540022
30
0.00000000
11
-0.20332600
21
-0.17551907
31
0.00000000
12
-0.21137265
22
-0.18436693
32
-0.03173344
13
-0.12737506
23
-0.19727555
33
-0.03173344
0
3DFACE
5
B156
100
AcDbEntity
8
SHELLS
100
AcDbFace
10
-0.20332600
20
-0.17551907
30
0.00000000
11
-0.14211958
21
-0.16112878
31
0.00000000
12
-0.13141337
22
-0.16556765
32
-0.03173344
13
-0.21137265
23
-0.18436693
33
-0.03173344
0
3DFACE
5
B157
100
AcDbEntity
8
SHELLS
100
AcDbFace
10
-0.14211958
20
-0.16112878
30
0.00000000
11
0.11433860
21
-0.15086225
31
0.00000000
12
0.10424897
22
-0.15613385
32
-0.03173344
13
-0.13141337
23
-0.16556765
33
-0.03173344
0
3DFACE
5
B158
100
AcDbEntity
8
SHELLS
100
AcDbFace
10
-0.20241957
20
-0.32152595
30
0.00000000
11
-0.21282685
21
-0.38953405
31
0.00000000
12
-0.22362295
22
-0.39721765
32
-0.03173344
13
-0.21058273
23
-0.31200412
33
-0.03173344
0
3DFACE
5
B159
100
AcDbEntity
8
SHELLS
100
AcDbFace
10
-0.21282685
20
-0.38953405
30
0.00000000
11
-0.22345060
21
-0.31950773
31
0.00000000
12
-0.23693443
22
-0.30947530
32
-0.03173344
13
-0.22362295
23
-0.39721765
33
-0.03173344
0
3DFACE
5
B160
100
AcDbEntity
8
SHELLS
100
AcDbFace
10
-0.22345060
20
-0.31950773
30
0.00000000
11
-0.22179674
21
-0.17708830
31
0.00000000
12
-0.23550258
22
-0.18641696
32
-0.03173344
13
-0.23693443
23
-0.30947530
33
-0.03173344
0
3DFACE
5
B161
100
AcDbEntity
8
SHELLS
100
AcDbFace
10
-0.22179674
20
-0.17708830
30
0.00000000
11
-0.21220259
21
-0.13154232
31
0.00000000
12
-0.22296891
22
-0.12691628
32
-0.03173344
13
-0.23550258
23
-0.18641696
33
-0.03173344
0
3DFACE
5
B162
100
AcDbEntity
8
SHELLS
100
AcDbFace
10
-0.21220259
20
-0.13154232
30
0.00000000
11
-0.20332600
21
-0.17551907
31
0.00000000
12
-0.21137265
22
-0.18436693
32
-0.03173344
13
-0.22296891
23
-0.12691628
33
-0.03173344
0
3DFACE
5
B163
100
AcDbEntity
8
SHELLS
100
AcDbFace
10
-0.20332600
20
-0.17551907
30
0.00000000
11
-0.20241957
21
-0.32152595
31
0.00000000
12
-0.21058273
22
-0.31200412
32
-0.03173344
13
-0.21137265
23
-0.18436693
33
-0.03173344
0
3DFACE
5
B164
100
AcDbEntity
8
SHELLS
100
AcDbFace
10
0.41022097
20
0.12469852
30
0.00000000
11
0.46636223
21
0.11667571
31
0.00000000
12
0.47329665
22
0.11076684
32
-0.03173344
13
0.40238835
23
0.12089992
33
-0.03173344
0
3DFACE
5
B165
100
AcDbEntity
8
SHELLS
100
AcDbFace
10
0.46636223
20
0.11667571
30
0.00000000
11
0.41192683
21
0.09555641
31
0.00000000
12
0.40454291
22
0.08409246
32
-0.03173344
13
0.47329665
23
0.11076684
33
-0.03173344
0
3DFACE
5
B166
100
AcDbEntity
8
SHELLS
100
AcDbFace
10
0.41192683
20
0.09555641
30
0.00000000
11
0.16067344
21
0.06938428
31
0.00000000
12
0.17219670
22
0.05988913
32
-0.03173344
13
0.40454291
23
0.08409246
33
-0.03173344
0
3DFACE
5
B167
100
AcDbEntity
8
SHELLS
100
AcDbFace
10
0.16067344
20
0.06938428
30
0.00000000
11
0.10079638
21
0.07572578
31
0.00000000
12
0.09350653
22
0.06822310
32
-0.03173344
13
0.17219670
23
0.05988913
33
-0.03173344
0
3DFACE
5
B168
100
AcDbEntity
8
SHELLS
100
AcDbFace
10
0.10079638
20
0.07572578
30
0.00000000
11
0.15624665
21
0.09434620
31
0.00000000
12
0.16637903
22
0.09269397
32
-0.03173344
13
0.09350653
23
0.06822310
33
-0.03173344
0
3DFACE
5
B169
100
AcDbEntity
8
SHELLS
100
AcDbFace
10
0.15624665
20
0.09434620
30
0.00000000
11
0.41022097
21
0.12469852
31
0.00000000
12
0.40238835
22
0.12089992
32
-0.03173344
13
0.16637903
23
0.09269397
33
-0.03173344
0
3DFACE
5
B170
100
AcDbEntity
8
SHELLS
100
AcDbFace
10
0.11875108
20
-0.11242811
30
0.00000000
11
0.11433860
21
-0.15086225
31
0.00000000
12
0.10424897
22
-0.15613385
32
-0.03173344
13
0.11007479
23
-0.10538921
33
-0.03173344
0
3DFACE
5
B171
100
AcDbEntity
8
SHELLS
100
AcDbFace
10
0.11433860
20
-0.15086225
30
0.00000000
11
0.10215729
21
-0.11276287
31
0.00000000
12
0.08816598
22
-0.10583119
32
-0.03173344
13
0.10424897
23
-0.15613385
33
-0.03173344
0
3DFACE
5
B172
100
AcDbEntity
8
SHELLS
100
AcDbFace
10
0.10215729
20
-0.11276287
30
0.00000000
11
0.08417212
21
0.07302327
31
0.00000000
12
0.07165900
22
0.06467148
32
-0.03173344
13
0.08816598
23
-0.10583119
33
-0.03173344
0
3DFACE
5
B173
100
AcDbEntity
8
SHELLS
100
AcDbFace
10
0.08417212
20
0.07302327
30
0.00000000
11
0.08914325
21
0.11136708
31
0.00000000
12
0.07819204
22
0.11506274
32
-0.03173344
13
0.07165900
23
0.06467148
33
-0.03173344
0
3DFACE
5
B174
100
AcDbEntity
8
SHELLS
100
AcDbFace
10
0.08914325
20
0.11136708
30
0.00000000
11
0.10079638
21
0.07572578
31
0.00000000
12
0.09350653
22
0.06822310
32
-0.03173344
13
0.07819204
23
0.11506274
33
-0.03173344
0
3DFACE
5
B175
100
AcDbEntity
8
SHELLS
100
AcDbFace
10
0.10079638
20
0.07572578
30
0.00000000
11
0.11875108
21
-0.11242811
31
0.00000000
12
0.11007479
22
-0.10538921
32
-0.03173344
13
0.09350653
23
0.06822310
33
-0.03173344
0
3DFACE
5
B176
100
AcDbEntity
8
SHELLS
100
AcDbFace
10
0.17135263
20
-0.15991936
30
0.00000000
11
0.17976680
21
-0.12397400
31
0.00000000
12
0.19063392
22
-0.12063326
32
-0.03173344
13
0.17952468
23
-0.16809197
33
-0.03173344
0
3DFACE
5
B177
100
AcDbEntity
8
SHELLS
100
AcDbFace
10
0.17976680
20
-0.12397400
30
0.00000000
11
0.18722388
21
-0.16146647
31
0.00000000
12
0.20047951
22
-0.17013461
32
-0.03173344
13
0.19063392
23
-0.12063326
33
-0.03173344
0
3DFACE
5
B178
100
AcDbEntity
8
SHELLS
100
AcDbFace
10
0.18722388
20
-0.16146647
30
0.00000000
11
0.18524630
21
-0.35802806
31
0.00000000
12
0.19866904
22
-0.34992910
32
-0.03173344
13
0.20047951
23
-0.17013461
33
-0.03173344
0
3DFACE
5
B179
100
AcDbEntity
8
SHELLS
100
AcDbFace
10
0.18524630
20
-0.35802806
30
0.00000000
11
0.17450719
21
-0.41067925
31
0.00000000
12
0.18521652
22
-0.41588349
32
-0.03173344
13
0.19866904
23
-0.34992910
33
-0.03173344
0
3DFACE
5
B180
100
AcDbEntity
8
SHELLS
100
AcDbFace
10
0.17450719
20
-0.41067925
30
0.00000000
11
0.16612052
21
-0.35917434
31
0.00000000
12
0.17471082
22
-0.35136500
32
-0.03173344
13
0.18521652
23
-0.41588349
33
-0.03173344
0
3DFACE
5
B181
100
AcDbEntity
8
SHELLS
100
AcDbFace
10
0.16612052
20
-0.35917434
30
0.00000000
11
0.17135263
21
-0.15991936
31
0.00000000
12
0.17952468
22
-0.16809197
32
-0.03173344
13
0.17471082
23
-0.35136500
33
-0.03173344
0
3DFACE
5
B182
100
AcDbEntity
8
SHELLS
100
AcDbFace
10
0.52952508
20
-0.79338840
30
0.00000000
11
0.61509624
21
-0.87453713
31
0.00000000
12
0.61850093
22
-0.88316090
32
-0.03173344
13
0.52209724
23
-0.79173948
33
-0.03173344
0
3DFACE
5
B183
100
AcDbEntity
8
SHELLS
100
AcDbFace
10
0.61509624
20
-0.87453713
30
0.00000000
11
0.50532989
21
-0.82718873
31
0.00000000
12
0.49483916
22
-0.82981862
32
-0.03173344
13
0.61850093
23
-0.88316090
33
-0.03173344
0
3DFACE
5
B184
100
AcDbEntity
8
SHELLS
100
AcDbFace
10
0.50532989
20
-0.82718873
30
0.00000000
11
0.39460062
21
-0.75097432
31
0.00000000
12
0.39919054
22
-0.76398206
32
-0.03173344
13
0.49483916
23
-0.82981862
33
-0.03173344
0
3DFACE
5
B185
100
AcDbEntity
8
SHELLS
100
AcDbFace
10
0.39460062
20
-0.75097432
30
0.00000000
11
0.30582181
21
-0.67000160
31
0.00000000
12
0.29605327
22
-0.66991339
32
-0.03173344
13
0.39919054
23
-0.76398206
33
-0.03173344
0
3DFACE
5
B186
100
AcDbEntity
8
SHELLS
100
AcDbFace
10
0.30582181
20
-0.67000160
30
0.00000000
11
0.41308048
21
-0.71934209
31
0.00000000
12
0.42065920
22
-0.72723386
32
-0.03173344
13
0.29605327
23
-0.66991339
33
-0.03173344
0
3DFACE
5
B187
100
AcDbEntity
8
SHELLS
100
AcDbFace
10
0.41308048
20
-0.71934209
30
0.00000000
11
0.52952508
21
-0.79338840
31
0.00000000
12
0.52209724
22
-0.79173948
32
-0.03173344
13
0.42065920
23
-0.72723386
33
-0.03173344
0
3DFACE
5
B188
100
AcDbEntity
8
SHELLS
100
AcDbFace
10
0.46001166
20
-0.46732842
30
0.00000000
11
0.47786638
21
-0.43088630
31
0.00000000
12
0.48718566
22
-0.43102832
32
-0.03173344
13
0.46550804
23
-0.47527311
33
-0.03173344
0
3DFACE
5
B189
100
AcDbEntity
8
SHELLS
100
AcDbFace
10
0.47786638
20
-0.43088630
30
0.00000000
11
0.47851056
21
-0.47257991
31
0.00000000
12
0.48796776
22
-0.48164900
32
-0.03173344
13
0.48718566
23
-0.43102832
33
-0.03173344
0
3DFACE
5
B190
100
AcDbEntity
8
SHELLS
100
AcDbFace
10
0.47851056
20
-0.47257991
30
0.00000000
11
0.44241493
21
-0.64297149
31
0.00000000
12
0.45473799
22
-0.63851163
32
-0.03173344
13
0.48796776
23
-0.48164900
33
-0.03173344
0
3DFACE
5
B191
100
AcDbEntity
8
SHELLS
100
AcDbFace
10
0.44241493
20
-0.64297149
30
0.00000000
11
0.41308048
21
-0.71934209
31
0.00000000
12
0.42065920
22
-0.72723386
32
-0.03173344
13
0.45473799
23
-0.63851163
33
-0.03173344
0
3DFACE
5
B192
100
AcDbEntity
8
SHELLS
100
AcDbFace
10
0.41308048
20
-0.71934209
30
0.00000000
11
0.41928387
21
-0.63916939
31
0.00000000
12
0.42786588
22
-0.63409460
32
-0.03173344
13
0.42065920
23
-0.72723386
33
-0.03173344
0
3DFACE
5
B193
100
AcDbEntity
8
SHELLS
100
AcDbFace
10
0.41928387
20
-0.63916939
30
0.00000000
11
0.46001166
21
-0.46732842
31
0.00000000
12
0.46550804
22
-0.47527311
32
-0.03173344
13
0.42786588
23
-0.63409460
33
-0.03173344
0
3DFACE
5
B194
100
AcDbEntity
8
SHELLS
100
AcDbFace
10
0.06893363
20
-0.52375234
30
0.00000000
11
0.03577891
21
-0.61203675
31
0.00000000
12
0.02357437
22
-0.61940237
32
-0.03173344
13
0.06317492
23
-0.51395401
33
-0.03173344
0
3DFACE
5
B195
100
AcDbEntity
8
SHELLS
100
AcDbFace
10
0.03577891
20
-0.61203675
30
0.00000000
11
0.04792062
21
-0.51680868
31
0.00000000
12
0.03807664
22
-0.50566039
32
-0.03173344
13
0.02357437
23
-0.61940237
33
-0.03173344
0
3DFACE
5
B196
100
AcDbEntity
8
SHELLS
100
AcDbFace
10
0.04792062
20
-0.51680868
30
0.00000000
11
0.07633529
21
-0.40947939
31
0.00000000
12
0.06223984
22
-0.41438047
32
-0.03173344
13
0.03807664
23
-0.50566039
33
-0.03173344
0
3DFACE
5
B197
100
AcDbEntity
8
SHELLS
100
AcDbFace
10
0.07633529
20
-0.40947939
30
0.00000000
11
0.09736987
21
-0.36484933
31
0.00000000
12
0.08858916
22
-0.35847387
32
-0.03173344
13
0.06223984
23
-0.41438047
33
-0.03173344
0
3DFACE
5
B198
100
AcDbEntity
8
SHELLS
100
AcDbFace
10
0.09736987
20
-0.36484933
30
0.00000000
11
0.09494031
21
-0.41270766
31
0.00000000
12
0.08554573
22
-0.41842441
32
-0.03173344
13
0.08858916
23
-0.35847387
33
-0.03173344
0
3DFACE
5
B199
100
AcDbEntity
8
SHELLS
100
AcDbFace
10
0.09494031
20
-0.41270766
30
0.00000000
11
0.06893363
21
-0.52375234
31
0.00000000
12
0.06317492
22
-0.51395401
32
-0.03173344
13
0.08554573
23
-0.41842441
33
-0.03173344
0
3DFACE
5
B200
100
AcDbEntity
8
SHELLS
100
AcDbFace
10
0.39307108
20
-0.44161319
30
0.00000000
11
0.46001166
21
-0.46732842
31
0.00000000
12
0.46550804
22
-0.47527311
32
-0.03173344
13
0.38423472
23
-0.44405195
33
-0.03173344
0
3DFACE
5
B201
100
AcDbEntity
8
SHELLS
100
AcDbFace
10
0.46001166
20
-0.46732842
30
0.00000000
11
0.38657456
21
-0.47276898
31
0.00000000
12
0.37634722
22
-0.48187855
32
-0.03173344
13
0.46550804
23
-0.47527311
33
-0.03173344
0
3DFACE
5
B202
100
AcDbEntity
8
SHELLS
100
AcDbFace
10
0.38657456
20
-0.47276898
30
0.00000000
11
0.17249513
21
-0.43891668
31
0.00000000
12
0.18269608
22
-0.45125559
32
-0.03173344
13
0.37634722
23
-0.48187855
33
-0.03173344
0
3DFACE
5
B203
100
AcDbEntity
8
SHELLS
100
AcDbFace
10
0.17249513
20
-0.43891668
30
0.00000000
11
0.09494031
21
-0.41270766
31
0.00000000
12
0.08554573
22
-0.41842441
32
-0.03173344
13
0.18269608
23
-0.45125559
33
-0.03173344
0
3DFACE
5
B204
100
AcDbEntity
8
SHELLS
100
AcDbFace
10
0.09494031
20
-0.41270766
30
0.00000000
11
0.17450719
21
-0.41067925
31
0.00000000
12
0.18521652
22
-0.41588349
32
-0.03173344
13
0.08554573
23
-0.41842441
33
-0.03173344
0
3DFACE
5
B205
100
AcDbEntity
8
SHELLS
100
AcDbFace
10
0.17450719
20
-0.41067925
30
0.00000000
11
0.39307108
21
-0.44161319
31
0.00000000
12
0.38423472
22
-0.44405195
32
-0.03173344
13
0.18521652
23
-0.41588349
33
-0.03173344
0
3DFACE
5
B206
100
AcDbEntity
8
SHELLS
100
AcDbFace
10
0.56961741
20
-0.75522819
30
0.00000000
11
0.52952508
21
-0.79338840
31
0.00000000
12
0.52209724
22
-0.79173948
32
-0.03173344
13
0.56726490
23
-0.74874853
33
-0.03173344
0
3DFACE
5
B207
100
AcDbEntity
8
SHELLS
100
AcDbFace
10
0.52952508
20
-0.79338840
30
0.00000000
11
0.55186136
21
-0.74207288
31
0.00000000
12
0.54726109
22
-0.73392788
32
-0.03173344
13
0.52209724
23
-0.79173948
33
-0.03173344
0
3DFACE
5
B208
100
AcDbEntity
8
SHELLS
100
AcDbFace
10
0.55186136
20
-0.74207288
30
0.00000000
11
0.71026165
21
-0.51886612
31
0.00000000
12
0.70116606
22
-0.51705829
32
-0.03173344
13
0.54726109
23
-0.73392788
33
-0.03173344
0
3DFACE
5
B209
100
AcDbEntity
8
SHELLS
100
AcDbFace
10
0.71026165
20
-0.51886612
30
0.00000000
11
0.73249251
21
-0.50366444
31
0.00000000
12
0.72681474
22
-0.49951947
32
-0.03173344
13
0.70116606
23
-0.51705829
33
-0.03173344
0
3DFACE
5
B210
100
AcDbEntity
8
SHELLS
100
AcDbFace
10
0.73249251
20
-0.50366444
30
0.00000000
11
0.72591799
21
-0.52926849
31
0.00000000
12
0.71922943
22
-0.52905994
32
-0.03173344
13
0.72681474
23
-0.49951947
33
-0.03173344
0
3DFACE
5
B211
100
AcDbEntity
8
SHELLS
100
AcDbFace
10
0.72591799
20
-0.52926849
30
0.00000000
11
0.56961741
21
-0.75522819
31
0.00000000
12
0.56726490
22
-0.74874853
32
-0.03173344
13
0.71922943
23
-0.52905994
33
-0.03173344
0
3DFACE
5
B212
100
AcDbEntity
8
SHELLS
100
AcDbFace
10
1.16463628
20
0.48675584
30
0.00000000
11
1.13914846
21
0.53683420
31
0.00000000
12
1.14327526
22
0.54268587
32
-0.03173344
13
1.17183876
23
0.48656443
33
-0.03173344
0
3DFACE
5
B213
100
AcDbEntity
8
SHELLS
100
AcDbFace
10
1.13914846
20
0.53683420
30
0.00000000
11
1.19270995
21
0.51512375
31
0.00000000
12
1.20330015
22
0.51835556
32
-0.03173344
13
1.14327526
23
0.54268587
33
-0.03173344
0
3DFACE
5
B214
100
AcDbEntity
8
SHELLS
100
AcDbFace
10
1.19270995
20
0.51512375
30
0.00000000
11
1.31358182
21
0.40624926
31
0.00000000
12
1.31560855
22
0.41719750
32
-0.03173344
13
1.20330015
23
0.51835556
33
-0.03173344
0
3DFACE
5
B215
100
AcDbEntity
8
SHELLS
100
AcDbFace
10
1.31358182
20
0.40624926
30
0.00000000
11
1.36347813
21
0.33071053
31
0.00000000
12
1.37082680
22
0.33360182
32
-0.03173344
13
1.31560855
23
0.41719750
33
-0.03173344
0
3DFACE
5
B216
100
AcDbEntity
8
SHELLS
100
AcDbFace
10
1.36347813
20
0.33071053
30
0.00000000
11
1.28568541
21
0.37339965
31
0.00000000
12
1.28473672
22
0.38084415
32
-0.03173344
13
1.37082680
23
0.33360182
33
-0.03173344
0
3DFACE
5
B217
100
AcDbEntity
8
SHELLS
100
AcDbFace
10
1.28568541
20
0.37339965
30
0.00000000
11
1.16463628
21
0.48675584
31
0.00000000
12
1.17183876
22
0.48656443
32
-0.03173344
13
1.28473672
23
0.38084415
33
-0.03173344
0
3DFACE
5
B218
100
AcDbEntity
8
SHELLS
100
AcDbFace
10
1.06215102
20
0.45527666
30
0.00000000
11
1.16463628
21
0.48675584
31
0.00000000
12
1.17183876
22
0.48656443
32
-0.03173344
13
1.05698637
23
0.45128659
33
-0.03173344
0
3DFACE
5
B219
100
AcDbEntity
8
SHELLS
100
AcDbFace
10
1.16463628
20
0.48675584
30
0.00000000
11
1.10398671
21
0.39539442
31
0.00000000
12
1.10387046
22
0.38417822
32
-0.03173344
13
1.17183876
23
0.48656443
33
-0.03173344
0
3DFACE
5
B220
100
AcDbEntity
8
SHELLS
100
AcDbFace
10
1.10398671
20
0.39539442
30
0.00000000
11
0.87134272
21
0.23490512
31
0.00000000
12
0.88244480
22
0.23142709
32
-0.03173344
13
1.10387046
23
0.38417822
33
-0.03173344
0
3DFACE
5
B221
100
AcDbEntity
8
SHELLS
100
AcDbFace
10
0.87134272
20
0.23490512
30
0.00000000
11
0.81112689
21
0.22431874
31
0.00000000
12
0.81131929
22
0.21892271
32
-0.03173344
13
0.88244480
23
0.23142709
33
-0.03173344
0
3DFACE
5
B222
100
AcDbEntity
8
SHELLS
100
AcDbFace
10
0.81112689
20
0.22431874
30
0.00000000
11
0.83811036
21
0.27705964
31
0.00000000
12
0.84319152
22
0.28121903
32
-0.03173344
13
0.81131929
23
0.21892271
33
-0.03173344
0
3DFACE
5
B223
100
AcDbEntity
8
SHELLS
100
AcDbFace
10
0.83811036
20
0.27705964
30
0.00000000
11
1.06215102
21
0.45527666
31
0.00000000
12
1.05698637
22
0.45128659
32
-0.03173344
13
0.84319152
23
0.28121903
33
-0.03173344
0
3DFACE
5
B224
100
AcDbEntity
8
SHELLS
100
AcDbFace
10
0.96784468
20
-0.10843605
30
0.00000000
11
0.93957055
21
-0.11484385
31
0.00000000
12
0.93619599
22
-0.11082137
32
-0.03173344
13
0.96928883
23
-0.10332150
33
-0.03173344
0
3DFACE
5
B225
100
AcDbEntity
8
SHELLS
100
AcDbFace
10
0.93957055
20
-0.11484385
30
0.00000000
11
0.93629609
21
-0.08486322
31
0.00000000
12
0.93236347
22
-0.07573119
32
-0.03173344
13
0.93619599
23
-0.11082137
33
-0.03173344
0
3DFACE
5
B226
100
AcDbEntity
8
SHELLS
100
AcDbFace
10
0.93629609
20
-0.08486322
30
0.00000000
11
1.19480707
21
0.29644281
31
0.00000000
12
1.18416530
22
0.29567911
32
-0.03173344
13
0.93236347
23
-0.07573119
33
-0.03173344
0
3DFACE
5
B227
100
AcDbEntity
8
SHELLS
100
AcDbFace
10
1.19480707
20
0.29644281
30
0.00000000
11
1.28568541
21
0.37339965
31
0.00000000
12
1.28473672
22
0.38084415
32
-0.03173344
13
1.18416530
23
0.29567911
33
-0.03173344
0
3DFACE
5
B228
100
AcDbEntity
8
SHELLS
100
AcDbFace
10
1.28568541
20
0.37339965
30
0.00000000
11
1.24353410
21
0.26424874
31
0.00000000
12
1.23808955
22
0.26005122
32
-0.03173344
13
1.28473672
23
0.38084415
33
-0.03173344
0
3DFACE
5
B229
100
AcDbEntity
8
SHELLS
100
AcDbFace
10
1.24353410
20
0.26424874
30
0.00000000
11
0.96784468
21
-0.10843605
31
0.00000000
12
0.96928883
22
-0.10332150
32
-0.03173344
13
1.23808955
23
0.26005122
33
-0.03173344
0
3DFACE
5
B230
100
AcDbEntity
8
SHELLS
100
AcDbFace
10
0.93957055
20
-0.11484385
30
0.00000000
11
0.92859965
21
-0.14408474
31
0.00000000
12
0.92335534
22
-0.14504574
32
-0.03173344
13
0.93619599
23
-0.11082137
33
-0.03173344
0
3DFACE
5
B231
100
AcDbEntity
8
SHELLS
100
AcDbFace
10
0.92859965
20
-0.14408474
30
0.00000000
11
0.90001248
21
-0.12855007
31
0.00000000
12
0.88989609
22
-0.12686352
32
-0.03173344
13
0.92335534
23
-0.14504574
33
-0.03173344
0
3DFACE
5
B232
100
AcDbEntity
8
SHELLS
100
AcDbFace
10
0.90001248
20
-0.12855007
30
0.00000000
11
0.77432356
21
0.20938213
31
0.00000000
12
0.76784804
22
0.20127993
32
-0.03173344
13
0.88989609
23
-0.12686352
33
-0.03173344
0
3DFACE
5
B233
100
AcDbEntity
8
SHELLS
100
AcDbFace
10
0.77432356
20
0.20938213
30
0.00000000
11
0.77905514
21
0.25429726
31
0.00000000
12
0.77343688
22
0.25433263
32
-0.03173344
13
0.76784804
23
0.20127993
33
-0.03173344
0
3DFACE
5
B234
100
AcDbEntity
8
SHELLS
100
AcDbFace
10
0.77905514
20
0.25429726
30
0.00000000
11
0.81112689
21
0.22431874
31
0.00000000
12
0.81131929
22
0.21892271
32
-0.03173344
13
0.77343688
23
0.25433263
33
-0.03173344
0
3DFACE
5
B235
100
AcDbEntity
8
SHELLS
100
AcDbFace
10
0.81112689
20
0.22431874
30
0.00000000
11
0.93957055
21
-0.11484385
31
0.00000000
12
0.93619599
22
-0.11082137
32
-0.03173344
13
0.81131929
23
0.21892271
33
-0.03173344
0
3DFACE
5
B236
100
AcDbEntity
8
SHELLS
100
AcDbFace
10
0.47105141
20
0.15600148
30
0.00000000
11
0.40906628
21
0.15186707
31
0.00000000
12
0.40092994
22
0.15521472
32
-0.03173344
13
0.47921924
23
0.16043661
33
-0.03173344
0
3DFACE
5
B237
100
AcDbEntity
8
SHELLS
100
AcDbFace
10
0.40906628
20
0.15186707
30
0.00000000
11
0.46215296
21
0.18756870
31
0.00000000
12
0.46798020
22
0.20030708
32
-0.03173344
13
0.40092994
23
0.15521472
33
-0.03173344
0
3DFACE
5
B238
100
AcDbEntity
8
SHELLS
100
AcDbFace
10
0.46215296
20
0.18756870
30
0.00000000
11
0.76347935
21
0.29605793
31
0.00000000
12
0.75503912
22
0.30365936
32
-0.03173344
13
0.46798020
23
0.20030708
33
-0.03173344
0
3DFACE
5
B239
100
AcDbEntity
8
SHELLS
100
AcDbFace
10
0.76347935
20
0.29605793
30
0.00000000
11
0.81628431
21
0.28991121
31
0.00000000
12
0.81741110
22
0.29639900
32
-0.03173344
13
0.75503912
23
0.30365936
33
-0.03173344
0
3DFACE
5
B240
100
AcDbEntity
8
SHELLS
100
AcDbFace
10
0.81628431
20
0.28991121
30
0.00000000
11
0.77905514
21
0.25429726
31
0.00000000
12
0.77343688
22
0.25433263
32
-0.03173344
13
0.81741110
23
0.29639900
33
-0.03173344
0
3DFACE
5
B241
100
AcDbEntity
8
SHELLS
100
AcDbFace
10
0.77905514
20
0.25429726
30
0.00000000
11
0.47105141
21
0.15600148
31
0.00000000
12
0.47921924
22
0.16043661
32
-0.03173344
13
0.77343688
23
0.25433263
33
-0.03173344
0
3DFACE
5
B242
100
AcDbEntity
8
SHELLS
100
AcDbFace
10
0.68517353
20
0.48157722
30
0.00000000
11
0.65976029
21
0.53996701
31
0.00000000
12
0.66328702
22
0.54641780
32
-0.03173344
13
0.69285589
23
0.47847998
33
-0.03173344
0
3DFACE
5
B243
100
AcDbEntity
8
SHELLS
100
AcDbFace
10
0.65976029
20
0.53996701
30
0.00000000
11
0.70542817
21
0.49407205
31
0.00000000
12
0.71642261
22
0.49301799
32
-0.03173344
13
0.66328702
23
0.54641780
33
-0.03173344
0
3DFACE
5
B244
100
AcDbEntity
8
SHELLS
100
AcDbFace
10
0.70542817
20
0.49407205
30
0.00000000
11
0.83409482
21
0.30278640
31
0.00000000
12
0.83844846
22
0.31160687
32
-0.03173344
13
0.71642261
23
0.49301799
33
-0.03173344
0
3DFACE
5
B245
100
AcDbEntity
8
SHELLS
100
AcDbFace
10
0.83409482
20
0.30278640
30
0.00000000
11
0.83811036
21
0.27705964
31
0.00000000
12
0.84319152
22
0.28121903
32
-0.03173344
13
0.83844846
23
0.31160687
33
-0.03173344
0
3DFACE
5
B246
100
AcDbEntity
8
SHELLS
100
AcDbFace
10
0.83811036
20
0.27705964
30
0.00000000
11
0.81628431
21
0.28991121
31
0.00000000
12
0.81741110
22
0.29639900
32
-0.03173344
13
0.84319152
23
0.28121903
33
-0.03173344
0
3DFACE
5
B247
100
AcDbEntity
8
SHELLS
100
AcDbFace
10
0.81628431
20
0.28991121
30
0.00000000
11
0.68517353
21
0.48157722
31
0.00000000
12
0.69285589
22
0.47847998
32
-0.03173344
13
0.81741110
23
0.29639900
33
-0.03173344
0
3DFACE
5
B248
100
AcDbEntity
8
SHELLS
100
AcDbFace
10
0.65976029
20
0.53996701
30
0.00000000
11
0.59036406
21
0.49075350
31
0.00000000
12
0.58254297
22
0.48915679
32
-0.03173344
13
0.66328702
23
0.54641780
33
-0.03173344
0
3DFACE
5
B249
100
AcDbEntity
8
SHELLS
100
AcDbFace
10
0.59036406
20
0.49075350
30
0.00000000
11
0.63563699
21
0.56415444
31
0.00000000
12
0.63521902
22
0.57456041
32
-0.03173344
13
0.58254297
23
0.48915679
33
-0.03173344
0
3DFACE
5
B250
100
AcDbEntity
8
SHELLS
100
AcDbFace
10
0.63563699
20
0.56415444
30
0.00000000
11
0.78556976
21
0.73020994
31
0.00000000
12
0.77586832
22
0.73033488
32
-0.03173344
13
0.63521902
23
0.57456041
33
-0.03173344
0
3DFACE
5
B251
100
AcDbEntity
8
SHELLS
100
AcDbFace
10
0.78556976
20
0.73020994
30
0.00000000
11
0.87695282
21
0.79564214
31
0.00000000
12
0.87795211
22
0.80342903
32
-0.03173344
13
0.77586832
23
0.73033488
33
-0.03173344
0
3DFACE
5
B252
100
AcDbEntity
8
SHELLS
100
AcDbFace
10
0.87695282
20
0.79564214
30
0.00000000
11
0.81779286
21
0.70163575
31
0.00000000
12
0.81186466
22
0.69841472
32
-0.03173344
13
0.87795211
23
0.80342903
33
-0.03173344
0
3DFACE
5
B253
100
AcDbEntity
8
SHELLS
100
AcDbFace
10
0.81779286
20
0.70163575
30
0.00000000
11
0.65976029
21
0.53996701
31
0.00000000
12
0.66328702
22
0.54641780
32
-0.03173344
13
0.81186466
23
0.69841472
33
-0.03173344
0
3DFACE
5
B254
100
AcDbEntity
8
SHELLS
100
AcDbFace
10
0.13703872
20
0.34628890
30
0.00000000
11
0.06587835
21
0.34221786
31
0.00000000
12
0.05792595
22
0.34715752
32
-0.03173344
13
0.14659268
23
0.35223009
33
-0.03173344
0
3DFACE
5
B255
100
AcDbEntity
8
SHELLS
100
AcDbFace
10
0.06587835
20
0.34221786
30
0.00000000
11
0.13376487
21
0.36856394
31
0.00000000
12
0.14251343
22
0.37998507
32
-0.03173344
13
0.05792595
23
0.34715752
33
-0.03173344
0
3DFACE
5
B256
100
AcDbEntity
8
SHELLS
100
AcDbFace
10
0.13376487
20
0.36856394
30
0.00000000
11
0.31793511
21
0.40950486
31
0.00000000
12
0.30681925
22
0.41650962
32
-0.03173344
13
0.14251343
23
0.37998507
33
-0.03173344
0
3DFACE
5
B257
100
AcDbEntity
8
SHELLS
100
AcDbFace
10
0.31793511
20
0.40950486
30
0.00000000
11
0.40076213
21
0.41452021
31
0.00000000
12
0.40733596
22
0.42259612
32
-0.03173344
13
0.30681925
23
0.41650962
33
-0.03173344
0
3DFACE
5
B258
100
AcDbEntity
8
SHELLS
100
AcDbFace
10
0.40076213
20
0.41452021
30
0.00000000
11
0.32454329
21
0.38561194
31
0.00000000
12
0.31483877
22
0.38751380
32
-0.03173344
13
0.40733596
23
0.42259612
33
-0.03173344
0
3DFACE
5
B259
100
AcDbEntity
8
SHELLS
100
AcDbFace
10
0.32454329
20
0.38561194
30
0.00000000
11
0.13703872
21
0.34628890
31
0.00000000
12
0.14659268
22
0.35223009
32
-0.03173344
13
0.31483877
23
0.38751380
33
-0.03173344
0
3DFACE
5
B260
100
AcDbEntity
8
SHELLS
100
AcDbFace
10
0.06930679
20
0.29240012
30
0.00000000
11
0.13218291
21
0.28830473
31
0.00000000
12
0.14054228
22
0.27998106
32
-0.03173344
13
0.06219784
23
0.28508398
33
-0.03173344
0
3DFACE
5
B261
100
AcDbEntity
8
SHELLS
100
AcDbFace
10
0.13218291
20
0.28830473
30
0.00000000
11
0.07011637
21
0.27064641
31
0.00000000
12
0.06320658
22
0.25797858
32
-0.03173344
13
0.14054228
23
0.27998106
33
-0.03173344
0
3DFACE
5
B262
100
AcDbEntity
8
SHELLS
100
AcDbFace
10
0.07011637
20
0.27064641
30
0.00000000
11
-0.13253751
21
0.24923441
31
0.00000000
12
-0.11919964
22
0.23870411
32
-0.03173344
13
0.06320658
23
0.25797858
33
-0.03173344
0
3DFACE
5
B263
100
AcDbEntity
8
SHELLS
100
AcDbFace
10
-0.13253751
20
0.24923441
30
0.00000000
11
-0.22625835
21
0.25079300
31
0.00000000
12
-0.23540254
22
0.24063658
32
-0.03173344
13
-0.11919964
23
0.23870411
33
-0.03173344
0
3DFACE
5
B264
100
AcDbEntity
8
SHELLS
100
AcDbFace
10
-0.22625835
20
0.25079300
30
0.00000000
11
-0.13703456
21
0.27100014
31
0.00000000
12
-0.12477546
22
0.26569108
32
-0.03173344
13
-0.23540254
23
0.24063658
33
-0.03173344
0
3DFACE
5
B265
100
AcDbEntity
8
SHELLS
100
AcDbFace
10
-0.13703456
20
0.27100014
30
0.00000000
11
0.06930679
21
0.29240012
31
0.00000000
12
0.06219784
22
0.28508398
32
-0.03173344
13
-0.12477546
23
0.26569108
33
-0.03173344
0
3DFACE
5
B266
100
AcDbEntity
8
SHELLS
100
AcDbFace
10
-0.21568202
20
0.09910662
30
0.00000000
11
-0.22022988
21
0.06214772
31
0.00000000
12
-0.23198258
22
0.05860054
32
-0.03173344
13
-0.22606227
23
0.10671281
33
-0.03173344
0
3DFACE
5
B267
100
AcDbEntity
8
SHELLS
100
AcDbFace
10
-0.22022988
20
0.06214772
30
0.00000000
11
-0.23093400
21
0.09927874
31
0.00000000
12
-0.24591696
22
0.10693688
32
-0.03173344
13
-0.23198258
23
0.05860054
33
-0.03173344
0
3DFACE
5
B268
100
AcDbEntity
8
SHELLS
100
AcDbFace
10
-0.23093400
20
0.09927874
30
0.00000000
11
-0.24386200
21
0.24762638
31
0.00000000
12
-0.25722902
22
0.23671035
32
-0.03173344
13
-0.24591696
23
0.10693688
33
-0.03173344
0
3DFACE
5
B269
100
AcDbEntity
8
SHELLS
100
AcDbFace
10
-0.24386200
20
0.24762638
30
0.00000000
11
-0.24085599
21
0.32597269
31
0.00000000
12
-0.25350192
22
0.33385062
32
-0.03173344
13
-0.25722902
23
0.23671035
33
-0.03173344
0
3DFACE
5
B270
100
AcDbEntity
8
SHELLS
100
AcDbFace
10
-0.24085599
20
0.32597269
30
0.00000000
11
-0.22625835
21
0.25079300
31
0.00000000
12
-0.23540254
22
0.24063658
32
-0.03173344
13
-0.25350192
23
0.33385062
33
-0.03173344
0
3DFACE
5
B271
100
AcDbEntity
8
SHELLS
100
AcDbFace
10
-0.22625835
20
0.25079300
30
0.00000000
11
-0.21568202
21
0.09910662
31
0.00000000
12
-0.22606227
22
0.10671281
32
-0.03173344
13
-0.23540254
23
0.24063658
33
-0.03173344
0
3DFACE
5
B272
100
AcDbEntity
8
SHELLS
100
AcDbFace
10
0.98750625
20
-0.12340200
30
0.00000000
11
0.96784468
21
-0.10843605
31
0.00000000
12
0.96928883
22
-0.10332150
32
-0.03173344
13
0.99230130
23
-0.12083808
33
-0.03173344
0
3DFACE
5
B273
100
AcDbEntity
8
SHELLS
100
AcDbFace
10
0.96784468
20
-0.10843605
30
0.00000000
11
0.98597484
21
-0.09034221
31
0.00000000
12
0.99050889
22
-0.08214395
32
-0.03173344
13
0.96928883
23
-0.10332150
33
-0.03173344
0
3DFACE
5
B274
100
AcDbEntity
8
SHELLS
100
AcDbFace
10
0.98597484
20
-0.09034221
30
0.00000000
11
1.37232087
21
-0.05195301
31
0.00000000
12
1.36670009
22
-0.04476517
32
-0.03173344
13
0.99050889
23
-0.08214395
33
-0.03173344
0
3DFACE
5
B275
100
AcDbEntity
8
SHELLS
100
AcDbFace
10
1.37232087
20
-0.05195301
30
0.00000000
11
1.46796168
21
-0.07303736
31
0.00000000
12
1.47117691
22
-0.06779745
32
-0.03173344
13
1.36670009
23
-0.04476517
33
-0.03173344
0
3DFACE
5
B276
100
AcDbEntity
8
SHELLS
100
AcDbFace
10
1.46796168
20
-0.07303736
30
0.00000000
11
1.37753400
21
-0.10663795
31
0.00000000
12
1.37239485
22
-0.10450231
32
-0.03173344
13
1.47117691
23
-0.06779745
33
-0.03173344
0
3DFACE
5
B277
100
AcDbEntity
8
SHELLS
100
AcDbFace
10
1.37753400
20
-0.10663795
30
0.00000000
11
0.98750625
21
-0.12340200
31
0.00000000
12
0.99230130
22
-0.12083808
32
-0.03173344
13
1.37239485
23
-0.10450231
33
-0.03173344
0
3DFACE
5
B278
100
AcDbEntity
8
SHELLS
100
AcDbFace
10
1.51799310
20
0.09992904
30
0.00000000
11
1.59127945
21
0.22861948
31
0.00000000
12
1.59712197
22
0.23233721
32
-0.03173344
13
1.51760391
23
0.09270394
33
-0.03173344
0
3DFACE
5
B279
100
AcDbEntity
8
SHELLS
100
AcDbFace
10
1.59127945
20
0.22861948
30
0.00000000
11
1.58233249
21
0.07851561
31
0.00000000
12
1.58741423
22
0.06946968
32
-0.03173344
13
1.59712197
23
0.23233721
33
-0.03173344
0
3DFACE
5
B280
100
AcDbEntity
8
SHELLS
100
AcDbFace
10
1.58233249
20
0.07851561
30
0.00000000
11
1.53052777
21
-0.08990113
31
0.00000000
12
1.53952334
22
-0.08621922
32
-0.03173344
13
1.58741423
23
0.06946968
33
-0.03173344
0
3DFACE
5
B281
100
AcDbEntity
8
SHELLS
100
AcDbFace
10
1.53052777
20
-0.08990113
30
0.00000000
11
1.46792949
21
-0.18497244
31
0.00000000
12
1.47114175
22
-0.19007394
32
-0.03173344
13
1.53952334
23
-0.08621922
33
-0.03173344
0
3DFACE
5
B282
100
AcDbEntity
8
SHELLS
100
AcDbFace
10
1.46792949
20
-0.18497244
30
0.00000000
11
1.46796168
21
-0.07303736
31
0.00000000
12
1.47117691
22
-0.06779745
32
-0.03173344
13
1.47114175
23
-0.19007394
33
-0.03173344
0
3DFACE
5
B283
100
AcDbEntity
8
SHELLS
100
AcDbFace
10
1.46796168
20
-0.07303736
30
0.00000000
11
1.51799310
21
0.09992904
31
0.00000000
12
1.51760391
22
0.09270394
32
-0.03173344
13
1.47117691
23
-0.06779745
33
-0.03173344
0
3DFACE
5
B284
100
AcDbEntity
8
SHELLS
100
AcDbFace
10
1.02993015
20
-0.68772084
30
0.00000000
11
0.96199642
21
-0.71695690
31
0.00000000
12
0.95660357
22
-0.71309036
32
-0.03173344
13
1.03177274
23
-0.68074044
33
-0.03173344
0
3DFACE
5
B285
100
AcDbEntity
8
SHELLS
100
AcDbFace
10
0.96199642
20
-0.71695690
30
0.00000000
11
0.99486902
21
-0.64820366
31
0.00000000
12
0.99297734
22
-0.63701439
32
-0.03173344
13
0.95660357
23
-0.71309036
33
-0.03173344
0
3DFACE
5
B286
100
AcDbEntity
8
SHELLS
100
AcDbFace
10
0.99486902
20
-0.64820366
30
0.00000000
11
1.12604752
21
-0.52109423
31
0.00000000
12
1.11531793
22
-0.51846778
32
-0.03173344
13
0.99297734
23
-0.63701439
33
-0.03173344
0
3DFACE
5
B287
100
AcDbEntity
8
SHELLS
100
AcDbFace
10
1.12604752
20
-0.52109423
30
0.00000000
11
1.20729890
21
-0.48161345
31
0.00000000
12
1.20476267
22
-0.47500577
32
-0.03173344
13
1.11531793
23
-0.51846778
33
-0.03173344
0
3DFACE
5
B288
100
AcDbEntity
8
SHELLS
100
AcDbFace
10
1.20729890
20
-0.48161345
30
0.00000000
11
1.16526406
21
-0.55911724
31
0.00000000
12
1.15848905
22
-0.56032502
32
-0.03173344
13
1.20476267
23
-0.47500577
33
-0.03173344
0
3DFACE
5
B289
100
AcDbEntity
8
SHELLS
100
AcDbFace
10
1.16526406
20
-0.55911724
30
0.00000000
11
1.02993015
21
-0.68772084
31
0.00000000
12
1.03177274
22
-0.68074044
32
-0.03173344
13
1.15848905
23
-0.56032502
33
-0.03173344
0
3DFACE
5
B290
100
AcDbEntity
8
SHELLS
100
AcDbFace
10
1.01083870
20
-0.81179742
30
0.00000000
11
1.07011729
21
-0.78287278
31
0.00000000
12
1.07624011
22
-0.78602676
32
-0.03173344
13
1.01064791
23
-0.81803209
33
-0.03173344
0
3DFACE
5
B291
100
AcDbEntity
8
SHELLS
100
AcDbFace
10
1.07011729
20
-0.78287278
30
0.00000000
11
1.03964958
21
-0.84287075
31
0.00000000
12
1.04252737
22
-0.85241495
32
-0.03173344
13
1.07624011
23
-0.78602676
33
-0.03173344
0
3DFACE
5
B292
100
AcDbEntity
8
SHELLS
100
AcDbFace
10
1.03964958
20
-0.84287075
30
0.00000000
11
0.86248513
21
-1.01859200
31
0.00000000
12
0.87126553
22
-1.02228621
32
-0.03173344
13
1.04252737
23
-0.85241495
33
-0.03173344
0
3DFACE
5
B293
100
AcDbEntity
8
SHELLS
100
AcDbFace
10
0.86248513
20
-1.01859200
30
0.00000000
11
0.78957568
21
-1.05823293
31
0.00000000
12
0.79116441
22
-1.06583725
32
-0.03173344
13
0.87126553
23
-1.02228621
33
-0.03173344
0
3DFACE
5
B294
100
AcDbEntity
8
SHELLS
100
AcDbFace
10
0.78957568
20
-1.05823293
30
0.00000000
11
0.83031121
21
-0.98726199
31
0.00000000
12
0.83591804
22
-0.98786586
32
-0.03173344
13
0.79116441
23
-1.06583725
33
-0.03173344
0
3DFACE
5
B295
100
AcDbEntity
8
SHELLS
100
AcDbFace
10
0.83031121
20
-0.98726199
30
0.00000000
11
1.01083870
21
-0.81179742
31
0.00000000
12
1.01064791
22
-0.81803209
32
-0.03173344
13
0.83591804
23
-0.98786586
33
-0.03173344
0
3DFACE
5
B296
100
AcDbEntity
8
SHELLS
100
AcDbFace
10
0.96199642
20
-0.71695690
30
0.00000000
11
1.01083870
21
-0.81179742
31
0.00000000
12
1.01064791
22
-0.81803209
32
-0.03173344
13
0.95660357
23
-0.71309036
33
-0.03173344
0
3DFACE
5
B297
100
AcDbEntity
8
SHELLS
100
AcDbFace
10
1.01083870
20
-0.81179742
30
0.00000000
11
0.91344234
21
-0.76311331
31
0.00000000
12
0.90287812
22
-0.76416276
32
-0.03173344
13
1.01064791
23
-0.81803209
33
-0.03173344
0
3DFACE
5
B298
100
AcDbEntity
8
SHELLS
100
AcDbFace
10
0.91344234
20
-0.76311331
30
0.00000000
11
0.75859217
21
-0.59885435
31
0.00000000
12
0.75692702
22
-0.60934407
32
-0.03173344
13
0.90287812
23
-0.76416276
33
-0.03173344
0
3DFACE
5
B299
100
AcDbEntity
8
SHELLS
100
AcDbFace
10
0.75859217
20
-0.59885435
30
0.00000000
11
0.72591799
21
-0.52926849
31
0.00000000
12
0.71922943
22
-0.52905994
32
-0.03173344
13
0.75692702
23
-0.60934407
33
-0.03173344
0
3DFACE
5
B300
100
AcDbEntity
8
SHELLS
100
AcDbFace
10
0.72591799
20
-0.52926849
30
0.00000000
11
0.79413366
21
-0.56101888
31
0.00000000
12
0.79793273
22
-0.56569170
32
-0.03173344
13
0.71922943
23
-0.52905994
33
-0.03173344
0
3DFACE
5
B301
100
AcDbEntity
8
SHELLS
100
AcDbFace
10
0.79413366
20
-0.56101888
30
0.00000000
11
0.96199642
21
-0.71695690
31
0.00000000
12
0.95660357
22
-0.71309036
32
-0.03173344
13
0.79793273
23
-0.56569170
33
-0.03173344
0
3DFACE
5
B302
100
AcDbEntity
8
SHELLS
100
AcDbFace
10
0.64185465
20
-0.85142117
30
0.00000000
11
0.56961741
21
-0.75522819
31
0.00000000
12
0.56726490
22
-0.74874853
32
-0.03173344
13
0.64864672
23
-0.85711867
33
-0.03173344
0
3DFACE
5
B303
100
AcDbEntity
8
SHELLS
100
AcDbFace
10
0.56961741
20
-0.75522819
30
0.00000000
11
0.67488273
21
-0.81639997
31
0.00000000
12
0.68585586
22
-0.81766411
32
-0.03173344
13
0.56726490
23
-0.74874853
33
-0.03173344
0
3DFACE
5
B304
100
AcDbEntity
8
SHELLS
100
AcDbFace
10
0.67488273
20
-0.81639997
30
0.00000000
11
0.77606450
21
-0.90200733
31
0.00000000
12
0.77632052
22
-0.89420181
32
-0.03173344
13
0.68585586
23
-0.81766411
33
-0.03173344
0
3DFACE
5
B305
100
AcDbEntity
8
SHELLS
100
AcDbFace
10
0.77606450
20
-0.90200733
30
0.00000000
11
0.83031121
21
-0.98726199
31
0.00000000
12
0.83591804
22
-0.98786586
32
-0.03173344
13
0.77632052
23
-0.89420181
33
-0.03173344
0
3DFACE
5
B306
100
AcDbEntity
8
SHELLS
100
AcDbFace
10
0.83031121
20
-0.98726199
30
0.00000000
11
0.74031262
21
-0.94348752
31
0.00000000
12
0.73704213
22
-0.93977354
32
-0.03173344
13
0.83591804
23
-0.98786586
33
-0.03173344
0
3DFACE
5
B307
100
AcDbEntity
8
SHELLS
100
AcDbFace
10
0.74031262
20
-0.94348752
30
0.00000000
11
0.64185465
21
-0.85142117
31
0.00000000
12
0.64864672
22
-0.85711867
32
-0.03173344
13
0.73704213
23
-0.93977354
33
-0.03173344
0
3DFACE
5
B308
100
AcDbEntity
8
SHELLS
100
AcDbFace
10
0.98508931
20
-0.15864272
30
0.00000000
11
0.98750625
21
-0.12340200
31
0.00000000
12
0.99230130
22
-0.12083808
32
-0.03173344
13
0.98947244
23
-0.16208482
33
-0.03173344
0
3DFACE
5
B309
100
AcDbEntity
8
SHELLS
100
AcDbFace
10
0.98750625
20
-0.12340200
30
0.00000000
11
1.02341306
21
-0.13214516
31
0.00000000
12
1.03432765
22
-0.13107132
32
-0.03173344
13
0.99230130
23
-0.12083808
33
-0.03173344
0
3DFACE
5
B310
100
AcDbEntity
8
SHELLS
100
AcDbFace
10
1.02341306
20
-0.13214516
30
0.00000000
11
1.26299752
21
-0.43753447
31
0.00000000
12
1.26607792
22
-0.42648189
32
-0.03173344
13
1.03432765
23
-0.13107132
33
-0.03173344
0
3DFACE
5
B311
100
AcDbEntity
8
SHELLS
100
AcDbFace
10
1.26299752
20
-0.43753447
30
0.00000000
11
1.30995297
21
-0.56250181
31
0.00000000
12
1.31776835
22
-0.56405089
32
-0.03173344
13
1.26607792
23
-0.42648189
33
-0.03173344
0
3DFACE
5
B312
100
AcDbEntity
8
SHELLS
100
AcDbFace
10
1.30995297
20
-0.56250181
30
0.00000000
11
1.20729890
21
-0.48161345
31
0.00000000
12
1.20476267
22
-0.47500577
32
-0.03173344
13
1.31776835
23
-0.56405089
33
-0.03173344
0
3DFACE
5
B313
100
AcDbEntity
8
SHELLS
100
AcDbFace
10
1.20729890
20
-0.48161345
30
0.00000000
11
0.98508931
21
-0.15864272
31
0.00000000
12
0.98947244
22
-0.16208482
32
-0.03173344
13
1.20476267
23
-0.47500577
33
-0.03173344
0
3DFACE
5
B314
100
AcDbEntity
8
SHELLS
100
AcDbFace
10
1.45157422
20
-0.33616242
30
0.00000000
11
1.44843725
21
-0.49610363
31
0.00000000
12
1.44495508
22
-0.50306489
32
-0.03173344
13
1.44834827
23
-0.33005994
33
-0.03173344
0
3DFACE
5
B315
100
AcDbEntity
8
SHELLS
100
AcDbFace
10
1.44843725
20
-0.49610363
30
0.00000000
11
1.38804317
21
-0.34575203
31
0.00000000
12
1.37962810
22
-0.34043281
32
-0.03173344
13
1.44495508
23
-0.50306489
33
-0.03173344
0
3DFACE
5
B316
100
AcDbEntity
8
SHELLS
100
AcDbFace
10
1.38804317
20
-0.34575203
30
0.00000000
11
1.36412494
21
-0.20348400
31
0.00000000
12
1.35774696
22
-0.21029573
32
-0.03173344
13
1.37962810
23
-0.34043281
33
-0.03173344
0
3DFACE
5
B317
100
AcDbEntity
8
SHELLS
100
AcDbFace
10
1.36412494
20
-0.20348400
30
0.00000000
11
1.37753400
21
-0.10663795
31
0.00000000
12
1.37239485
22
-0.10450231
32
-0.03173344
13
1.35774696
23
-0.21029573
33
-0.03173344
0
3DFACE
5
B318
100
AcDbEntity
8
SHELLS
100
AcDbFace
10
1.37753400
20
-0.10663795
30
0.00000000
11
1.42318741
21
-0.19120532
31
0.00000000
12
1.42226607
22
-0.19688265
32
-0.03173344
13
1.37239485
23
-0.10450231
33
-0.03173344
0
3DFACE
5
B319
100
AcDbEntity
8
SHELLS
100
AcDbFace
10
1.42318741
20
-0.19120532
30
0.00000000
11
1.45157422
21
-0.33616242
31
0.00000000
12
1.44834827
22
-0.33005994
32
-0.03173344
13
1.42226607
23
-0.19688265
33
-0.03173344
0
3DFACE
5
B320
100
AcDbEntity
8
SHELLS
100
AcDbFace
10
1.44843725
20
-0.49610363
30
0.00000000
11
1.60204746
21
-0.45774170
31
0.00000000
12
1.61111192
22
-0.46156962
32
-0.03173344
13
1.44495508
23
-0.50306489
33
-0.03173344
0
3DFACE
5
B321
100
AcDbEntity
8
SHELLS
100
AcDbFace
10
1.60204746
20
-0.45774170
30
0.00000000
11
1.47039806
21
-0.55025388
31
0.00000000
12
1.46870961
22
-0.56163804
32
-0.03173344
13
1.61111192
23
-0.46156962
33
-0.03173344
0
3DFACE
5
B322
100
AcDbEntity
8
SHELLS
100
AcDbFace
10
1.47039806
20
-0.55025388
30
0.00000000
11
1.33378839
21
-0.60916319
31
0.00000000
12
1.34400733
22
-0.61541758
32
-0.03173344
13
1.46870961
23
-0.56163804
33
-0.03173344
0
3DFACE
5
B323
100
AcDbEntity
8
SHELLS
100
AcDbFace
10
1.33378839
20
-0.60916319
30
0.00000000
11
1.24282255
21
-0.62130683
31
0.00000000
12
1.24386851
22
-0.62878579
32
-0.03173344
13
1.34400733
23
-0.61541758
33
-0.03173344
0
3DFACE
5
B324
100
AcDbEntity
8
SHELLS
100
AcDbFace
10
1.24282255
20
-0.62130683
30
0.00000000
11
1.30995297
21
-0.56250181
31
0.00000000
12
1.31776835
22
-0.56405089
32
-0.03173344
13
1.24386851
23
-0.62878579
33
-0.03173344
0
3DFACE
5
B325
100
AcDbEntity
8
SHELLS
100
AcDbFace
10
1.30995297
20
-0.56250181
30
0.00000000
11
1.44843725
21
-0.49610363
31
0.00000000
12
1.44495508
22
-0.50306489
32
-0.03173344
13
1.31776835
23
-0.56405089
33
-0.03173344
0
3DFACE
5
B326
100
AcDbEntity
8
SHELLS
100
AcDbFace
10
1.44110876
20
0.17635414
30
0.00000000
11
1.51799310
21
0.09992904
31
0.00000000
12
1.51760391
22
0.09270394
32
-0.03173344
13
1.43418192
23
0.17562764
33
-0.03173344
0
3DFACE
5
B327
100
AcDbEntity
8
SHELLS
100
AcDbFace
10
1.51799310
20
0.09992904
30
0.00000000
11
1.41237851
21
0.13191372
31
0.00000000
12
1.40300868
22
0.12740835
32
-0.03173344
13
1.51760391
23
0.09270394
33
-0.03173344
0
3DFACE
5
B328
100
AcDbEntity
8
SHELLS
100
AcDbFace
10
1.41237851
20
0.13191372
30
0.00000000
11
1.30313203
21
0.20069320
31
0.00000000
12
1.30404419
22
0.18971686
32
-0.03173344
13
1.40300868
23
0.12740835
33
-0.03173344
0
3DFACE
5
B329
100
AcDbEntity
8
SHELLS
100
AcDbFace
10
1.30313203
20
0.20069320
30
0.00000000
11
1.24353410
21
0.26424874
31
0.00000000
12
1.23808955
22
0.26005122
32
-0.03173344
13
1.30404419
23
0.18971686
33
-0.03173344
0
3DFACE
5
B330
100
AcDbEntity
8
SHELLS
100
AcDbFace
10
1.24353410
20
0.26424874
30
0.00000000
11
1.32577188
21
0.24205160
31
0.00000000
12
1.32909880
22
0.23548654
32
-0.03173344
13
1.23808955
23
0.26005122
33
-0.03173344
0
3DFACE
5
B331
100
AcDbEntity
8
SHELLS
100
AcDbFace
10
1.32577188
20
0.24205160
30
0.00000000
11
1.44110876
21
0.17635414
31
0.00000000
12
1.43418192
22
0.17562764
32
-0.03173344
13
1.32909880
23
0.23548654
33
-0.03173344
0
3DFACE
5
B332
100
AcDbEntity
8
SHELLS
100
AcDbFace
10
0.60285702
20
0.46364180
30
0.00000000
11
0.68517353
21
0.48157722
31
0.00000000
12
0.69285589
22
0.47847998
32
-0.03173344
13
0.59707880
23
0.45761173
33
-0.03173344
0
3DFACE
5
B333
100
AcDbEntity
8
SHELLS
100
AcDbFace
10
0.68517353
20
0.48157722
30
0.00000000
11
0.61421844
21
0.43346644
31
0.00000000
12
0.61029807
22
0.42250202
32
-0.03173344
13
0.69285589
23
0.47847998
33
-0.03173344
0
3DFACE
5
B334
100
AcDbEntity
8
SHELLS
100
AcDbFace
10
0.61421844
20
0.43346644
30
0.00000000
11
0.42871015
21
0.35709801
31
0.00000000
12
0.44125294
22
0.35291005
32
-0.03173344
13
0.61029807
23
0.42250202
33
-0.03173344
0
3DFACE
5
B335
100
AcDbEntity
8
SHELLS
100
AcDbFace
10
0.42871015
20
0.35709801
30
0.00000000
11
0.34933663
21
0.33799788
31
0.00000000
12
0.34492732
22
0.32973062
32
-0.03173344
13
0.44125294
23
0.35291005
33
-0.03173344
0
3DFACE
5
B336
100
AcDbEntity
8
SHELLS
100
AcDbFace
10
0.34933663
20
0.33799788
30
0.00000000
11
0.41680459
21
0.38120324
31
0.00000000
12
0.42680467
22
0.38216352
32
-0.03173344
13
0.34492732
23
0.32973062
33
-0.03173344
0
3DFACE
5
B337
100
AcDbEntity
8
SHELLS
100
AcDbFace
10
0.41680459
20
0.38120324
30
0.00000000
11
0.60285702
21
0.46364180
31
0.00000000
12
0.59707880
22
0.45761173
32
-0.03173344
13
0.42680467
23
0.38216352
33
-0.03173344
0
3DFACE
5
B338
100
AcDbEntity
8
SHELLS
100
AcDbFace
10
0.17976680
20
-0.12397400
30
0.00000000
11
0.11875108
21
-0.11242811
31
0.00000000
12
0.11007479
22
-0.10538921
32
-0.03173344
13
0.19063392
23
-0.12063326
33
-0.03173344
0
3DFACE
5
B339
100
AcDbEntity
8
SHELLS
100
AcDbFace
10
0.11875108
20
-0.11242811
30
0.00000000
11
0.18132630
21
-0.09828073
31
0.00000000
12
0.19269293
22
-0.08671039
32
-0.03173344
13
0.11007479
23
-0.10538921
33
-0.03173344
0
3DFACE
5
B340
100
AcDbEntity
8
SHELLS
100
AcDbFace
10
0.18132630
20
-0.09828073
30
0.00000000
11
0.44663849
21
-0.09214555
31
0.00000000
12
0.43823119
22
-0.08103298
32
-0.03173344
13
0.19269293
23
-0.08671039
33
-0.03173344
0
3DFACE
5
B341
100
AcDbEntity
8
SHELLS
100
AcDbFace
10
0.44663849
20
-0.09214555
30
0.00000000
11
0.49738320
21
-0.10665323
31
0.00000000
12
0.50248891
22
-0.09940397
32
-0.03173344
13
0.43823119
23
-0.08103298
33
-0.03173344
0
3DFACE
5
B342
100
AcDbEntity
8
SHELLS
100
AcDbFace
10
0.49738320
20
-0.10665323
30
0.00000000
11
0.44870836
21
-0.12187985
31
0.00000000
12
0.44085226
22
-0.11868535
32
-0.03173344
13
0.50248891
23
-0.09940397
33
-0.03173344
0
3DFACE
5
B343
100
AcDbEntity
8
SHELLS
100
AcDbFace
10
0.44870836
20
-0.12187985
30
0.00000000
11
0.17976680
21
-0.12397400
31
0.00000000
12
0.19063392
22
-0.12063326
32
-0.03173344
13
0.44085226
23
-0.11868535
33
-0.03173344
0
3DFACE
5
B344
100
AcDbEntity
8
SHELLS
100
AcDbFace
10
1.05140184
20
0.48124395
30
0.00000000
11
1.06215102
21
0.45527666
31
0.00000000
12
1.05698637
22
0.45128659
32
-0.03173344
13
1.04494006
23
0.48038741
33
-0.03173344
0
3DFACE
5
B345
100
AcDbEntity
8
SHELLS
100
AcDbFace
10
1.06215102
20
0.45527666
30
0.00000000
11
1.03577935
21
0.46649111
31
0.00000000
12
1.02743237
22
0.46385431
32
-0.03173344
13
1.05698637
23
0.45128659
33
-0.03173344
0
3DFACE
5
B346
100
AcDbEntity
8
SHELLS
100
AcDbFace
10
1.03577935
20
0.46649111
30
0.00000000
11
0.84483437
21
0.65862258
31
0.00000000
12
0.84207267
22
0.65036481
32
-0.03173344
13
1.02743237
23
0.46385431
33
-0.03173344
0
3DFACE
5
B347
100
AcDbEntity
8
SHELLS
100
AcDbFace
10
0.84483437
20
0.65862258
30
0.00000000
11
0.81779286
21
0.70163575
31
0.00000000
12
0.81186466
22
0.69841472
32
-0.03173344
13
0.84207267
23
0.65036481
33
-0.03173344
0
3DFACE
5
B348
100
AcDbEntity
8
SHELLS
100
AcDbFace
10
0.81779286
20
0.70163575
30
0.00000000
11
0.86008709
21
0.67449497
31
0.00000000
12
0.85911145
22
0.66809582
32
-0.03173344
13
0.81186466
23
0.69841472
33
-0.03173344
0
3DFACE
5
B349
100
AcDbEntity
8
SHELLS
100
AcDbFace
10
0.86008709
20
0.67449497
30
0.00000000
11
1.05140184
21
0.48124395
31
0.00000000
12
1.04494006
22
0.48038741
32
-0.03173344
13
0.85911145
23
0.66809582
33
-0.03173344
0
3DFACE
5
B350
100
AcDbEntity
8
SHELLS
100
AcDbFace
10
-0.88266149
20
0.17392828
30
0.00000000
11
-0.91320095
21
0.14618393
31
0.00000000
12
-0.92109452
22
0.14971450
32
-0.03173344
13
-0.88560636
23
0.18195462
33
-0.03173344
0
3DFACE
5
B351
100
AcDbEntity
8
SHELLS
100
AcDbFace
10
-0.91320095
20
0.14618393
30
0.00000000
11
-0.90500346
21
0.18790833
31
0.00000000
12
-0.91156868
22
0.19820003
32
-0.03173344
13
-0.92109452
23
0.14971450
33
-0.03173344
0
3DFACE
5
B352
100
AcDbEntity
8
SHELLS
100
AcDbFace
10
-0.90500346
20
0.18790833
30
0.00000000
11
-0.81012293
21
0.35676623
31
0.00000000
12
-0.82452691
22
0.35310764
32
-0.03173344
13
-0.91156868
23
0.19820003
33
-0.03173344
0
3DFACE
5
B353
100
AcDbEntity
8
SHELLS
100
AcDbFace
10
-0.81012293
20
0.35676623
30
0.00000000
11
-0.74602487
21
0.44206576
31
0.00000000
12
-0.75056013
22
0.45154014
32
-0.03173344
13
-0.82452691
23
0.35310764
33
-0.03173344
0
3DFACE
5
B354
100
AcDbEntity
8
SHELLS
100
AcDbFace
10
-0.74602487
20
0.44206576
30
0.00000000
11
-0.78533274
21
0.34527542
31
0.00000000
12
-0.79591995
22
0.33984768
32
-0.03173344
13
-0.75056013
23
0.45154014
33
-0.03173344
0
3DFACE
5
B355
100
AcDbEntity
8
SHELLS
100
AcDbFace
10
-0.78533274
20
0.34527542
30
0.00000000
11
-0.88266149
21
0.17392828
31
0.00000000
12
-0.88560636
22
0.18195462
32
-0.03173344
13
-0.79591995
23
0.33984768
33
-0.03173344
0
3DFACE
5
B356
100
AcDbEntity
8
SHELLS
100
AcDbFace
10
-0.52659487
20
0.29682735
30
0.00000000
11
-0.42899269
21
0.25815524
31
0.00000000
12
-0.42246555
22
0.24854333
32
-0.03173344
13
-0.53974944
23
0.29501376
33
-0.03173344
0
3DFACE
5
B357
100
AcDbEntity
8
SHELLS
100
AcDbFace
10
-0.42899269
20
0.25815524
30
0.00000000
11
-0.53620705
21
0.26890382
31
0.00000000
12
-0.55129993
22
0.26145938
32
-0.03173344
13
-0.42246555
23
0.24854333
33
-0.03173344
0
3DFACE
5
B358
100
AcDbEntity
8
SHELLS
100
AcDbFace
10
-0.53620705
20
0.26890382
30
0.00000000
11
-0.66486297
21
0.29814452
31
0.00000000
12
-0.65690232
22
0.28546036
32
-0.03173344
13
-0.55129993
23
0.26145938
33
-0.03173344
0
3DFACE
5
B359
100
AcDbEntity
8
SHELLS
100
AcDbFace
10
-0.66486297
20
0.29814452
30
0.00000000
11
-0.78533274
21
0.34527542
31
0.00000000
12
-0.79591995
22
0.33984768
32
-0.03173344
13
-0.65690232
23
0.28546036
33
-0.03173344
0
3DFACE
5
B360
100
AcDbEntity
8
SHELLS
100
AcDbFace
10
-0.78533274
20
0.34527542
30
0.00000000
11
-0.65937548
21
0.33150171
31
0.00000000
12
-0.65056996
22
0.32395332
32
-0.03173344
13
-0.79591995
23
0.33984768
33
-0.03173344
0
3DFACE
5
B361
100
AcDbEntity
8
SHELLS
100
AcDbFace
10
-0.65937548
20
0.33150171
30
0.00000000
11
-0.52659487
21
0.29682735
31
0.00000000
12
-0.53974944
22
0.29501376
32
-0.03173344
13
-0.65056996
23
0.32395332
33
-0.03173344
0
3DFACE
5
B362
100
AcDbEntity
8
SHELLS
100
AcDbFace
10
-0.22022988
20
0.06214772
30
0.00000000
11
-0.15425835
21
0.04852846
31
0.00000000
12
-0.14610231
22
0.04087129
32
-0.03173344
13
-0.23198258
23
0.05860054
33
-0.03173344
0
3DFACE
5
B363
100
AcDbEntity
8
SHELLS
100
AcDbFace
10
-0.15425835
20
0.04852846
30
0.00000000
11
-0.22280543
21
0.03579437
31
0.00000000
12
-0.23533537
22
0.02429434
32
-0.03173344
13
-0.14610231
23
0.04087129
33
-0.03173344
0
3DFACE
5
B364
100
AcDbEntity
8
SHELLS
100
AcDbFace
10
-0.22280543
20
0.03579437
30
0.00000000
11
-0.44467392
21
0.03599247
31
0.00000000
12
-0.43467921
22
0.02447321
32
-0.03173344
13
-0.23533537
23
0.02429434
33
-0.03173344
0
3DFACE
5
B365
100
AcDbEntity
8
SHELLS
100
AcDbFace
10
-0.44467392
20
0.03599247
30
0.00000000
11
-0.52213291
21
0.05299016
31
0.00000000
12
-0.53066232
22
0.04553585
32
-0.03173344
13
-0.43467921
23
0.02447321
33
-0.03173344
0
3DFACE
5
B366
100
AcDbEntity
8
SHELLS
100
AcDbFace
10
-0.52213291
20
0.05299016
30
0.00000000
11
-0.44648619
21
0.06730114
31
0.00000000
12
-0.43692488
22
0.06326927
32
-0.03173344
13
-0.53066232
23
0.04553585
33
-0.03173344
0
3DFACE
5
B367
100
AcDbEntity
8
SHELLS
100
AcDbFace
10
-0.44648619
20
0.06730114
30
0.00000000
11
-0.22022988
21
0.06214772
31
0.00000000
12
-0.23198258
22
0.05860054
32
-0.03173344
13
-0.43692488
23
0.06326927
33
-0.03173344
0
3DFACE
5
B368
100
AcDbEntity
8
SHELLS
100
AcDbFace
10
-0.14635722
20
0.09200377
30
0.00000000
11
-0.21568202
21
0.09910662
31
0.00000000
12
-0.22606227
22
0.10671281
32
-0.03173344
13
-0.13581680
23
0.09746648
33
-0.03173344
0
3DFACE
5
B369
100
AcDbEntity
8
SHELLS
100
AcDbFace
10
-0.21568202
20
0.09910662
30
0.00000000
11
-0.14616192
21
0.11820039
31
0.00000000
12
-0.13556255
22
0.13156866
32
-0.03173344
13
-0.22606227
23
0.10671281
33
-0.03173344
0
3DFACE
5
B370
100
AcDbEntity
8
SHELLS
100
AcDbFace
10
-0.14616192
20
0.11820039
30
0.00000000
11
0.08495493
21
0.13641636
31
0.00000000
12
0.07268777
22
0.14798239
32
-0.03173344
13
-0.13556255
23
0.13156866
33
-0.03173344
0
3DFACE
5
B371
100
AcDbEntity
8
SHELLS
100
AcDbFace
10
0.08495493
20
0.13641636
30
0.00000000
11
0.14588304
21
0.12823846
31
0.00000000
12
0.15275923
22
0.13723504
32
-0.03173344
13
0.07268777
23
0.14798239
33
-0.03173344
0
3DFACE
5
B372
100
AcDbEntity
8
SHELLS
100
AcDbFace
10
0.14588304
20
0.12823846
30
0.00000000
11
0.08914325
21
0.11136708
31
0.00000000
12
0.07819204
22
0.11506274
32
-0.03173344
13
0.15275923
23
0.13723504
33
-0.03173344
0
3DFACE
5
B373
100
AcDbEntity
8
SHELLS
100
AcDbFace
10
0.08914325
20
0.11136708
30
0.00000000
11
-0.14635722
21
0.09200377
31
0.00000000
12
-0.13581680
22
0.09746648
32
-0.03173344
13
0.07819204
23
0.11506274
33
-0.03173344
0
ENDSEC
0
SECTION
2
OBJECTS
0
DICTIONARY
5
C
100
AcDbDictionary
3
ACAD_GROUP
350
D
3
ACAD_MLINESTYLE
350
E
0
DICTIONARY
5
D
102
{ACAD_REACTORS
330
C
102
}
100
AcDbDictionary
0
DICTIONARY
5
E
102
{ACAD_REACTORS
330
C
102
}
100
AcDbDictionary
3
STANDARD
350
1C
0
MLINESTYLE
5
1C
102
{ACAD_REACTORS
330
E
102
}
100
AcDbMlineStyle
2
STANDARD
70
0
3

62
0
51
90.0
52
90.0
71
2
49
0.5
62
256
6
BYLAYER
49
-0.5
62
256
6
BYLAYER
0
ENDSEC
0
EOF
